G04 #@! TF.GenerationSoftware,KiCad,Pcbnew,(5.1.2-1)-1*
G04 #@! TF.CreationDate,2019-05-31T16:35:32-04:00*
G04 #@! TF.ProjectId,RubyLights,52756279-4c69-4676-9874-732e6b696361,.5*
G04 #@! TF.SameCoordinates,Original*
G04 #@! TF.FileFunction,Soldermask,Top*
G04 #@! TF.FilePolarity,Negative*
%FSLAX46Y46*%
G04 Gerber Fmt 4.6, Leading zero omitted, Abs format (unit mm)*
G04 Created by KiCad (PCBNEW (5.1.2-1)-1) date 2019-05-31 16:35:32*
%MOMM*%
%LPD*%
G04 APERTURE LIST*
%ADD10C,0.010000*%
%ADD11C,0.100000*%
G04 APERTURE END LIST*
D10*
G36*
X115739747Y-87020400D02*
G01*
X116285059Y-87020400D01*
X116086279Y-87221787D01*
X115756571Y-87584691D01*
X115542151Y-87858815D01*
X115463703Y-87962400D01*
X115369144Y-88082529D01*
X115269050Y-88206202D01*
X115173998Y-88320419D01*
X115094566Y-88412181D01*
X115069468Y-88439760D01*
X114988036Y-88527212D01*
X115057994Y-88618356D01*
X115193436Y-88807604D01*
X115280978Y-88947050D01*
X115335848Y-89029286D01*
X115397124Y-89108612D01*
X115402273Y-89114607D01*
X115471222Y-89197581D01*
X115551747Y-89300137D01*
X115634942Y-89410288D01*
X115711902Y-89516047D01*
X115773719Y-89605425D01*
X115809376Y-89662547D01*
X115844457Y-89715596D01*
X115902986Y-89794062D01*
X115974820Y-89885252D01*
X116049815Y-89976472D01*
X116117828Y-90055032D01*
X116154200Y-90094020D01*
X116178089Y-90120081D01*
X116220363Y-90167406D01*
X116228477Y-90176570D01*
X116290055Y-90246200D01*
X115163600Y-90246200D01*
X115163600Y-90167923D01*
X115146837Y-90091395D01*
X115099607Y-89986149D01*
X115026493Y-89860239D01*
X114932081Y-89721716D01*
X114844542Y-89607533D01*
X114773268Y-89515313D01*
X114707947Y-89424269D01*
X114660777Y-89351535D01*
X114654671Y-89340833D01*
X114614629Y-89274434D01*
X114579342Y-89226284D01*
X114570699Y-89217500D01*
X114536138Y-89178816D01*
X114495915Y-89122250D01*
X114458226Y-89074093D01*
X114427715Y-89052487D01*
X114426414Y-89052400D01*
X114417538Y-89077091D01*
X114410418Y-89148381D01*
X114405264Y-89262092D01*
X114402283Y-89414044D01*
X114401600Y-89548961D01*
X114402284Y-89728263D01*
X114404695Y-89864270D01*
X114409375Y-89964475D01*
X114416863Y-90036369D01*
X114427698Y-90087443D01*
X114442421Y-90125188D01*
X114443244Y-90126811D01*
X114478717Y-90186491D01*
X114510223Y-90224618D01*
X114513094Y-90226761D01*
X114497597Y-90232323D01*
X114438247Y-90237262D01*
X114341986Y-90241312D01*
X114215759Y-90244207D01*
X114066511Y-90245682D01*
X114014794Y-90245811D01*
X113488289Y-90246200D01*
X113517968Y-90176350D01*
X113546141Y-90117758D01*
X113568224Y-90082370D01*
X113572057Y-90053142D01*
X113575657Y-89977781D01*
X113578959Y-89860951D01*
X113581896Y-89707317D01*
X113584399Y-89521546D01*
X113586404Y-89308302D01*
X113587842Y-89072251D01*
X113588647Y-88818059D01*
X113588799Y-88646290D01*
X113588741Y-88342311D01*
X113588470Y-88084912D01*
X113587846Y-87869874D01*
X113586726Y-87692978D01*
X113584969Y-87550004D01*
X113582433Y-87436733D01*
X113578976Y-87348945D01*
X113574457Y-87282421D01*
X113568733Y-87232941D01*
X113561662Y-87196286D01*
X113553104Y-87168237D01*
X113542916Y-87144574D01*
X113537999Y-87134699D01*
X113507244Y-87072869D01*
X113489190Y-87033660D01*
X113487199Y-87027729D01*
X113511335Y-87025507D01*
X113578688Y-87023556D01*
X113681672Y-87021984D01*
X113812706Y-87020901D01*
X113964205Y-87020415D01*
X113997917Y-87020400D01*
X114171060Y-87020664D01*
X114299629Y-87021831D01*
X114389846Y-87024464D01*
X114447937Y-87029123D01*
X114480124Y-87036372D01*
X114492632Y-87046772D01*
X114491686Y-87060885D01*
X114490164Y-87064850D01*
X114456805Y-87153673D01*
X114432739Y-87242181D01*
X114416580Y-87341141D01*
X114406942Y-87461321D01*
X114402440Y-87613488D01*
X114401600Y-87753088D01*
X114401599Y-88172904D01*
X114477799Y-88099900D01*
X114525413Y-88049557D01*
X114551994Y-88012278D01*
X114554000Y-88005483D01*
X114569137Y-87979550D01*
X114608628Y-87926128D01*
X114663588Y-87856145D01*
X114725132Y-87780529D01*
X114784377Y-87710209D01*
X114832439Y-87656114D01*
X114859239Y-87630000D01*
X114881561Y-87602734D01*
X114919936Y-87546630D01*
X114947802Y-87503000D01*
X115006005Y-87415298D01*
X115068951Y-87328698D01*
X115091299Y-87300362D01*
X115136013Y-87233736D01*
X115161408Y-87172643D01*
X115163600Y-87156390D01*
X115164122Y-87112677D01*
X115169791Y-87079502D01*
X115186762Y-87055412D01*
X115221189Y-87038955D01*
X115279226Y-87028677D01*
X115367028Y-87023127D01*
X115490750Y-87020851D01*
X115656545Y-87020396D01*
X115739747Y-87020400D01*
X115739747Y-87020400D01*
G37*
X115739747Y-87020400D02*
X116285059Y-87020400D01*
X116086279Y-87221787D01*
X115756571Y-87584691D01*
X115542151Y-87858815D01*
X115463703Y-87962400D01*
X115369144Y-88082529D01*
X115269050Y-88206202D01*
X115173998Y-88320419D01*
X115094566Y-88412181D01*
X115069468Y-88439760D01*
X114988036Y-88527212D01*
X115057994Y-88618356D01*
X115193436Y-88807604D01*
X115280978Y-88947050D01*
X115335848Y-89029286D01*
X115397124Y-89108612D01*
X115402273Y-89114607D01*
X115471222Y-89197581D01*
X115551747Y-89300137D01*
X115634942Y-89410288D01*
X115711902Y-89516047D01*
X115773719Y-89605425D01*
X115809376Y-89662547D01*
X115844457Y-89715596D01*
X115902986Y-89794062D01*
X115974820Y-89885252D01*
X116049815Y-89976472D01*
X116117828Y-90055032D01*
X116154200Y-90094020D01*
X116178089Y-90120081D01*
X116220363Y-90167406D01*
X116228477Y-90176570D01*
X116290055Y-90246200D01*
X115163600Y-90246200D01*
X115163600Y-90167923D01*
X115146837Y-90091395D01*
X115099607Y-89986149D01*
X115026493Y-89860239D01*
X114932081Y-89721716D01*
X114844542Y-89607533D01*
X114773268Y-89515313D01*
X114707947Y-89424269D01*
X114660777Y-89351535D01*
X114654671Y-89340833D01*
X114614629Y-89274434D01*
X114579342Y-89226284D01*
X114570699Y-89217500D01*
X114536138Y-89178816D01*
X114495915Y-89122250D01*
X114458226Y-89074093D01*
X114427715Y-89052487D01*
X114426414Y-89052400D01*
X114417538Y-89077091D01*
X114410418Y-89148381D01*
X114405264Y-89262092D01*
X114402283Y-89414044D01*
X114401600Y-89548961D01*
X114402284Y-89728263D01*
X114404695Y-89864270D01*
X114409375Y-89964475D01*
X114416863Y-90036369D01*
X114427698Y-90087443D01*
X114442421Y-90125188D01*
X114443244Y-90126811D01*
X114478717Y-90186491D01*
X114510223Y-90224618D01*
X114513094Y-90226761D01*
X114497597Y-90232323D01*
X114438247Y-90237262D01*
X114341986Y-90241312D01*
X114215759Y-90244207D01*
X114066511Y-90245682D01*
X114014794Y-90245811D01*
X113488289Y-90246200D01*
X113517968Y-90176350D01*
X113546141Y-90117758D01*
X113568224Y-90082370D01*
X113572057Y-90053142D01*
X113575657Y-89977781D01*
X113578959Y-89860951D01*
X113581896Y-89707317D01*
X113584399Y-89521546D01*
X113586404Y-89308302D01*
X113587842Y-89072251D01*
X113588647Y-88818059D01*
X113588799Y-88646290D01*
X113588741Y-88342311D01*
X113588470Y-88084912D01*
X113587846Y-87869874D01*
X113586726Y-87692978D01*
X113584969Y-87550004D01*
X113582433Y-87436733D01*
X113578976Y-87348945D01*
X113574457Y-87282421D01*
X113568733Y-87232941D01*
X113561662Y-87196286D01*
X113553104Y-87168237D01*
X113542916Y-87144574D01*
X113537999Y-87134699D01*
X113507244Y-87072869D01*
X113489190Y-87033660D01*
X113487199Y-87027729D01*
X113511335Y-87025507D01*
X113578688Y-87023556D01*
X113681672Y-87021984D01*
X113812706Y-87020901D01*
X113964205Y-87020415D01*
X113997917Y-87020400D01*
X114171060Y-87020664D01*
X114299629Y-87021831D01*
X114389846Y-87024464D01*
X114447937Y-87029123D01*
X114480124Y-87036372D01*
X114492632Y-87046772D01*
X114491686Y-87060885D01*
X114490164Y-87064850D01*
X114456805Y-87153673D01*
X114432739Y-87242181D01*
X114416580Y-87341141D01*
X114406942Y-87461321D01*
X114402440Y-87613488D01*
X114401600Y-87753088D01*
X114401599Y-88172904D01*
X114477799Y-88099900D01*
X114525413Y-88049557D01*
X114551994Y-88012278D01*
X114554000Y-88005483D01*
X114569137Y-87979550D01*
X114608628Y-87926128D01*
X114663588Y-87856145D01*
X114725132Y-87780529D01*
X114784377Y-87710209D01*
X114832439Y-87656114D01*
X114859239Y-87630000D01*
X114881561Y-87602734D01*
X114919936Y-87546630D01*
X114947802Y-87503000D01*
X115006005Y-87415298D01*
X115068951Y-87328698D01*
X115091299Y-87300362D01*
X115136013Y-87233736D01*
X115161408Y-87172643D01*
X115163600Y-87156390D01*
X115164122Y-87112677D01*
X115169791Y-87079502D01*
X115186762Y-87055412D01*
X115221189Y-87038955D01*
X115279226Y-87028677D01*
X115367028Y-87023127D01*
X115490750Y-87020851D01*
X115656545Y-87020396D01*
X115739747Y-87020400D01*
G36*
X117322600Y-88984045D02*
G01*
X117322821Y-89255528D01*
X117323583Y-89480618D01*
X117325026Y-89663721D01*
X117327294Y-89809240D01*
X117330531Y-89921583D01*
X117334878Y-90005155D01*
X117340480Y-90064359D01*
X117347478Y-90103603D01*
X117356016Y-90127292D01*
X117359892Y-90133395D01*
X117386178Y-90170943D01*
X117396891Y-90199085D01*
X117386710Y-90219174D01*
X117350312Y-90232563D01*
X117282376Y-90240605D01*
X117177578Y-90244653D01*
X117030598Y-90246060D01*
X116916200Y-90246200D01*
X116765918Y-90245515D01*
X116634727Y-90243608D01*
X116530427Y-90240702D01*
X116460819Y-90237017D01*
X116433705Y-90232776D01*
X116433600Y-90232488D01*
X116444155Y-90203454D01*
X116470726Y-90146509D01*
X116484400Y-90119200D01*
X116497266Y-90091760D01*
X116507759Y-90061394D01*
X116516120Y-90022920D01*
X116522591Y-89971155D01*
X116527411Y-89900918D01*
X116530822Y-89807027D01*
X116533065Y-89684301D01*
X116534381Y-89527559D01*
X116535010Y-89331617D01*
X116535195Y-89091296D01*
X116535200Y-89026750D01*
X116534947Y-88769269D01*
X116534071Y-88557749D01*
X116532396Y-88387351D01*
X116529748Y-88253238D01*
X116525950Y-88150571D01*
X116520827Y-88074513D01*
X116514203Y-88020226D01*
X116505903Y-87982872D01*
X116496447Y-87958938D01*
X116457695Y-87884000D01*
X117322600Y-87884000D01*
X117322600Y-88984045D01*
X117322600Y-88984045D01*
G37*
X117322600Y-88984045D02*
X117322821Y-89255528D01*
X117323583Y-89480618D01*
X117325026Y-89663721D01*
X117327294Y-89809240D01*
X117330531Y-89921583D01*
X117334878Y-90005155D01*
X117340480Y-90064359D01*
X117347478Y-90103603D01*
X117356016Y-90127292D01*
X117359892Y-90133395D01*
X117386178Y-90170943D01*
X117396891Y-90199085D01*
X117386710Y-90219174D01*
X117350312Y-90232563D01*
X117282376Y-90240605D01*
X117177578Y-90244653D01*
X117030598Y-90246060D01*
X116916200Y-90246200D01*
X116765918Y-90245515D01*
X116634727Y-90243608D01*
X116530427Y-90240702D01*
X116460819Y-90237017D01*
X116433705Y-90232776D01*
X116433600Y-90232488D01*
X116444155Y-90203454D01*
X116470726Y-90146509D01*
X116484400Y-90119200D01*
X116497266Y-90091760D01*
X116507759Y-90061394D01*
X116516120Y-90022920D01*
X116522591Y-89971155D01*
X116527411Y-89900918D01*
X116530822Y-89807027D01*
X116533065Y-89684301D01*
X116534381Y-89527559D01*
X116535010Y-89331617D01*
X116535195Y-89091296D01*
X116535200Y-89026750D01*
X116534947Y-88769269D01*
X116534071Y-88557749D01*
X116532396Y-88387351D01*
X116529748Y-88253238D01*
X116525950Y-88150571D01*
X116520827Y-88074513D01*
X116514203Y-88020226D01*
X116505903Y-87982872D01*
X116496447Y-87958938D01*
X116457695Y-87884000D01*
X117322600Y-87884000D01*
X117322600Y-88984045D01*
G36*
X117081941Y-86117960D02*
G01*
X117199545Y-86184395D01*
X117293023Y-86287045D01*
X117336812Y-86373124D01*
X117367422Y-86511614D01*
X117358321Y-86649591D01*
X117310973Y-86771084D01*
X117298588Y-86789850D01*
X117208149Y-86877408D01*
X117089271Y-86937553D01*
X116956333Y-86967418D01*
X116823713Y-86964134D01*
X116705790Y-86924832D01*
X116685006Y-86912244D01*
X116602737Y-86833394D01*
X116534914Y-86724770D01*
X116492747Y-86607295D01*
X116484400Y-86537799D01*
X116503674Y-86428575D01*
X116554190Y-86314110D01*
X116624982Y-86215158D01*
X116680642Y-86166295D01*
X116812861Y-86105876D01*
X116949837Y-86090776D01*
X117081941Y-86117960D01*
X117081941Y-86117960D01*
G37*
X117081941Y-86117960D02*
X117199545Y-86184395D01*
X117293023Y-86287045D01*
X117336812Y-86373124D01*
X117367422Y-86511614D01*
X117358321Y-86649591D01*
X117310973Y-86771084D01*
X117298588Y-86789850D01*
X117208149Y-86877408D01*
X117089271Y-86937553D01*
X116956333Y-86967418D01*
X116823713Y-86964134D01*
X116705790Y-86924832D01*
X116685006Y-86912244D01*
X116602737Y-86833394D01*
X116534914Y-86724770D01*
X116492747Y-86607295D01*
X116484400Y-86537799D01*
X116503674Y-86428575D01*
X116554190Y-86314110D01*
X116624982Y-86215158D01*
X116680642Y-86166295D01*
X116812861Y-86105876D01*
X116949837Y-86090776D01*
X117081941Y-86117960D01*
D11*
G36*
X96249142Y-110978242D02*
G01*
X96397101Y-111039529D01*
X96530255Y-111128499D01*
X96643501Y-111241745D01*
X96732471Y-111374899D01*
X96793758Y-111522858D01*
X96825000Y-111679925D01*
X96825000Y-111840075D01*
X96793758Y-111997142D01*
X96732471Y-112145101D01*
X96643501Y-112278255D01*
X96530255Y-112391501D01*
X96397101Y-112480471D01*
X96249142Y-112541758D01*
X96092075Y-112573000D01*
X95931925Y-112573000D01*
X95774858Y-112541758D01*
X95626899Y-112480471D01*
X95493745Y-112391501D01*
X95380499Y-112278255D01*
X95291529Y-112145101D01*
X95230242Y-111997142D01*
X95199000Y-111840075D01*
X95199000Y-111679925D01*
X95230242Y-111522858D01*
X95291529Y-111374899D01*
X95380499Y-111241745D01*
X95493745Y-111128499D01*
X95626899Y-111039529D01*
X95774858Y-110978242D01*
X95931925Y-110947000D01*
X96092075Y-110947000D01*
X96249142Y-110978242D01*
X96249142Y-110978242D01*
G37*
G36*
X93709142Y-110978242D02*
G01*
X93857101Y-111039529D01*
X93990255Y-111128499D01*
X94103501Y-111241745D01*
X94192471Y-111374899D01*
X94253758Y-111522858D01*
X94285000Y-111679925D01*
X94285000Y-111840075D01*
X94253758Y-111997142D01*
X94192471Y-112145101D01*
X94103501Y-112278255D01*
X93990255Y-112391501D01*
X93857101Y-112480471D01*
X93709142Y-112541758D01*
X93552075Y-112573000D01*
X93391925Y-112573000D01*
X93234858Y-112541758D01*
X93086899Y-112480471D01*
X92953745Y-112391501D01*
X92840499Y-112278255D01*
X92751529Y-112145101D01*
X92690242Y-111997142D01*
X92659000Y-111840075D01*
X92659000Y-111679925D01*
X92690242Y-111522858D01*
X92751529Y-111374899D01*
X92840499Y-111241745D01*
X92953745Y-111128499D01*
X93086899Y-111039529D01*
X93234858Y-110978242D01*
X93391925Y-110947000D01*
X93552075Y-110947000D01*
X93709142Y-110978242D01*
X93709142Y-110978242D01*
G37*
G36*
X91169142Y-110978242D02*
G01*
X91317101Y-111039529D01*
X91450255Y-111128499D01*
X91563501Y-111241745D01*
X91652471Y-111374899D01*
X91713758Y-111522858D01*
X91745000Y-111679925D01*
X91745000Y-111840075D01*
X91713758Y-111997142D01*
X91652471Y-112145101D01*
X91563501Y-112278255D01*
X91450255Y-112391501D01*
X91317101Y-112480471D01*
X91169142Y-112541758D01*
X91012075Y-112573000D01*
X90851925Y-112573000D01*
X90694858Y-112541758D01*
X90546899Y-112480471D01*
X90413745Y-112391501D01*
X90300499Y-112278255D01*
X90211529Y-112145101D01*
X90150242Y-111997142D01*
X90119000Y-111840075D01*
X90119000Y-111679925D01*
X90150242Y-111522858D01*
X90211529Y-111374899D01*
X90300499Y-111241745D01*
X90413745Y-111128499D01*
X90546899Y-111039529D01*
X90694858Y-110978242D01*
X90851925Y-110947000D01*
X91012075Y-110947000D01*
X91169142Y-110978242D01*
X91169142Y-110978242D01*
G37*
G36*
X88629142Y-110978242D02*
G01*
X88777101Y-111039529D01*
X88910255Y-111128499D01*
X89023501Y-111241745D01*
X89112471Y-111374899D01*
X89173758Y-111522858D01*
X89205000Y-111679925D01*
X89205000Y-111840075D01*
X89173758Y-111997142D01*
X89112471Y-112145101D01*
X89023501Y-112278255D01*
X88910255Y-112391501D01*
X88777101Y-112480471D01*
X88629142Y-112541758D01*
X88472075Y-112573000D01*
X88311925Y-112573000D01*
X88154858Y-112541758D01*
X88006899Y-112480471D01*
X87873745Y-112391501D01*
X87760499Y-112278255D01*
X87671529Y-112145101D01*
X87610242Y-111997142D01*
X87579000Y-111840075D01*
X87579000Y-111679925D01*
X87610242Y-111522858D01*
X87671529Y-111374899D01*
X87760499Y-111241745D01*
X87873745Y-111128499D01*
X88006899Y-111039529D01*
X88154858Y-110978242D01*
X88311925Y-110947000D01*
X88472075Y-110947000D01*
X88629142Y-110978242D01*
X88629142Y-110978242D01*
G37*
G36*
X86089142Y-110978242D02*
G01*
X86237101Y-111039529D01*
X86370255Y-111128499D01*
X86483501Y-111241745D01*
X86572471Y-111374899D01*
X86633758Y-111522858D01*
X86665000Y-111679925D01*
X86665000Y-111840075D01*
X86633758Y-111997142D01*
X86572471Y-112145101D01*
X86483501Y-112278255D01*
X86370255Y-112391501D01*
X86237101Y-112480471D01*
X86089142Y-112541758D01*
X85932075Y-112573000D01*
X85771925Y-112573000D01*
X85614858Y-112541758D01*
X85466899Y-112480471D01*
X85333745Y-112391501D01*
X85220499Y-112278255D01*
X85131529Y-112145101D01*
X85070242Y-111997142D01*
X85039000Y-111840075D01*
X85039000Y-111679925D01*
X85070242Y-111522858D01*
X85131529Y-111374899D01*
X85220499Y-111241745D01*
X85333745Y-111128499D01*
X85466899Y-111039529D01*
X85614858Y-110978242D01*
X85771925Y-110947000D01*
X85932075Y-110947000D01*
X86089142Y-110978242D01*
X86089142Y-110978242D01*
G37*
G36*
X83549142Y-110978242D02*
G01*
X83697101Y-111039529D01*
X83830255Y-111128499D01*
X83943501Y-111241745D01*
X84032471Y-111374899D01*
X84093758Y-111522858D01*
X84125000Y-111679925D01*
X84125000Y-111840075D01*
X84093758Y-111997142D01*
X84032471Y-112145101D01*
X83943501Y-112278255D01*
X83830255Y-112391501D01*
X83697101Y-112480471D01*
X83549142Y-112541758D01*
X83392075Y-112573000D01*
X83231925Y-112573000D01*
X83074858Y-112541758D01*
X82926899Y-112480471D01*
X82793745Y-112391501D01*
X82680499Y-112278255D01*
X82591529Y-112145101D01*
X82530242Y-111997142D01*
X82499000Y-111840075D01*
X82499000Y-111679925D01*
X82530242Y-111522858D01*
X82591529Y-111374899D01*
X82680499Y-111241745D01*
X82793745Y-111128499D01*
X82926899Y-111039529D01*
X83074858Y-110978242D01*
X83231925Y-110947000D01*
X83392075Y-110947000D01*
X83549142Y-110978242D01*
X83549142Y-110978242D01*
G37*
G36*
X81009142Y-110978242D02*
G01*
X81157101Y-111039529D01*
X81290255Y-111128499D01*
X81403501Y-111241745D01*
X81492471Y-111374899D01*
X81553758Y-111522858D01*
X81585000Y-111679925D01*
X81585000Y-111840075D01*
X81553758Y-111997142D01*
X81492471Y-112145101D01*
X81403501Y-112278255D01*
X81290255Y-112391501D01*
X81157101Y-112480471D01*
X81009142Y-112541758D01*
X80852075Y-112573000D01*
X80691925Y-112573000D01*
X80534858Y-112541758D01*
X80386899Y-112480471D01*
X80253745Y-112391501D01*
X80140499Y-112278255D01*
X80051529Y-112145101D01*
X79990242Y-111997142D01*
X79959000Y-111840075D01*
X79959000Y-111679925D01*
X79990242Y-111522858D01*
X80051529Y-111374899D01*
X80140499Y-111241745D01*
X80253745Y-111128499D01*
X80386899Y-111039529D01*
X80534858Y-110978242D01*
X80691925Y-110947000D01*
X80852075Y-110947000D01*
X81009142Y-110978242D01*
X81009142Y-110978242D01*
G37*
G36*
X78469142Y-110978242D02*
G01*
X78617101Y-111039529D01*
X78750255Y-111128499D01*
X78863501Y-111241745D01*
X78952471Y-111374899D01*
X79013758Y-111522858D01*
X79045000Y-111679925D01*
X79045000Y-111840075D01*
X79013758Y-111997142D01*
X78952471Y-112145101D01*
X78863501Y-112278255D01*
X78750255Y-112391501D01*
X78617101Y-112480471D01*
X78469142Y-112541758D01*
X78312075Y-112573000D01*
X78151925Y-112573000D01*
X77994858Y-112541758D01*
X77846899Y-112480471D01*
X77713745Y-112391501D01*
X77600499Y-112278255D01*
X77511529Y-112145101D01*
X77450242Y-111997142D01*
X77419000Y-111840075D01*
X77419000Y-111679925D01*
X77450242Y-111522858D01*
X77511529Y-111374899D01*
X77600499Y-111241745D01*
X77713745Y-111128499D01*
X77846899Y-111039529D01*
X77994858Y-110978242D01*
X78151925Y-110947000D01*
X78312075Y-110947000D01*
X78469142Y-110978242D01*
X78469142Y-110978242D01*
G37*
G36*
X75929142Y-110978242D02*
G01*
X76077101Y-111039529D01*
X76210255Y-111128499D01*
X76323501Y-111241745D01*
X76412471Y-111374899D01*
X76473758Y-111522858D01*
X76505000Y-111679925D01*
X76505000Y-111840075D01*
X76473758Y-111997142D01*
X76412471Y-112145101D01*
X76323501Y-112278255D01*
X76210255Y-112391501D01*
X76077101Y-112480471D01*
X75929142Y-112541758D01*
X75772075Y-112573000D01*
X75611925Y-112573000D01*
X75454858Y-112541758D01*
X75306899Y-112480471D01*
X75173745Y-112391501D01*
X75060499Y-112278255D01*
X74971529Y-112145101D01*
X74910242Y-111997142D01*
X74879000Y-111840075D01*
X74879000Y-111679925D01*
X74910242Y-111522858D01*
X74971529Y-111374899D01*
X75060499Y-111241745D01*
X75173745Y-111128499D01*
X75306899Y-111039529D01*
X75454858Y-110978242D01*
X75611925Y-110947000D01*
X75772075Y-110947000D01*
X75929142Y-110978242D01*
X75929142Y-110978242D01*
G37*
G36*
X73389142Y-110978242D02*
G01*
X73537101Y-111039529D01*
X73670255Y-111128499D01*
X73783501Y-111241745D01*
X73872471Y-111374899D01*
X73933758Y-111522858D01*
X73965000Y-111679925D01*
X73965000Y-111840075D01*
X73933758Y-111997142D01*
X73872471Y-112145101D01*
X73783501Y-112278255D01*
X73670255Y-112391501D01*
X73537101Y-112480471D01*
X73389142Y-112541758D01*
X73232075Y-112573000D01*
X73071925Y-112573000D01*
X72914858Y-112541758D01*
X72766899Y-112480471D01*
X72633745Y-112391501D01*
X72520499Y-112278255D01*
X72431529Y-112145101D01*
X72370242Y-111997142D01*
X72339000Y-111840075D01*
X72339000Y-111679925D01*
X72370242Y-111522858D01*
X72431529Y-111374899D01*
X72520499Y-111241745D01*
X72633745Y-111128499D01*
X72766899Y-111039529D01*
X72914858Y-110978242D01*
X73071925Y-110947000D01*
X73232075Y-110947000D01*
X73389142Y-110978242D01*
X73389142Y-110978242D01*
G37*
G36*
X70849142Y-110978242D02*
G01*
X70997101Y-111039529D01*
X71130255Y-111128499D01*
X71243501Y-111241745D01*
X71332471Y-111374899D01*
X71393758Y-111522858D01*
X71425000Y-111679925D01*
X71425000Y-111840075D01*
X71393758Y-111997142D01*
X71332471Y-112145101D01*
X71243501Y-112278255D01*
X71130255Y-112391501D01*
X70997101Y-112480471D01*
X70849142Y-112541758D01*
X70692075Y-112573000D01*
X70531925Y-112573000D01*
X70374858Y-112541758D01*
X70226899Y-112480471D01*
X70093745Y-112391501D01*
X69980499Y-112278255D01*
X69891529Y-112145101D01*
X69830242Y-111997142D01*
X69799000Y-111840075D01*
X69799000Y-111679925D01*
X69830242Y-111522858D01*
X69891529Y-111374899D01*
X69980499Y-111241745D01*
X70093745Y-111128499D01*
X70226899Y-111039529D01*
X70374858Y-110978242D01*
X70531925Y-110947000D01*
X70692075Y-110947000D01*
X70849142Y-110978242D01*
X70849142Y-110978242D01*
G37*
G36*
X68309142Y-110978242D02*
G01*
X68457101Y-111039529D01*
X68590255Y-111128499D01*
X68703501Y-111241745D01*
X68792471Y-111374899D01*
X68853758Y-111522858D01*
X68885000Y-111679925D01*
X68885000Y-111840075D01*
X68853758Y-111997142D01*
X68792471Y-112145101D01*
X68703501Y-112278255D01*
X68590255Y-112391501D01*
X68457101Y-112480471D01*
X68309142Y-112541758D01*
X68152075Y-112573000D01*
X67991925Y-112573000D01*
X67834858Y-112541758D01*
X67686899Y-112480471D01*
X67553745Y-112391501D01*
X67440499Y-112278255D01*
X67351529Y-112145101D01*
X67290242Y-111997142D01*
X67259000Y-111840075D01*
X67259000Y-111679925D01*
X67290242Y-111522858D01*
X67351529Y-111374899D01*
X67440499Y-111241745D01*
X67553745Y-111128499D01*
X67686899Y-111039529D01*
X67834858Y-110978242D01*
X67991925Y-110947000D01*
X68152075Y-110947000D01*
X68309142Y-110978242D01*
X68309142Y-110978242D01*
G37*
G36*
X65769142Y-110978242D02*
G01*
X65917101Y-111039529D01*
X66050255Y-111128499D01*
X66163501Y-111241745D01*
X66252471Y-111374899D01*
X66313758Y-111522858D01*
X66345000Y-111679925D01*
X66345000Y-111840075D01*
X66313758Y-111997142D01*
X66252471Y-112145101D01*
X66163501Y-112278255D01*
X66050255Y-112391501D01*
X65917101Y-112480471D01*
X65769142Y-112541758D01*
X65612075Y-112573000D01*
X65451925Y-112573000D01*
X65294858Y-112541758D01*
X65146899Y-112480471D01*
X65013745Y-112391501D01*
X64900499Y-112278255D01*
X64811529Y-112145101D01*
X64750242Y-111997142D01*
X64719000Y-111840075D01*
X64719000Y-111679925D01*
X64750242Y-111522858D01*
X64811529Y-111374899D01*
X64900499Y-111241745D01*
X65013745Y-111128499D01*
X65146899Y-111039529D01*
X65294858Y-110978242D01*
X65451925Y-110947000D01*
X65612075Y-110947000D01*
X65769142Y-110978242D01*
X65769142Y-110978242D01*
G37*
G36*
X63229142Y-110978242D02*
G01*
X63377101Y-111039529D01*
X63510255Y-111128499D01*
X63623501Y-111241745D01*
X63712471Y-111374899D01*
X63773758Y-111522858D01*
X63805000Y-111679925D01*
X63805000Y-111840075D01*
X63773758Y-111997142D01*
X63712471Y-112145101D01*
X63623501Y-112278255D01*
X63510255Y-112391501D01*
X63377101Y-112480471D01*
X63229142Y-112541758D01*
X63072075Y-112573000D01*
X62911925Y-112573000D01*
X62754858Y-112541758D01*
X62606899Y-112480471D01*
X62473745Y-112391501D01*
X62360499Y-112278255D01*
X62271529Y-112145101D01*
X62210242Y-111997142D01*
X62179000Y-111840075D01*
X62179000Y-111679925D01*
X62210242Y-111522858D01*
X62271529Y-111374899D01*
X62360499Y-111241745D01*
X62473745Y-111128499D01*
X62606899Y-111039529D01*
X62754858Y-110978242D01*
X62911925Y-110947000D01*
X63072075Y-110947000D01*
X63229142Y-110978242D01*
X63229142Y-110978242D01*
G37*
G36*
X60689142Y-110978242D02*
G01*
X60837101Y-111039529D01*
X60970255Y-111128499D01*
X61083501Y-111241745D01*
X61172471Y-111374899D01*
X61233758Y-111522858D01*
X61265000Y-111679925D01*
X61265000Y-111840075D01*
X61233758Y-111997142D01*
X61172471Y-112145101D01*
X61083501Y-112278255D01*
X60970255Y-112391501D01*
X60837101Y-112480471D01*
X60689142Y-112541758D01*
X60532075Y-112573000D01*
X60371925Y-112573000D01*
X60214858Y-112541758D01*
X60066899Y-112480471D01*
X59933745Y-112391501D01*
X59820499Y-112278255D01*
X59731529Y-112145101D01*
X59670242Y-111997142D01*
X59639000Y-111840075D01*
X59639000Y-111679925D01*
X59670242Y-111522858D01*
X59731529Y-111374899D01*
X59820499Y-111241745D01*
X59933745Y-111128499D01*
X60066899Y-111039529D01*
X60214858Y-110978242D01*
X60371925Y-110947000D01*
X60532075Y-110947000D01*
X60689142Y-110978242D01*
X60689142Y-110978242D01*
G37*
G36*
X113267142Y-104628242D02*
G01*
X113415101Y-104689529D01*
X113548255Y-104778499D01*
X113661501Y-104891745D01*
X113750471Y-105024899D01*
X113811758Y-105172858D01*
X113843000Y-105329925D01*
X113843000Y-105490075D01*
X113811758Y-105647142D01*
X113750471Y-105795101D01*
X113661501Y-105928255D01*
X113548255Y-106041501D01*
X113415101Y-106130471D01*
X113267142Y-106191758D01*
X113110075Y-106223000D01*
X112949925Y-106223000D01*
X112792858Y-106191758D01*
X112644899Y-106130471D01*
X112511745Y-106041501D01*
X112398499Y-105928255D01*
X112309529Y-105795101D01*
X112248242Y-105647142D01*
X112217000Y-105490075D01*
X112217000Y-105329925D01*
X112248242Y-105172858D01*
X112309529Y-105024899D01*
X112398499Y-104891745D01*
X112511745Y-104778499D01*
X112644899Y-104689529D01*
X112792858Y-104628242D01*
X112949925Y-104597000D01*
X113110075Y-104597000D01*
X113267142Y-104628242D01*
X113267142Y-104628242D01*
G37*
G36*
X115807142Y-104628242D02*
G01*
X115955101Y-104689529D01*
X116088255Y-104778499D01*
X116201501Y-104891745D01*
X116290471Y-105024899D01*
X116351758Y-105172858D01*
X116383000Y-105329925D01*
X116383000Y-105490075D01*
X116351758Y-105647142D01*
X116290471Y-105795101D01*
X116201501Y-105928255D01*
X116088255Y-106041501D01*
X115955101Y-106130471D01*
X115807142Y-106191758D01*
X115650075Y-106223000D01*
X115489925Y-106223000D01*
X115332858Y-106191758D01*
X115184899Y-106130471D01*
X115051745Y-106041501D01*
X114938499Y-105928255D01*
X114849529Y-105795101D01*
X114788242Y-105647142D01*
X114757000Y-105490075D01*
X114757000Y-105329925D01*
X114788242Y-105172858D01*
X114849529Y-105024899D01*
X114938499Y-104891745D01*
X115051745Y-104778499D01*
X115184899Y-104689529D01*
X115332858Y-104628242D01*
X115489925Y-104597000D01*
X115650075Y-104597000D01*
X115807142Y-104628242D01*
X115807142Y-104628242D01*
G37*
G36*
X118347142Y-104628242D02*
G01*
X118495101Y-104689529D01*
X118628255Y-104778499D01*
X118741501Y-104891745D01*
X118830471Y-105024899D01*
X118891758Y-105172858D01*
X118923000Y-105329925D01*
X118923000Y-105490075D01*
X118891758Y-105647142D01*
X118830471Y-105795101D01*
X118741501Y-105928255D01*
X118628255Y-106041501D01*
X118495101Y-106130471D01*
X118347142Y-106191758D01*
X118190075Y-106223000D01*
X118029925Y-106223000D01*
X117872858Y-106191758D01*
X117724899Y-106130471D01*
X117591745Y-106041501D01*
X117478499Y-105928255D01*
X117389529Y-105795101D01*
X117328242Y-105647142D01*
X117297000Y-105490075D01*
X117297000Y-105329925D01*
X117328242Y-105172858D01*
X117389529Y-105024899D01*
X117478499Y-104891745D01*
X117591745Y-104778499D01*
X117724899Y-104689529D01*
X117872858Y-104628242D01*
X118029925Y-104597000D01*
X118190075Y-104597000D01*
X118347142Y-104628242D01*
X118347142Y-104628242D01*
G37*
G36*
X120887142Y-104628242D02*
G01*
X121035101Y-104689529D01*
X121168255Y-104778499D01*
X121281501Y-104891745D01*
X121370471Y-105024899D01*
X121431758Y-105172858D01*
X121463000Y-105329925D01*
X121463000Y-105490075D01*
X121431758Y-105647142D01*
X121370471Y-105795101D01*
X121281501Y-105928255D01*
X121168255Y-106041501D01*
X121035101Y-106130471D01*
X120887142Y-106191758D01*
X120730075Y-106223000D01*
X120569925Y-106223000D01*
X120412858Y-106191758D01*
X120264899Y-106130471D01*
X120131745Y-106041501D01*
X120018499Y-105928255D01*
X119929529Y-105795101D01*
X119868242Y-105647142D01*
X119837000Y-105490075D01*
X119837000Y-105329925D01*
X119868242Y-105172858D01*
X119929529Y-105024899D01*
X120018499Y-104891745D01*
X120131745Y-104778499D01*
X120264899Y-104689529D01*
X120412858Y-104628242D01*
X120569925Y-104597000D01*
X120730075Y-104597000D01*
X120887142Y-104628242D01*
X120887142Y-104628242D01*
G37*
G36*
X123427142Y-104628242D02*
G01*
X123575101Y-104689529D01*
X123708255Y-104778499D01*
X123821501Y-104891745D01*
X123910471Y-105024899D01*
X123971758Y-105172858D01*
X124003000Y-105329925D01*
X124003000Y-105490075D01*
X123971758Y-105647142D01*
X123910471Y-105795101D01*
X123821501Y-105928255D01*
X123708255Y-106041501D01*
X123575101Y-106130471D01*
X123427142Y-106191758D01*
X123270075Y-106223000D01*
X123109925Y-106223000D01*
X122952858Y-106191758D01*
X122804899Y-106130471D01*
X122671745Y-106041501D01*
X122558499Y-105928255D01*
X122469529Y-105795101D01*
X122408242Y-105647142D01*
X122377000Y-105490075D01*
X122377000Y-105329925D01*
X122408242Y-105172858D01*
X122469529Y-105024899D01*
X122558499Y-104891745D01*
X122671745Y-104778499D01*
X122804899Y-104689529D01*
X122952858Y-104628242D01*
X123109925Y-104597000D01*
X123270075Y-104597000D01*
X123427142Y-104628242D01*
X123427142Y-104628242D01*
G37*
G36*
X125967142Y-104628242D02*
G01*
X126115101Y-104689529D01*
X126248255Y-104778499D01*
X126361501Y-104891745D01*
X126450471Y-105024899D01*
X126511758Y-105172858D01*
X126543000Y-105329925D01*
X126543000Y-105490075D01*
X126511758Y-105647142D01*
X126450471Y-105795101D01*
X126361501Y-105928255D01*
X126248255Y-106041501D01*
X126115101Y-106130471D01*
X125967142Y-106191758D01*
X125810075Y-106223000D01*
X125649925Y-106223000D01*
X125492858Y-106191758D01*
X125344899Y-106130471D01*
X125211745Y-106041501D01*
X125098499Y-105928255D01*
X125009529Y-105795101D01*
X124948242Y-105647142D01*
X124917000Y-105490075D01*
X124917000Y-105329925D01*
X124948242Y-105172858D01*
X125009529Y-105024899D01*
X125098499Y-104891745D01*
X125211745Y-104778499D01*
X125344899Y-104689529D01*
X125492858Y-104628242D01*
X125649925Y-104597000D01*
X125810075Y-104597000D01*
X125967142Y-104628242D01*
X125967142Y-104628242D01*
G37*
G36*
X113267142Y-93198242D02*
G01*
X113415101Y-93259529D01*
X113548255Y-93348499D01*
X113661501Y-93461745D01*
X113750471Y-93594899D01*
X113811758Y-93742858D01*
X113843000Y-93899925D01*
X113843000Y-94060075D01*
X113811758Y-94217142D01*
X113750471Y-94365101D01*
X113661501Y-94498255D01*
X113548255Y-94611501D01*
X113415101Y-94700471D01*
X113267142Y-94761758D01*
X113110075Y-94793000D01*
X112949925Y-94793000D01*
X112792858Y-94761758D01*
X112644899Y-94700471D01*
X112511745Y-94611501D01*
X112398499Y-94498255D01*
X112309529Y-94365101D01*
X112248242Y-94217142D01*
X112217000Y-94060075D01*
X112217000Y-93899925D01*
X112248242Y-93742858D01*
X112309529Y-93594899D01*
X112398499Y-93461745D01*
X112511745Y-93348499D01*
X112644899Y-93259529D01*
X112792858Y-93198242D01*
X112949925Y-93167000D01*
X113110075Y-93167000D01*
X113267142Y-93198242D01*
X113267142Y-93198242D01*
G37*
G36*
X115807142Y-93198242D02*
G01*
X115955101Y-93259529D01*
X116088255Y-93348499D01*
X116201501Y-93461745D01*
X116290471Y-93594899D01*
X116351758Y-93742858D01*
X116383000Y-93899925D01*
X116383000Y-94060075D01*
X116351758Y-94217142D01*
X116290471Y-94365101D01*
X116201501Y-94498255D01*
X116088255Y-94611501D01*
X115955101Y-94700471D01*
X115807142Y-94761758D01*
X115650075Y-94793000D01*
X115489925Y-94793000D01*
X115332858Y-94761758D01*
X115184899Y-94700471D01*
X115051745Y-94611501D01*
X114938499Y-94498255D01*
X114849529Y-94365101D01*
X114788242Y-94217142D01*
X114757000Y-94060075D01*
X114757000Y-93899925D01*
X114788242Y-93742858D01*
X114849529Y-93594899D01*
X114938499Y-93461745D01*
X115051745Y-93348499D01*
X115184899Y-93259529D01*
X115332858Y-93198242D01*
X115489925Y-93167000D01*
X115650075Y-93167000D01*
X115807142Y-93198242D01*
X115807142Y-93198242D01*
G37*
G36*
X118347142Y-93198242D02*
G01*
X118495101Y-93259529D01*
X118628255Y-93348499D01*
X118741501Y-93461745D01*
X118830471Y-93594899D01*
X118891758Y-93742858D01*
X118923000Y-93899925D01*
X118923000Y-94060075D01*
X118891758Y-94217142D01*
X118830471Y-94365101D01*
X118741501Y-94498255D01*
X118628255Y-94611501D01*
X118495101Y-94700471D01*
X118347142Y-94761758D01*
X118190075Y-94793000D01*
X118029925Y-94793000D01*
X117872858Y-94761758D01*
X117724899Y-94700471D01*
X117591745Y-94611501D01*
X117478499Y-94498255D01*
X117389529Y-94365101D01*
X117328242Y-94217142D01*
X117297000Y-94060075D01*
X117297000Y-93899925D01*
X117328242Y-93742858D01*
X117389529Y-93594899D01*
X117478499Y-93461745D01*
X117591745Y-93348499D01*
X117724899Y-93259529D01*
X117872858Y-93198242D01*
X118029925Y-93167000D01*
X118190075Y-93167000D01*
X118347142Y-93198242D01*
X118347142Y-93198242D01*
G37*
G36*
X120887142Y-93198242D02*
G01*
X121035101Y-93259529D01*
X121168255Y-93348499D01*
X121281501Y-93461745D01*
X121370471Y-93594899D01*
X121431758Y-93742858D01*
X121463000Y-93899925D01*
X121463000Y-94060075D01*
X121431758Y-94217142D01*
X121370471Y-94365101D01*
X121281501Y-94498255D01*
X121168255Y-94611501D01*
X121035101Y-94700471D01*
X120887142Y-94761758D01*
X120730075Y-94793000D01*
X120569925Y-94793000D01*
X120412858Y-94761758D01*
X120264899Y-94700471D01*
X120131745Y-94611501D01*
X120018499Y-94498255D01*
X119929529Y-94365101D01*
X119868242Y-94217142D01*
X119837000Y-94060075D01*
X119837000Y-93899925D01*
X119868242Y-93742858D01*
X119929529Y-93594899D01*
X120018499Y-93461745D01*
X120131745Y-93348499D01*
X120264899Y-93259529D01*
X120412858Y-93198242D01*
X120569925Y-93167000D01*
X120730075Y-93167000D01*
X120887142Y-93198242D01*
X120887142Y-93198242D01*
G37*
G36*
X123427142Y-93198242D02*
G01*
X123575101Y-93259529D01*
X123708255Y-93348499D01*
X123821501Y-93461745D01*
X123910471Y-93594899D01*
X123971758Y-93742858D01*
X124003000Y-93899925D01*
X124003000Y-94060075D01*
X123971758Y-94217142D01*
X123910471Y-94365101D01*
X123821501Y-94498255D01*
X123708255Y-94611501D01*
X123575101Y-94700471D01*
X123427142Y-94761758D01*
X123270075Y-94793000D01*
X123109925Y-94793000D01*
X122952858Y-94761758D01*
X122804899Y-94700471D01*
X122671745Y-94611501D01*
X122558499Y-94498255D01*
X122469529Y-94365101D01*
X122408242Y-94217142D01*
X122377000Y-94060075D01*
X122377000Y-93899925D01*
X122408242Y-93742858D01*
X122469529Y-93594899D01*
X122558499Y-93461745D01*
X122671745Y-93348499D01*
X122804899Y-93259529D01*
X122952858Y-93198242D01*
X123109925Y-93167000D01*
X123270075Y-93167000D01*
X123427142Y-93198242D01*
X123427142Y-93198242D01*
G37*
G36*
X125967142Y-93198242D02*
G01*
X126115101Y-93259529D01*
X126248255Y-93348499D01*
X126361501Y-93461745D01*
X126450471Y-93594899D01*
X126511758Y-93742858D01*
X126543000Y-93899925D01*
X126543000Y-94060075D01*
X126511758Y-94217142D01*
X126450471Y-94365101D01*
X126361501Y-94498255D01*
X126248255Y-94611501D01*
X126115101Y-94700471D01*
X125967142Y-94761758D01*
X125810075Y-94793000D01*
X125649925Y-94793000D01*
X125492858Y-94761758D01*
X125344899Y-94700471D01*
X125211745Y-94611501D01*
X125098499Y-94498255D01*
X125009529Y-94365101D01*
X124948242Y-94217142D01*
X124917000Y-94060075D01*
X124917000Y-93899925D01*
X124948242Y-93742858D01*
X125009529Y-93594899D01*
X125098499Y-93461745D01*
X125211745Y-93348499D01*
X125344899Y-93259529D01*
X125492858Y-93198242D01*
X125649925Y-93167000D01*
X125810075Y-93167000D01*
X125967142Y-93198242D01*
X125967142Y-93198242D01*
G37*
G36*
X96249142Y-83038242D02*
G01*
X96397101Y-83099529D01*
X96530255Y-83188499D01*
X96643501Y-83301745D01*
X96732471Y-83434899D01*
X96793758Y-83582858D01*
X96825000Y-83739925D01*
X96825000Y-83900075D01*
X96793758Y-84057142D01*
X96732471Y-84205101D01*
X96643501Y-84338255D01*
X96530255Y-84451501D01*
X96397101Y-84540471D01*
X96249142Y-84601758D01*
X96092075Y-84633000D01*
X95931925Y-84633000D01*
X95774858Y-84601758D01*
X95626899Y-84540471D01*
X95493745Y-84451501D01*
X95380499Y-84338255D01*
X95291529Y-84205101D01*
X95230242Y-84057142D01*
X95199000Y-83900075D01*
X95199000Y-83739925D01*
X95230242Y-83582858D01*
X95291529Y-83434899D01*
X95380499Y-83301745D01*
X95493745Y-83188499D01*
X95626899Y-83099529D01*
X95774858Y-83038242D01*
X95931925Y-83007000D01*
X96092075Y-83007000D01*
X96249142Y-83038242D01*
X96249142Y-83038242D01*
G37*
G36*
X93709142Y-83038242D02*
G01*
X93857101Y-83099529D01*
X93990255Y-83188499D01*
X94103501Y-83301745D01*
X94192471Y-83434899D01*
X94253758Y-83582858D01*
X94285000Y-83739925D01*
X94285000Y-83900075D01*
X94253758Y-84057142D01*
X94192471Y-84205101D01*
X94103501Y-84338255D01*
X93990255Y-84451501D01*
X93857101Y-84540471D01*
X93709142Y-84601758D01*
X93552075Y-84633000D01*
X93391925Y-84633000D01*
X93234858Y-84601758D01*
X93086899Y-84540471D01*
X92953745Y-84451501D01*
X92840499Y-84338255D01*
X92751529Y-84205101D01*
X92690242Y-84057142D01*
X92659000Y-83900075D01*
X92659000Y-83739925D01*
X92690242Y-83582858D01*
X92751529Y-83434899D01*
X92840499Y-83301745D01*
X92953745Y-83188499D01*
X93086899Y-83099529D01*
X93234858Y-83038242D01*
X93391925Y-83007000D01*
X93552075Y-83007000D01*
X93709142Y-83038242D01*
X93709142Y-83038242D01*
G37*
G36*
X91169142Y-83038242D02*
G01*
X91317101Y-83099529D01*
X91450255Y-83188499D01*
X91563501Y-83301745D01*
X91652471Y-83434899D01*
X91713758Y-83582858D01*
X91745000Y-83739925D01*
X91745000Y-83900075D01*
X91713758Y-84057142D01*
X91652471Y-84205101D01*
X91563501Y-84338255D01*
X91450255Y-84451501D01*
X91317101Y-84540471D01*
X91169142Y-84601758D01*
X91012075Y-84633000D01*
X90851925Y-84633000D01*
X90694858Y-84601758D01*
X90546899Y-84540471D01*
X90413745Y-84451501D01*
X90300499Y-84338255D01*
X90211529Y-84205101D01*
X90150242Y-84057142D01*
X90119000Y-83900075D01*
X90119000Y-83739925D01*
X90150242Y-83582858D01*
X90211529Y-83434899D01*
X90300499Y-83301745D01*
X90413745Y-83188499D01*
X90546899Y-83099529D01*
X90694858Y-83038242D01*
X90851925Y-83007000D01*
X91012075Y-83007000D01*
X91169142Y-83038242D01*
X91169142Y-83038242D01*
G37*
G36*
X88629142Y-83038242D02*
G01*
X88777101Y-83099529D01*
X88910255Y-83188499D01*
X89023501Y-83301745D01*
X89112471Y-83434899D01*
X89173758Y-83582858D01*
X89205000Y-83739925D01*
X89205000Y-83900075D01*
X89173758Y-84057142D01*
X89112471Y-84205101D01*
X89023501Y-84338255D01*
X88910255Y-84451501D01*
X88777101Y-84540471D01*
X88629142Y-84601758D01*
X88472075Y-84633000D01*
X88311925Y-84633000D01*
X88154858Y-84601758D01*
X88006899Y-84540471D01*
X87873745Y-84451501D01*
X87760499Y-84338255D01*
X87671529Y-84205101D01*
X87610242Y-84057142D01*
X87579000Y-83900075D01*
X87579000Y-83739925D01*
X87610242Y-83582858D01*
X87671529Y-83434899D01*
X87760499Y-83301745D01*
X87873745Y-83188499D01*
X88006899Y-83099529D01*
X88154858Y-83038242D01*
X88311925Y-83007000D01*
X88472075Y-83007000D01*
X88629142Y-83038242D01*
X88629142Y-83038242D01*
G37*
G36*
X83549142Y-83038242D02*
G01*
X83697101Y-83099529D01*
X83830255Y-83188499D01*
X83943501Y-83301745D01*
X84032471Y-83434899D01*
X84093758Y-83582858D01*
X84125000Y-83739925D01*
X84125000Y-83900075D01*
X84093758Y-84057142D01*
X84032471Y-84205101D01*
X83943501Y-84338255D01*
X83830255Y-84451501D01*
X83697101Y-84540471D01*
X83549142Y-84601758D01*
X83392075Y-84633000D01*
X83231925Y-84633000D01*
X83074858Y-84601758D01*
X82926899Y-84540471D01*
X82793745Y-84451501D01*
X82680499Y-84338255D01*
X82591529Y-84205101D01*
X82530242Y-84057142D01*
X82499000Y-83900075D01*
X82499000Y-83739925D01*
X82530242Y-83582858D01*
X82591529Y-83434899D01*
X82680499Y-83301745D01*
X82793745Y-83188499D01*
X82926899Y-83099529D01*
X83074858Y-83038242D01*
X83231925Y-83007000D01*
X83392075Y-83007000D01*
X83549142Y-83038242D01*
X83549142Y-83038242D01*
G37*
G36*
X81009142Y-83038242D02*
G01*
X81157101Y-83099529D01*
X81290255Y-83188499D01*
X81403501Y-83301745D01*
X81492471Y-83434899D01*
X81553758Y-83582858D01*
X81585000Y-83739925D01*
X81585000Y-83900075D01*
X81553758Y-84057142D01*
X81492471Y-84205101D01*
X81403501Y-84338255D01*
X81290255Y-84451501D01*
X81157101Y-84540471D01*
X81009142Y-84601758D01*
X80852075Y-84633000D01*
X80691925Y-84633000D01*
X80534858Y-84601758D01*
X80386899Y-84540471D01*
X80253745Y-84451501D01*
X80140499Y-84338255D01*
X80051529Y-84205101D01*
X79990242Y-84057142D01*
X79959000Y-83900075D01*
X79959000Y-83739925D01*
X79990242Y-83582858D01*
X80051529Y-83434899D01*
X80140499Y-83301745D01*
X80253745Y-83188499D01*
X80386899Y-83099529D01*
X80534858Y-83038242D01*
X80691925Y-83007000D01*
X80852075Y-83007000D01*
X81009142Y-83038242D01*
X81009142Y-83038242D01*
G37*
G36*
X86089142Y-83038242D02*
G01*
X86237101Y-83099529D01*
X86370255Y-83188499D01*
X86483501Y-83301745D01*
X86572471Y-83434899D01*
X86633758Y-83582858D01*
X86665000Y-83739925D01*
X86665000Y-83900075D01*
X86633758Y-84057142D01*
X86572471Y-84205101D01*
X86483501Y-84338255D01*
X86370255Y-84451501D01*
X86237101Y-84540471D01*
X86089142Y-84601758D01*
X85932075Y-84633000D01*
X85771925Y-84633000D01*
X85614858Y-84601758D01*
X85466899Y-84540471D01*
X85333745Y-84451501D01*
X85220499Y-84338255D01*
X85131529Y-84205101D01*
X85070242Y-84057142D01*
X85039000Y-83900075D01*
X85039000Y-83739925D01*
X85070242Y-83582858D01*
X85131529Y-83434899D01*
X85220499Y-83301745D01*
X85333745Y-83188499D01*
X85466899Y-83099529D01*
X85614858Y-83038242D01*
X85771925Y-83007000D01*
X85932075Y-83007000D01*
X86089142Y-83038242D01*
X86089142Y-83038242D01*
G37*
G36*
X78469142Y-83038242D02*
G01*
X78617101Y-83099529D01*
X78750255Y-83188499D01*
X78863501Y-83301745D01*
X78952471Y-83434899D01*
X79013758Y-83582858D01*
X79045000Y-83739925D01*
X79045000Y-83900075D01*
X79013758Y-84057142D01*
X78952471Y-84205101D01*
X78863501Y-84338255D01*
X78750255Y-84451501D01*
X78617101Y-84540471D01*
X78469142Y-84601758D01*
X78312075Y-84633000D01*
X78151925Y-84633000D01*
X77994858Y-84601758D01*
X77846899Y-84540471D01*
X77713745Y-84451501D01*
X77600499Y-84338255D01*
X77511529Y-84205101D01*
X77450242Y-84057142D01*
X77419000Y-83900075D01*
X77419000Y-83739925D01*
X77450242Y-83582858D01*
X77511529Y-83434899D01*
X77600499Y-83301745D01*
X77713745Y-83188499D01*
X77846899Y-83099529D01*
X77994858Y-83038242D01*
X78151925Y-83007000D01*
X78312075Y-83007000D01*
X78469142Y-83038242D01*
X78469142Y-83038242D01*
G37*
G36*
X75929142Y-83038242D02*
G01*
X76077101Y-83099529D01*
X76210255Y-83188499D01*
X76323501Y-83301745D01*
X76412471Y-83434899D01*
X76473758Y-83582858D01*
X76505000Y-83739925D01*
X76505000Y-83900075D01*
X76473758Y-84057142D01*
X76412471Y-84205101D01*
X76323501Y-84338255D01*
X76210255Y-84451501D01*
X76077101Y-84540471D01*
X75929142Y-84601758D01*
X75772075Y-84633000D01*
X75611925Y-84633000D01*
X75454858Y-84601758D01*
X75306899Y-84540471D01*
X75173745Y-84451501D01*
X75060499Y-84338255D01*
X74971529Y-84205101D01*
X74910242Y-84057142D01*
X74879000Y-83900075D01*
X74879000Y-83739925D01*
X74910242Y-83582858D01*
X74971529Y-83434899D01*
X75060499Y-83301745D01*
X75173745Y-83188499D01*
X75306899Y-83099529D01*
X75454858Y-83038242D01*
X75611925Y-83007000D01*
X75772075Y-83007000D01*
X75929142Y-83038242D01*
X75929142Y-83038242D01*
G37*
G36*
X73389142Y-83038242D02*
G01*
X73537101Y-83099529D01*
X73670255Y-83188499D01*
X73783501Y-83301745D01*
X73872471Y-83434899D01*
X73933758Y-83582858D01*
X73965000Y-83739925D01*
X73965000Y-83900075D01*
X73933758Y-84057142D01*
X73872471Y-84205101D01*
X73783501Y-84338255D01*
X73670255Y-84451501D01*
X73537101Y-84540471D01*
X73389142Y-84601758D01*
X73232075Y-84633000D01*
X73071925Y-84633000D01*
X72914858Y-84601758D01*
X72766899Y-84540471D01*
X72633745Y-84451501D01*
X72520499Y-84338255D01*
X72431529Y-84205101D01*
X72370242Y-84057142D01*
X72339000Y-83900075D01*
X72339000Y-83739925D01*
X72370242Y-83582858D01*
X72431529Y-83434899D01*
X72520499Y-83301745D01*
X72633745Y-83188499D01*
X72766899Y-83099529D01*
X72914858Y-83038242D01*
X73071925Y-83007000D01*
X73232075Y-83007000D01*
X73389142Y-83038242D01*
X73389142Y-83038242D01*
G37*
G36*
X70849142Y-83038242D02*
G01*
X70997101Y-83099529D01*
X71130255Y-83188499D01*
X71243501Y-83301745D01*
X71332471Y-83434899D01*
X71393758Y-83582858D01*
X71425000Y-83739925D01*
X71425000Y-83900075D01*
X71393758Y-84057142D01*
X71332471Y-84205101D01*
X71243501Y-84338255D01*
X71130255Y-84451501D01*
X70997101Y-84540471D01*
X70849142Y-84601758D01*
X70692075Y-84633000D01*
X70531925Y-84633000D01*
X70374858Y-84601758D01*
X70226899Y-84540471D01*
X70093745Y-84451501D01*
X69980499Y-84338255D01*
X69891529Y-84205101D01*
X69830242Y-84057142D01*
X69799000Y-83900075D01*
X69799000Y-83739925D01*
X69830242Y-83582858D01*
X69891529Y-83434899D01*
X69980499Y-83301745D01*
X70093745Y-83188499D01*
X70226899Y-83099529D01*
X70374858Y-83038242D01*
X70531925Y-83007000D01*
X70692075Y-83007000D01*
X70849142Y-83038242D01*
X70849142Y-83038242D01*
G37*
G36*
X68309142Y-83038242D02*
G01*
X68457101Y-83099529D01*
X68590255Y-83188499D01*
X68703501Y-83301745D01*
X68792471Y-83434899D01*
X68853758Y-83582858D01*
X68885000Y-83739925D01*
X68885000Y-83900075D01*
X68853758Y-84057142D01*
X68792471Y-84205101D01*
X68703501Y-84338255D01*
X68590255Y-84451501D01*
X68457101Y-84540471D01*
X68309142Y-84601758D01*
X68152075Y-84633000D01*
X67991925Y-84633000D01*
X67834858Y-84601758D01*
X67686899Y-84540471D01*
X67553745Y-84451501D01*
X67440499Y-84338255D01*
X67351529Y-84205101D01*
X67290242Y-84057142D01*
X67259000Y-83900075D01*
X67259000Y-83739925D01*
X67290242Y-83582858D01*
X67351529Y-83434899D01*
X67440499Y-83301745D01*
X67553745Y-83188499D01*
X67686899Y-83099529D01*
X67834858Y-83038242D01*
X67991925Y-83007000D01*
X68152075Y-83007000D01*
X68309142Y-83038242D01*
X68309142Y-83038242D01*
G37*
G36*
X65769142Y-83038242D02*
G01*
X65917101Y-83099529D01*
X66050255Y-83188499D01*
X66163501Y-83301745D01*
X66252471Y-83434899D01*
X66313758Y-83582858D01*
X66345000Y-83739925D01*
X66345000Y-83900075D01*
X66313758Y-84057142D01*
X66252471Y-84205101D01*
X66163501Y-84338255D01*
X66050255Y-84451501D01*
X65917101Y-84540471D01*
X65769142Y-84601758D01*
X65612075Y-84633000D01*
X65451925Y-84633000D01*
X65294858Y-84601758D01*
X65146899Y-84540471D01*
X65013745Y-84451501D01*
X64900499Y-84338255D01*
X64811529Y-84205101D01*
X64750242Y-84057142D01*
X64719000Y-83900075D01*
X64719000Y-83739925D01*
X64750242Y-83582858D01*
X64811529Y-83434899D01*
X64900499Y-83301745D01*
X65013745Y-83188499D01*
X65146899Y-83099529D01*
X65294858Y-83038242D01*
X65451925Y-83007000D01*
X65612075Y-83007000D01*
X65769142Y-83038242D01*
X65769142Y-83038242D01*
G37*
G36*
X63229142Y-83038242D02*
G01*
X63377101Y-83099529D01*
X63510255Y-83188499D01*
X63623501Y-83301745D01*
X63712471Y-83434899D01*
X63773758Y-83582858D01*
X63805000Y-83739925D01*
X63805000Y-83900075D01*
X63773758Y-84057142D01*
X63712471Y-84205101D01*
X63623501Y-84338255D01*
X63510255Y-84451501D01*
X63377101Y-84540471D01*
X63229142Y-84601758D01*
X63072075Y-84633000D01*
X62911925Y-84633000D01*
X62754858Y-84601758D01*
X62606899Y-84540471D01*
X62473745Y-84451501D01*
X62360499Y-84338255D01*
X62271529Y-84205101D01*
X62210242Y-84057142D01*
X62179000Y-83900075D01*
X62179000Y-83739925D01*
X62210242Y-83582858D01*
X62271529Y-83434899D01*
X62360499Y-83301745D01*
X62473745Y-83188499D01*
X62606899Y-83099529D01*
X62754858Y-83038242D01*
X62911925Y-83007000D01*
X63072075Y-83007000D01*
X63229142Y-83038242D01*
X63229142Y-83038242D01*
G37*
G36*
X60689142Y-83038242D02*
G01*
X60837101Y-83099529D01*
X60970255Y-83188499D01*
X61083501Y-83301745D01*
X61172471Y-83434899D01*
X61233758Y-83582858D01*
X61265000Y-83739925D01*
X61265000Y-83900075D01*
X61233758Y-84057142D01*
X61172471Y-84205101D01*
X61083501Y-84338255D01*
X60970255Y-84451501D01*
X60837101Y-84540471D01*
X60689142Y-84601758D01*
X60532075Y-84633000D01*
X60371925Y-84633000D01*
X60214858Y-84601758D01*
X60066899Y-84540471D01*
X59933745Y-84451501D01*
X59820499Y-84338255D01*
X59731529Y-84205101D01*
X59670242Y-84057142D01*
X59639000Y-83900075D01*
X59639000Y-83739925D01*
X59670242Y-83582858D01*
X59731529Y-83434899D01*
X59820499Y-83301745D01*
X59933745Y-83188499D01*
X60066899Y-83099529D01*
X60214858Y-83038242D01*
X60371925Y-83007000D01*
X60532075Y-83007000D01*
X60689142Y-83038242D01*
X60689142Y-83038242D01*
G37*
G36*
X114666669Y-82019467D02*
G01*
X114827088Y-82068130D01*
X114959752Y-82139040D01*
X114974924Y-82147150D01*
X115104505Y-82253495D01*
X115210850Y-82383076D01*
X115210851Y-82383078D01*
X115289870Y-82530912D01*
X115338533Y-82691331D01*
X115354963Y-82858154D01*
X115338533Y-83024977D01*
X115289870Y-83185396D01*
X115288211Y-83188499D01*
X115210850Y-83333232D01*
X115104505Y-83462813D01*
X114974924Y-83569158D01*
X114974922Y-83569159D01*
X114827088Y-83648178D01*
X114666669Y-83696841D01*
X114541650Y-83709154D01*
X114458042Y-83709154D01*
X114333023Y-83696841D01*
X114172604Y-83648178D01*
X114024770Y-83569159D01*
X114024768Y-83569158D01*
X113895187Y-83462813D01*
X113788842Y-83333232D01*
X113711481Y-83188499D01*
X113709822Y-83185396D01*
X113661159Y-83024977D01*
X113644729Y-82858154D01*
X113661159Y-82691331D01*
X113709822Y-82530912D01*
X113788841Y-82383078D01*
X113788842Y-82383076D01*
X113895187Y-82253495D01*
X114024768Y-82147150D01*
X114039940Y-82139040D01*
X114172604Y-82068130D01*
X114333023Y-82019467D01*
X114458042Y-82007154D01*
X114541650Y-82007154D01*
X114666669Y-82019467D01*
X114666669Y-82019467D01*
G37*
G36*
X113521142Y-77704242D02*
G01*
X113669101Y-77765529D01*
X113802255Y-77854499D01*
X113915501Y-77967745D01*
X114004471Y-78100899D01*
X114065758Y-78248858D01*
X114097000Y-78405925D01*
X114097000Y-78566075D01*
X114065758Y-78723142D01*
X114004471Y-78871101D01*
X113915501Y-79004255D01*
X113802255Y-79117501D01*
X113669101Y-79206471D01*
X113521142Y-79267758D01*
X113364075Y-79299000D01*
X113203925Y-79299000D01*
X113046858Y-79267758D01*
X112898899Y-79206471D01*
X112765745Y-79117501D01*
X112652499Y-79004255D01*
X112563529Y-78871101D01*
X112502242Y-78723142D01*
X112471000Y-78566075D01*
X112471000Y-78405925D01*
X112502242Y-78248858D01*
X112563529Y-78100899D01*
X112652499Y-77967745D01*
X112765745Y-77854499D01*
X112898899Y-77765529D01*
X113046858Y-77704242D01*
X113203925Y-77673000D01*
X113364075Y-77673000D01*
X113521142Y-77704242D01*
X113521142Y-77704242D01*
G37*
G36*
X71865142Y-77704242D02*
G01*
X72013101Y-77765529D01*
X72146255Y-77854499D01*
X72259501Y-77967745D01*
X72348471Y-78100899D01*
X72409758Y-78248858D01*
X72441000Y-78405925D01*
X72441000Y-78566075D01*
X72409758Y-78723142D01*
X72348471Y-78871101D01*
X72259501Y-79004255D01*
X72146255Y-79117501D01*
X72013101Y-79206471D01*
X71865142Y-79267758D01*
X71708075Y-79299000D01*
X71547925Y-79299000D01*
X71390858Y-79267758D01*
X71242899Y-79206471D01*
X71109745Y-79117501D01*
X70996499Y-79004255D01*
X70907529Y-78871101D01*
X70846242Y-78723142D01*
X70815000Y-78566075D01*
X70815000Y-78405925D01*
X70846242Y-78248858D01*
X70907529Y-78100899D01*
X70996499Y-77967745D01*
X71109745Y-77854499D01*
X71242899Y-77765529D01*
X71390858Y-77704242D01*
X71547925Y-77673000D01*
X71708075Y-77673000D01*
X71865142Y-77704242D01*
X71865142Y-77704242D01*
G37*
G36*
X120136228Y-76651703D02*
G01*
X120291100Y-76715853D01*
X120430481Y-76808985D01*
X120549015Y-76927519D01*
X120642147Y-77066900D01*
X120706297Y-77221772D01*
X120739000Y-77386184D01*
X120739000Y-77553816D01*
X120706297Y-77718228D01*
X120642147Y-77873100D01*
X120549015Y-78012481D01*
X120430481Y-78131015D01*
X120291100Y-78224147D01*
X120136228Y-78288297D01*
X119971816Y-78321000D01*
X119804184Y-78321000D01*
X119639772Y-78288297D01*
X119484900Y-78224147D01*
X119345519Y-78131015D01*
X119226985Y-78012481D01*
X119133853Y-77873100D01*
X119069703Y-77718228D01*
X119037000Y-77553816D01*
X119037000Y-77386184D01*
X119069703Y-77221772D01*
X119133853Y-77066900D01*
X119226985Y-76927519D01*
X119345519Y-76808985D01*
X119484900Y-76715853D01*
X119639772Y-76651703D01*
X119804184Y-76619000D01*
X119971816Y-76619000D01*
X120136228Y-76651703D01*
X120136228Y-76651703D01*
G37*
G36*
X64307676Y-76734231D02*
G01*
X64426150Y-76783305D01*
X64532774Y-76854549D01*
X64623451Y-76945226D01*
X64694695Y-77051850D01*
X64743769Y-77170324D01*
X64768786Y-77296096D01*
X64768786Y-77424332D01*
X64743769Y-77550104D01*
X64694695Y-77668578D01*
X64623451Y-77775202D01*
X64532774Y-77865879D01*
X64426150Y-77937123D01*
X64426149Y-77937124D01*
X64426148Y-77937124D01*
X64307676Y-77986197D01*
X64181905Y-78011214D01*
X64053667Y-78011214D01*
X63927896Y-77986197D01*
X63809424Y-77937124D01*
X63809423Y-77937124D01*
X63809422Y-77937123D01*
X63702798Y-77865879D01*
X63612121Y-77775202D01*
X63540877Y-77668578D01*
X63491803Y-77550104D01*
X63466786Y-77424332D01*
X63466786Y-77296096D01*
X63491803Y-77170324D01*
X63540877Y-77051850D01*
X63612121Y-76945226D01*
X63702798Y-76854549D01*
X63809422Y-76783305D01*
X63927896Y-76734231D01*
X64053667Y-76709214D01*
X64181905Y-76709214D01*
X64307676Y-76734231D01*
X64307676Y-76734231D01*
G37*
G36*
X66452653Y-75946000D02*
G01*
X65532000Y-76866653D01*
X64611347Y-75946000D01*
X65532000Y-75025347D01*
X66452653Y-75946000D01*
X66452653Y-75946000D01*
G37*
G36*
X126210905Y-70979789D02*
G01*
X126509350Y-71039153D01*
X126837122Y-71174921D01*
X127132109Y-71372025D01*
X127382975Y-71622891D01*
X127580079Y-71917878D01*
X127715847Y-72245650D01*
X127785060Y-72593611D01*
X127785060Y-72948389D01*
X127715847Y-73296350D01*
X127580079Y-73624122D01*
X127382975Y-73919109D01*
X127132109Y-74169975D01*
X126837122Y-74367079D01*
X126509350Y-74502847D01*
X126210905Y-74562211D01*
X126161390Y-74572060D01*
X125806610Y-74572060D01*
X125757095Y-74562211D01*
X125458650Y-74502847D01*
X125130878Y-74367079D01*
X124835891Y-74169975D01*
X124585025Y-73919109D01*
X124387921Y-73624122D01*
X124252153Y-73296350D01*
X124182940Y-72948389D01*
X124182940Y-72593611D01*
X124252153Y-72245650D01*
X124387921Y-71917878D01*
X124585025Y-71622891D01*
X124835891Y-71372025D01*
X125130878Y-71174921D01*
X125458650Y-71039153D01*
X125757095Y-70979789D01*
X125806610Y-70969940D01*
X126161390Y-70969940D01*
X126210905Y-70979789D01*
X126210905Y-70979789D01*
G37*
G36*
X126210905Y-66534789D02*
G01*
X126509350Y-66594153D01*
X126837122Y-66729921D01*
X127132109Y-66927025D01*
X127382975Y-67177891D01*
X127580079Y-67472878D01*
X127715847Y-67800650D01*
X127785060Y-68148611D01*
X127785060Y-68503389D01*
X127715847Y-68851350D01*
X127580079Y-69179122D01*
X127382975Y-69474109D01*
X127132109Y-69724975D01*
X126837122Y-69922079D01*
X126509350Y-70057847D01*
X126210905Y-70117211D01*
X126161390Y-70127060D01*
X125806610Y-70127060D01*
X125757095Y-70117211D01*
X125458650Y-70057847D01*
X125130878Y-69922079D01*
X124835891Y-69724975D01*
X124585025Y-69474109D01*
X124387921Y-69179122D01*
X124252153Y-68851350D01*
X124182940Y-68503389D01*
X124182940Y-68148611D01*
X124252153Y-67800650D01*
X124387921Y-67472878D01*
X124585025Y-67177891D01*
X124835891Y-66927025D01*
X125130878Y-66729921D01*
X125458650Y-66594153D01*
X125757095Y-66534789D01*
X125806610Y-66524940D01*
X126161390Y-66524940D01*
X126210905Y-66534789D01*
X126210905Y-66534789D01*
G37*
G36*
X64587000Y-68985000D02*
G01*
X60985000Y-68985000D01*
X60985000Y-65383000D01*
X64587000Y-65383000D01*
X64587000Y-68985000D01*
X64587000Y-68985000D01*
G37*
G36*
X126210905Y-62089789D02*
G01*
X126509350Y-62149153D01*
X126837122Y-62284921D01*
X127132109Y-62482025D01*
X127382975Y-62732891D01*
X127580079Y-63027878D01*
X127715847Y-63355650D01*
X127785060Y-63703611D01*
X127785060Y-64058389D01*
X127715847Y-64406350D01*
X127580079Y-64734122D01*
X127382975Y-65029109D01*
X127132109Y-65279975D01*
X126837122Y-65477079D01*
X126509350Y-65612847D01*
X126210905Y-65672211D01*
X126161390Y-65682060D01*
X125806610Y-65682060D01*
X125757095Y-65672211D01*
X125458650Y-65612847D01*
X125130878Y-65477079D01*
X124835891Y-65279975D01*
X124585025Y-65029109D01*
X124387921Y-64734122D01*
X124252153Y-64406350D01*
X124182940Y-64058389D01*
X124182940Y-63703611D01*
X124252153Y-63355650D01*
X124387921Y-63027878D01*
X124585025Y-62732891D01*
X124835891Y-62482025D01*
X125130878Y-62284921D01*
X125458650Y-62149153D01*
X125757095Y-62089789D01*
X125806610Y-62079940D01*
X126161390Y-62079940D01*
X126210905Y-62089789D01*
X126210905Y-62089789D01*
G37*
G36*
X61587000Y-64285000D02*
G01*
X57985000Y-64285000D01*
X57985000Y-60683000D01*
X61587000Y-60683000D01*
X61587000Y-64285000D01*
X61587000Y-64285000D01*
G37*
G36*
X67587000Y-64285000D02*
G01*
X63985000Y-64285000D01*
X63985000Y-60683000D01*
X67587000Y-60683000D01*
X67587000Y-64285000D01*
X67587000Y-64285000D01*
G37*
G36*
X71865142Y-57638242D02*
G01*
X72013101Y-57699529D01*
X72146255Y-57788499D01*
X72259501Y-57901745D01*
X72348471Y-58034899D01*
X72409758Y-58182858D01*
X72441000Y-58339925D01*
X72441000Y-58500075D01*
X72409758Y-58657142D01*
X72348471Y-58805101D01*
X72259501Y-58938255D01*
X72146255Y-59051501D01*
X72013101Y-59140471D01*
X71865142Y-59201758D01*
X71708075Y-59233000D01*
X71547925Y-59233000D01*
X71390858Y-59201758D01*
X71242899Y-59140471D01*
X71109745Y-59051501D01*
X70996499Y-58938255D01*
X70907529Y-58805101D01*
X70846242Y-58657142D01*
X70815000Y-58500075D01*
X70815000Y-58339925D01*
X70846242Y-58182858D01*
X70907529Y-58034899D01*
X70996499Y-57901745D01*
X71109745Y-57788499D01*
X71242899Y-57699529D01*
X71390858Y-57638242D01*
X71547925Y-57607000D01*
X71708075Y-57607000D01*
X71865142Y-57638242D01*
X71865142Y-57638242D01*
G37*
G36*
X113521142Y-57638242D02*
G01*
X113669101Y-57699529D01*
X113802255Y-57788499D01*
X113915501Y-57901745D01*
X114004471Y-58034899D01*
X114065758Y-58182858D01*
X114097000Y-58339925D01*
X114097000Y-58500075D01*
X114065758Y-58657142D01*
X114004471Y-58805101D01*
X113915501Y-58938255D01*
X113802255Y-59051501D01*
X113669101Y-59140471D01*
X113521142Y-59201758D01*
X113364075Y-59233000D01*
X113203925Y-59233000D01*
X113046858Y-59201758D01*
X112898899Y-59140471D01*
X112765745Y-59051501D01*
X112652499Y-58938255D01*
X112563529Y-58805101D01*
X112502242Y-58657142D01*
X112471000Y-58500075D01*
X112471000Y-58339925D01*
X112502242Y-58182858D01*
X112563529Y-58034899D01*
X112652499Y-57901745D01*
X112765745Y-57788499D01*
X112898899Y-57699529D01*
X113046858Y-57638242D01*
X113203925Y-57607000D01*
X113364075Y-57607000D01*
X113521142Y-57638242D01*
X113521142Y-57638242D01*
G37*
M02*
