G04 #@! TF.GenerationSoftware,KiCad,Pcbnew,(5.1.2-1)-1*
G04 #@! TF.CreationDate,2019-05-31T16:35:32-04:00*
G04 #@! TF.ProjectId,RubyLights,52756279-4c69-4676-9874-732e6b696361,.5*
G04 #@! TF.SameCoordinates,Original*
G04 #@! TF.FileFunction,Copper,L1,Top*
G04 #@! TF.FilePolarity,Positive*
%FSLAX46Y46*%
G04 Gerber Fmt 4.6, Leading zero omitted, Abs format (unit mm)*
G04 Created by KiCad (PCBNEW (5.1.2-1)-1) date 2019-05-31 16:35:32*
%MOMM*%
%LPD*%
G04 APERTURE LIST*
%ADD10R,3.500000X3.500000*%
%ADD11C,1.524000*%
%ADD12C,3.500120*%
%ADD13C,1.200000*%
%ADD14C,0.100000*%
%ADD15C,1.600000*%
%ADD16C,1.600000*%
%ADD17C,0.350000*%
%ADD18C,0.400000*%
%ADD19C,0.250000*%
G04 APERTURE END LIST*
D10*
X65786000Y-62484000D03*
X59786000Y-62484000D03*
X62786000Y-67184000D03*
D11*
X113030000Y-93980000D03*
X115570000Y-93980000D03*
X118110000Y-93980000D03*
X120650000Y-93980000D03*
X123190000Y-93980000D03*
X125730000Y-93980000D03*
X125730000Y-105410000D03*
X123190000Y-105410000D03*
X120650000Y-105410000D03*
X118110000Y-105410000D03*
X115570000Y-105410000D03*
X113030000Y-105410000D03*
D12*
X125984000Y-63881000D03*
X125984000Y-68326000D03*
X125984000Y-72771000D03*
D13*
X65532000Y-75946000D03*
D14*
G36*
X65532000Y-75097472D02*
G01*
X66380528Y-75946000D01*
X65532000Y-76794528D01*
X64683472Y-75946000D01*
X65532000Y-75097472D01*
X65532000Y-75097472D01*
G37*
D13*
X64117786Y-77360214D03*
D15*
X119888000Y-77470000D03*
X114499846Y-82858154D03*
D16*
X114499846Y-82858154D02*
X114499846Y-82858154D01*
D11*
X96012000Y-111760000D03*
X93472000Y-111760000D03*
X90932000Y-111760000D03*
X88392000Y-111760000D03*
X85852000Y-111760000D03*
X83312000Y-111760000D03*
X80772000Y-111760000D03*
X78232000Y-111760000D03*
X75692000Y-111760000D03*
X73152000Y-111760000D03*
X70612000Y-111760000D03*
X68072000Y-111760000D03*
X65532000Y-111760000D03*
X62992000Y-111760000D03*
X60452000Y-111760000D03*
X60452000Y-83820000D03*
X62992000Y-83820000D03*
X65532000Y-83820000D03*
X68072000Y-83820000D03*
X70612000Y-83820000D03*
X73152000Y-83820000D03*
X75692000Y-83820000D03*
X78232000Y-83820000D03*
X80772000Y-83820000D03*
X83312000Y-83820000D03*
X85852000Y-83820000D03*
X88392000Y-83820000D03*
X90932000Y-83820000D03*
X93472000Y-83820000D03*
X96012000Y-83820000D03*
X113284000Y-58420000D03*
X113284000Y-78486000D03*
X71628000Y-78486000D03*
X71628000Y-58420000D03*
D17*
X62786000Y-76028428D02*
X64117786Y-77360214D01*
D18*
X64989572Y-78232000D02*
X71882000Y-78232000D01*
X64117786Y-77360214D02*
X64989572Y-78232000D01*
X59786000Y-65142000D02*
X59786000Y-62992000D01*
X62786000Y-67692000D02*
X62336000Y-67692000D01*
X62336000Y-67692000D02*
X59786000Y-65142000D01*
X62786000Y-76028428D02*
X62786000Y-67692000D01*
D17*
X65786000Y-75692000D02*
X65532000Y-75946000D01*
D18*
X65786000Y-63500000D02*
X65786000Y-75692000D01*
D17*
X116840000Y-79248000D02*
X116961001Y-79126999D01*
D18*
X116961001Y-79126999D02*
X116961001Y-89032999D01*
X118110000Y-90181998D02*
X118110000Y-93980000D01*
X116961001Y-89032999D02*
X118110000Y-90181998D01*
X73152000Y-68326000D02*
X88900000Y-68326000D01*
X88900000Y-68326000D02*
X100330000Y-56896000D01*
X116961001Y-57028999D02*
X117094000Y-56896000D01*
X116961001Y-79126999D02*
X116961001Y-57028999D01*
X100330000Y-56896000D02*
X117094000Y-56896000D01*
X65532000Y-75946000D02*
X71628000Y-69850000D01*
X118999000Y-56896000D02*
X125984000Y-63881000D01*
X117094000Y-56896000D02*
X118999000Y-56896000D01*
X71882000Y-59751630D02*
X72009000Y-59878630D01*
X72009000Y-59878630D02*
X72009000Y-69469000D01*
X71882000Y-58674000D02*
X71882000Y-59751630D01*
X72009000Y-69469000D02*
X73152000Y-68326000D01*
X71628000Y-69850000D02*
X72009000Y-69469000D01*
D19*
X119888000Y-77470000D02*
X120687999Y-76670001D01*
X114300000Y-92710000D02*
X115570000Y-93980000D01*
X114300000Y-83058000D02*
X114300000Y-92710000D01*
X75692000Y-111760000D02*
X75692000Y-107696000D01*
X75692000Y-107696000D02*
X114046000Y-107696000D01*
X114046000Y-106934000D02*
X115570000Y-105410000D01*
X114046000Y-107696000D02*
X114046000Y-106934000D01*
X119888000Y-74422000D02*
X119888000Y-77470000D01*
X125984000Y-68326000D02*
X119888000Y-74422000D01*
D18*
X60452000Y-88646000D02*
X103378000Y-88646000D01*
X60452000Y-83820000D02*
X60452000Y-88646000D01*
D19*
X103378000Y-88646000D02*
X103632000Y-88900000D01*
D18*
X103632000Y-62738000D02*
X103632000Y-88900000D01*
X103632000Y-88900000D02*
X103632000Y-98806000D01*
X103632000Y-98806000D02*
X118110000Y-98806000D01*
X118110000Y-98806000D02*
X118110000Y-105410000D01*
X103632000Y-62738000D02*
X108966000Y-62738000D01*
X108966000Y-62738000D02*
X113030000Y-58674000D01*
M02*
