G04 #@! TF.GenerationSoftware,KiCad,Pcbnew,(5.1.2-1)-1*
G04 #@! TF.CreationDate,2019-05-31T16:35:32-04:00*
G04 #@! TF.ProjectId,RubyLights,52756279-4c69-4676-9874-732e6b696361,.5*
G04 #@! TF.SameCoordinates,Original*
G04 #@! TF.FileFunction,Legend,Top*
G04 #@! TF.FilePolarity,Positive*
%FSLAX46Y46*%
G04 Gerber Fmt 4.6, Leading zero omitted, Abs format (unit mm)*
G04 Created by KiCad (PCBNEW (5.1.2-1)-1) date 2019-05-31 16:35:32*
%MOMM*%
%LPD*%
G04 APERTURE LIST*
%ADD10C,0.150000*%
%ADD11C,0.300000*%
%ADD12C,0.250000*%
%ADD13C,0.010000*%
%ADD14C,0.120000*%
G04 APERTURE END LIST*
D10*
X110998095Y-75700000D02*
X110902857Y-75652380D01*
X110760000Y-75652380D01*
X110617142Y-75700000D01*
X110521904Y-75795238D01*
X110474285Y-75890476D01*
X110426666Y-76080952D01*
X110426666Y-76223809D01*
X110474285Y-76414285D01*
X110521904Y-76509523D01*
X110617142Y-76604761D01*
X110760000Y-76652380D01*
X110855238Y-76652380D01*
X110998095Y-76604761D01*
X111045714Y-76557142D01*
X111045714Y-76223809D01*
X110855238Y-76223809D01*
X111474285Y-76652380D02*
X111474285Y-75652380D01*
X112045714Y-76652380D01*
X112045714Y-75652380D01*
X112521904Y-76652380D02*
X112521904Y-75652380D01*
X112760000Y-75652380D01*
X112902857Y-75700000D01*
X112998095Y-75795238D01*
X113045714Y-75890476D01*
X113093333Y-76080952D01*
X113093333Y-76223809D01*
X113045714Y-76414285D01*
X112998095Y-76509523D01*
X112902857Y-76604761D01*
X112760000Y-76652380D01*
X112521904Y-76652380D01*
D11*
X81837142Y-75862571D02*
X81837142Y-74362571D01*
X82194285Y-74362571D01*
X82408571Y-74434000D01*
X82551428Y-74576857D01*
X82622857Y-74719714D01*
X82694285Y-75005428D01*
X82694285Y-75219714D01*
X82622857Y-75505428D01*
X82551428Y-75648285D01*
X82408571Y-75791142D01*
X82194285Y-75862571D01*
X81837142Y-75862571D01*
X84194285Y-75719714D02*
X84122857Y-75791142D01*
X83908571Y-75862571D01*
X83765714Y-75862571D01*
X83551428Y-75791142D01*
X83408571Y-75648285D01*
X83337142Y-75505428D01*
X83265714Y-75219714D01*
X83265714Y-75005428D01*
X83337142Y-74719714D01*
X83408571Y-74576857D01*
X83551428Y-74434000D01*
X83765714Y-74362571D01*
X83908571Y-74362571D01*
X84122857Y-74434000D01*
X84194285Y-74505428D01*
X85908571Y-75791142D02*
X86122857Y-75862571D01*
X86480000Y-75862571D01*
X86622857Y-75791142D01*
X86694285Y-75719714D01*
X86765714Y-75576857D01*
X86765714Y-75434000D01*
X86694285Y-75291142D01*
X86622857Y-75219714D01*
X86480000Y-75148285D01*
X86194285Y-75076857D01*
X86051428Y-75005428D01*
X85980000Y-74934000D01*
X85908571Y-74791142D01*
X85908571Y-74648285D01*
X85980000Y-74505428D01*
X86051428Y-74434000D01*
X86194285Y-74362571D01*
X86551428Y-74362571D01*
X86765714Y-74434000D01*
X87194285Y-74862571D02*
X87765714Y-74862571D01*
X87408571Y-74362571D02*
X87408571Y-75648285D01*
X87480000Y-75791142D01*
X87622857Y-75862571D01*
X87765714Y-75862571D01*
X88837142Y-75791142D02*
X88694285Y-75862571D01*
X88408571Y-75862571D01*
X88265714Y-75791142D01*
X88194285Y-75648285D01*
X88194285Y-75076857D01*
X88265714Y-74934000D01*
X88408571Y-74862571D01*
X88694285Y-74862571D01*
X88837142Y-74934000D01*
X88908571Y-75076857D01*
X88908571Y-75219714D01*
X88194285Y-75362571D01*
X89551428Y-74862571D02*
X89551428Y-76362571D01*
X89551428Y-74934000D02*
X89694285Y-74862571D01*
X89980000Y-74862571D01*
X90122857Y-74934000D01*
X90194285Y-75005428D01*
X90265714Y-75148285D01*
X90265714Y-75576857D01*
X90194285Y-75719714D01*
X90122857Y-75791142D01*
X89980000Y-75862571D01*
X89694285Y-75862571D01*
X89551428Y-75791142D01*
X92051428Y-75862571D02*
X92051428Y-74362571D01*
X92408571Y-74362571D01*
X92622857Y-74434000D01*
X92765714Y-74576857D01*
X92837142Y-74719714D01*
X92908571Y-75005428D01*
X92908571Y-75219714D01*
X92837142Y-75505428D01*
X92765714Y-75648285D01*
X92622857Y-75791142D01*
X92408571Y-75862571D01*
X92051428Y-75862571D01*
X93765714Y-75862571D02*
X93622857Y-75791142D01*
X93551428Y-75719714D01*
X93480000Y-75576857D01*
X93480000Y-75148285D01*
X93551428Y-75005428D01*
X93622857Y-74934000D01*
X93765714Y-74862571D01*
X93980000Y-74862571D01*
X94122857Y-74934000D01*
X94194285Y-75005428D01*
X94265714Y-75148285D01*
X94265714Y-75576857D01*
X94194285Y-75719714D01*
X94122857Y-75791142D01*
X93980000Y-75862571D01*
X93765714Y-75862571D01*
X94765714Y-74862571D02*
X95051428Y-75862571D01*
X95337142Y-75148285D01*
X95622857Y-75862571D01*
X95908571Y-74862571D01*
X96480000Y-74862571D02*
X96480000Y-75862571D01*
X96480000Y-75005428D02*
X96551428Y-74934000D01*
X96694285Y-74862571D01*
X96908571Y-74862571D01*
X97051428Y-74934000D01*
X97122857Y-75076857D01*
X97122857Y-75862571D01*
X98980000Y-75862571D02*
X98980000Y-74362571D01*
X99480000Y-75434000D01*
X99980000Y-74362571D01*
X99980000Y-75862571D01*
X100908571Y-75862571D02*
X100765714Y-75791142D01*
X100694285Y-75719714D01*
X100622857Y-75576857D01*
X100622857Y-75148285D01*
X100694285Y-75005428D01*
X100765714Y-74934000D01*
X100908571Y-74862571D01*
X101122857Y-74862571D01*
X101265714Y-74934000D01*
X101337142Y-75005428D01*
X101408571Y-75148285D01*
X101408571Y-75576857D01*
X101337142Y-75719714D01*
X101265714Y-75791142D01*
X101122857Y-75862571D01*
X100908571Y-75862571D01*
X102694285Y-75862571D02*
X102694285Y-74362571D01*
X102694285Y-75791142D02*
X102551428Y-75862571D01*
X102265714Y-75862571D01*
X102122857Y-75791142D01*
X102051428Y-75719714D01*
X101980000Y-75576857D01*
X101980000Y-75148285D01*
X102051428Y-75005428D01*
X102122857Y-74934000D01*
X102265714Y-74862571D01*
X102551428Y-74862571D01*
X102694285Y-74934000D01*
X104051428Y-74862571D02*
X104051428Y-75862571D01*
X103408571Y-74862571D02*
X103408571Y-75648285D01*
X103480000Y-75791142D01*
X103622857Y-75862571D01*
X103837142Y-75862571D01*
X103980000Y-75791142D01*
X104051428Y-75719714D01*
X104980000Y-75862571D02*
X104837142Y-75791142D01*
X104765714Y-75648285D01*
X104765714Y-74362571D01*
X106122857Y-75791142D02*
X105980000Y-75862571D01*
X105694285Y-75862571D01*
X105551428Y-75791142D01*
X105480000Y-75648285D01*
X105480000Y-75076857D01*
X105551428Y-74934000D01*
X105694285Y-74862571D01*
X105980000Y-74862571D01*
X106122857Y-74934000D01*
X106194285Y-75076857D01*
X106194285Y-75219714D01*
X105480000Y-75362571D01*
D10*
X74882761Y-93337571D02*
X75216095Y-93337571D01*
X75358952Y-93861380D02*
X74882761Y-93861380D01*
X74882761Y-92861380D01*
X75358952Y-92861380D01*
X75739904Y-93813761D02*
X75882761Y-93861380D01*
X76120857Y-93861380D01*
X76216095Y-93813761D01*
X76263714Y-93766142D01*
X76311333Y-93670904D01*
X76311333Y-93575666D01*
X76263714Y-93480428D01*
X76216095Y-93432809D01*
X76120857Y-93385190D01*
X75930380Y-93337571D01*
X75835142Y-93289952D01*
X75787523Y-93242333D01*
X75739904Y-93147095D01*
X75739904Y-93051857D01*
X75787523Y-92956619D01*
X75835142Y-92909000D01*
X75930380Y-92861380D01*
X76168476Y-92861380D01*
X76311333Y-92909000D01*
X76739904Y-93861380D02*
X76739904Y-92861380D01*
X77120857Y-92861380D01*
X77216095Y-92909000D01*
X77263714Y-92956619D01*
X77311333Y-93051857D01*
X77311333Y-93194714D01*
X77263714Y-93289952D01*
X77216095Y-93337571D01*
X77120857Y-93385190D01*
X76739904Y-93385190D01*
X77692285Y-92956619D02*
X77739904Y-92909000D01*
X77835142Y-92861380D01*
X78073238Y-92861380D01*
X78168476Y-92909000D01*
X78216095Y-92956619D01*
X78263714Y-93051857D01*
X78263714Y-93147095D01*
X78216095Y-93289952D01*
X77644666Y-93861380D01*
X78263714Y-93861380D01*
X78835142Y-93289952D02*
X78739904Y-93242333D01*
X78692285Y-93194714D01*
X78644666Y-93099476D01*
X78644666Y-93051857D01*
X78692285Y-92956619D01*
X78739904Y-92909000D01*
X78835142Y-92861380D01*
X79025619Y-92861380D01*
X79120857Y-92909000D01*
X79168476Y-92956619D01*
X79216095Y-93051857D01*
X79216095Y-93099476D01*
X79168476Y-93194714D01*
X79120857Y-93242333D01*
X79025619Y-93289952D01*
X78835142Y-93289952D01*
X78739904Y-93337571D01*
X78692285Y-93385190D01*
X78644666Y-93480428D01*
X78644666Y-93670904D01*
X78692285Y-93766142D01*
X78739904Y-93813761D01*
X78835142Y-93861380D01*
X79025619Y-93861380D01*
X79120857Y-93813761D01*
X79168476Y-93766142D01*
X79216095Y-93670904D01*
X79216095Y-93480428D01*
X79168476Y-93385190D01*
X79120857Y-93337571D01*
X79025619Y-93289952D01*
X80073238Y-92861380D02*
X79882761Y-92861380D01*
X79787523Y-92909000D01*
X79739904Y-92956619D01*
X79644666Y-93099476D01*
X79597047Y-93289952D01*
X79597047Y-93670904D01*
X79644666Y-93766142D01*
X79692285Y-93813761D01*
X79787523Y-93861380D01*
X79978000Y-93861380D01*
X80073238Y-93813761D01*
X80120857Y-93766142D01*
X80168476Y-93670904D01*
X80168476Y-93432809D01*
X80120857Y-93337571D01*
X80073238Y-93289952D01*
X79978000Y-93242333D01*
X79787523Y-93242333D01*
X79692285Y-93289952D01*
X79644666Y-93337571D01*
X79597047Y-93432809D01*
X81025619Y-92861380D02*
X80835142Y-92861380D01*
X80739904Y-92909000D01*
X80692285Y-92956619D01*
X80597047Y-93099476D01*
X80549428Y-93289952D01*
X80549428Y-93670904D01*
X80597047Y-93766142D01*
X80644666Y-93813761D01*
X80739904Y-93861380D01*
X80930380Y-93861380D01*
X81025619Y-93813761D01*
X81073238Y-93766142D01*
X81120857Y-93670904D01*
X81120857Y-93432809D01*
X81073238Y-93337571D01*
X81025619Y-93289952D01*
X80930380Y-93242333D01*
X80739904Y-93242333D01*
X80644666Y-93289952D01*
X80597047Y-93337571D01*
X80549428Y-93432809D01*
X74763714Y-95511380D02*
X74763714Y-94511380D01*
X75335142Y-95511380D01*
X75335142Y-94511380D01*
X75954190Y-95511380D02*
X75858952Y-95463761D01*
X75811333Y-95416142D01*
X75763714Y-95320904D01*
X75763714Y-95035190D01*
X75811333Y-94939952D01*
X75858952Y-94892333D01*
X75954190Y-94844714D01*
X76097047Y-94844714D01*
X76192285Y-94892333D01*
X76239904Y-94939952D01*
X76287523Y-95035190D01*
X76287523Y-95320904D01*
X76239904Y-95416142D01*
X76192285Y-95463761D01*
X76097047Y-95511380D01*
X75954190Y-95511380D01*
X77144666Y-95511380D02*
X77144666Y-94511380D01*
X77144666Y-95463761D02*
X77049428Y-95511380D01*
X76858952Y-95511380D01*
X76763714Y-95463761D01*
X76716095Y-95416142D01*
X76668476Y-95320904D01*
X76668476Y-95035190D01*
X76716095Y-94939952D01*
X76763714Y-94892333D01*
X76858952Y-94844714D01*
X77049428Y-94844714D01*
X77144666Y-94892333D01*
X78001809Y-95463761D02*
X77906571Y-95511380D01*
X77716095Y-95511380D01*
X77620857Y-95463761D01*
X77573238Y-95368523D01*
X77573238Y-94987571D01*
X77620857Y-94892333D01*
X77716095Y-94844714D01*
X77906571Y-94844714D01*
X78001809Y-94892333D01*
X78049428Y-94987571D01*
X78049428Y-95082809D01*
X77573238Y-95178047D01*
X78478000Y-95511380D02*
X78478000Y-94511380D01*
X78811333Y-95225666D01*
X79144666Y-94511380D01*
X79144666Y-95511380D01*
X80192285Y-95416142D02*
X80144666Y-95463761D01*
X80001809Y-95511380D01*
X79906571Y-95511380D01*
X79763714Y-95463761D01*
X79668476Y-95368523D01*
X79620857Y-95273285D01*
X79573238Y-95082809D01*
X79573238Y-94939952D01*
X79620857Y-94749476D01*
X79668476Y-94654238D01*
X79763714Y-94559000D01*
X79906571Y-94511380D01*
X80001809Y-94511380D01*
X80144666Y-94559000D01*
X80192285Y-94606619D01*
X80620857Y-94511380D02*
X80620857Y-95320904D01*
X80668476Y-95416142D01*
X80716095Y-95463761D01*
X80811333Y-95511380D01*
X81001809Y-95511380D01*
X81097047Y-95463761D01*
X81144666Y-95416142D01*
X81192285Y-95320904D01*
X81192285Y-94511380D01*
D11*
X57300857Y-68988952D02*
X56110380Y-68988952D01*
X55991333Y-70179428D01*
X56110380Y-70060380D01*
X56348476Y-69941333D01*
X56943714Y-69941333D01*
X57181809Y-70060380D01*
X57300857Y-70179428D01*
X57419904Y-70417523D01*
X57419904Y-71012761D01*
X57300857Y-71250857D01*
X57181809Y-71369904D01*
X56943714Y-71488952D01*
X56348476Y-71488952D01*
X56110380Y-71369904D01*
X55991333Y-71250857D01*
X58253238Y-69822285D02*
X58848476Y-71488952D01*
X59443714Y-69822285D01*
D12*
X118932261Y-71644000D02*
X118741785Y-71548761D01*
X118456071Y-71548761D01*
X118170357Y-71644000D01*
X117979880Y-71834476D01*
X117884642Y-72024952D01*
X117789404Y-72405904D01*
X117789404Y-72691619D01*
X117884642Y-73072571D01*
X117979880Y-73263047D01*
X118170357Y-73453523D01*
X118456071Y-73548761D01*
X118646547Y-73548761D01*
X118932261Y-73453523D01*
X119027500Y-73358285D01*
X119027500Y-72691619D01*
X118646547Y-72691619D01*
X119884642Y-72215428D02*
X119884642Y-73548761D01*
X119884642Y-72405904D02*
X119979880Y-72310666D01*
X120170357Y-72215428D01*
X120456071Y-72215428D01*
X120646547Y-72310666D01*
X120741785Y-72501142D01*
X120741785Y-73548761D01*
X122551309Y-73548761D02*
X122551309Y-71548761D01*
X122551309Y-73453523D02*
X122360833Y-73548761D01*
X121979880Y-73548761D01*
X121789404Y-73453523D01*
X121694166Y-73358285D01*
X121598928Y-73167809D01*
X121598928Y-72596380D01*
X121694166Y-72405904D01*
X121789404Y-72310666D01*
X121979880Y-72215428D01*
X122360833Y-72215428D01*
X122551309Y-72310666D01*
X116995785Y-69230761D02*
X116995785Y-67230761D01*
X117471976Y-67230761D01*
X117757690Y-67326000D01*
X117948166Y-67516476D01*
X118043404Y-67706952D01*
X118138642Y-68087904D01*
X118138642Y-68373619D01*
X118043404Y-68754571D01*
X117948166Y-68945047D01*
X117757690Y-69135523D01*
X117471976Y-69230761D01*
X116995785Y-69230761D01*
X119852928Y-69230761D02*
X119852928Y-68183142D01*
X119757690Y-67992666D01*
X119567214Y-67897428D01*
X119186261Y-67897428D01*
X118995785Y-67992666D01*
X119852928Y-69135523D02*
X119662452Y-69230761D01*
X119186261Y-69230761D01*
X118995785Y-69135523D01*
X118900547Y-68945047D01*
X118900547Y-68754571D01*
X118995785Y-68564095D01*
X119186261Y-68468857D01*
X119662452Y-68468857D01*
X119852928Y-68373619D01*
X120519595Y-67897428D02*
X121281500Y-67897428D01*
X120805309Y-67230761D02*
X120805309Y-68945047D01*
X120900547Y-69135523D01*
X121091023Y-69230761D01*
X121281500Y-69230761D01*
X122805309Y-69230761D02*
X122805309Y-68183142D01*
X122710071Y-67992666D01*
X122519595Y-67897428D01*
X122138642Y-67897428D01*
X121948166Y-67992666D01*
X122805309Y-69135523D02*
X122614833Y-69230761D01*
X122138642Y-69230761D01*
X121948166Y-69135523D01*
X121852928Y-68945047D01*
X121852928Y-68754571D01*
X121948166Y-68564095D01*
X122138642Y-68468857D01*
X122614833Y-68468857D01*
X122805309Y-68373619D01*
X120773500Y-62658761D02*
X119821119Y-62658761D01*
X119725880Y-63611142D01*
X119821119Y-63515904D01*
X120011595Y-63420666D01*
X120487785Y-63420666D01*
X120678261Y-63515904D01*
X120773500Y-63611142D01*
X120868738Y-63801619D01*
X120868738Y-64277809D01*
X120773500Y-64468285D01*
X120678261Y-64563523D01*
X120487785Y-64658761D01*
X120011595Y-64658761D01*
X119821119Y-64563523D01*
X119725880Y-64468285D01*
X121535404Y-63325428D02*
X122011595Y-64658761D01*
X122487785Y-63325428D01*
D10*
X109823428Y-61174380D02*
X110442476Y-61174380D01*
X110109142Y-61555333D01*
X110252000Y-61555333D01*
X110347238Y-61602952D01*
X110394857Y-61650571D01*
X110442476Y-61745809D01*
X110442476Y-61983904D01*
X110394857Y-62079142D01*
X110347238Y-62126761D01*
X110252000Y-62174380D01*
X109966285Y-62174380D01*
X109871047Y-62126761D01*
X109823428Y-62079142D01*
X110871047Y-62079142D02*
X110918666Y-62126761D01*
X110871047Y-62174380D01*
X110823428Y-62126761D01*
X110871047Y-62079142D01*
X110871047Y-62174380D01*
X111252000Y-61174380D02*
X111871047Y-61174380D01*
X111537714Y-61555333D01*
X111680571Y-61555333D01*
X111775809Y-61602952D01*
X111823428Y-61650571D01*
X111871047Y-61745809D01*
X111871047Y-61983904D01*
X111823428Y-62079142D01*
X111775809Y-62126761D01*
X111680571Y-62174380D01*
X111394857Y-62174380D01*
X111299619Y-62126761D01*
X111252000Y-62079142D01*
X112204380Y-61507714D02*
X112442476Y-62174380D01*
X112680571Y-61507714D01*
X74025142Y-60920380D02*
X73548952Y-60920380D01*
X73501333Y-61396571D01*
X73548952Y-61348952D01*
X73644190Y-61301333D01*
X73882285Y-61301333D01*
X73977523Y-61348952D01*
X74025142Y-61396571D01*
X74072761Y-61491809D01*
X74072761Y-61729904D01*
X74025142Y-61825142D01*
X73977523Y-61872761D01*
X73882285Y-61920380D01*
X73644190Y-61920380D01*
X73548952Y-61872761D01*
X73501333Y-61825142D01*
X74406095Y-61253714D02*
X74644190Y-61920380D01*
X74882285Y-61253714D01*
D13*
G36*
X117577363Y-86434699D02*
G01*
X117599155Y-86441976D01*
X117617586Y-86458420D01*
X117632935Y-86487197D01*
X117645481Y-86531474D01*
X117655505Y-86594418D01*
X117663283Y-86679194D01*
X117669096Y-86788971D01*
X117673223Y-86926914D01*
X117675943Y-87096191D01*
X117677535Y-87299968D01*
X117678277Y-87541411D01*
X117678450Y-87823687D01*
X117678332Y-88149964D01*
X117678203Y-88523407D01*
X117678200Y-88582500D01*
X117678122Y-88957884D01*
X117677849Y-89285711D01*
X117677318Y-89569221D01*
X117676469Y-89811658D01*
X117675240Y-90016261D01*
X117673569Y-90186274D01*
X117671395Y-90324939D01*
X117668657Y-90435496D01*
X117665292Y-90521188D01*
X117661241Y-90585257D01*
X117656441Y-90630944D01*
X117650831Y-90661492D01*
X117644349Y-90680141D01*
X117638285Y-90688885D01*
X117627209Y-90695992D01*
X117607001Y-90702213D01*
X117574490Y-90707606D01*
X117526503Y-90712229D01*
X117459867Y-90716140D01*
X117371410Y-90719396D01*
X117257960Y-90722056D01*
X117116344Y-90724175D01*
X116943390Y-90725813D01*
X116735924Y-90727028D01*
X116490776Y-90727876D01*
X116204771Y-90728415D01*
X115874739Y-90728703D01*
X115497505Y-90728798D01*
X115442999Y-90728800D01*
X115059176Y-90728726D01*
X114722980Y-90728467D01*
X114431239Y-90727965D01*
X114180781Y-90727162D01*
X113968432Y-90726000D01*
X113791021Y-90724422D01*
X113645375Y-90722371D01*
X113528322Y-90719787D01*
X113436688Y-90716615D01*
X113367303Y-90712795D01*
X113316992Y-90708271D01*
X113282584Y-90702985D01*
X113260907Y-90696879D01*
X113248787Y-90689895D01*
X113247714Y-90688885D01*
X113240465Y-90677627D01*
X113234138Y-90657152D01*
X113228672Y-90624219D01*
X113224006Y-90575586D01*
X113220078Y-90508011D01*
X113216826Y-90418252D01*
X113214190Y-90303068D01*
X113212107Y-90159217D01*
X113210517Y-89983456D01*
X113209358Y-89772544D01*
X113208568Y-89523239D01*
X113208086Y-89232300D01*
X113207851Y-88896484D01*
X113207800Y-88582500D01*
X113207877Y-88207115D01*
X113208150Y-87879288D01*
X113208681Y-87595778D01*
X113209530Y-87353341D01*
X113210759Y-87148738D01*
X113211948Y-87027729D01*
X113487199Y-87027729D01*
X113497637Y-87052638D01*
X113523944Y-87106844D01*
X113537999Y-87134699D01*
X113548932Y-87157774D01*
X113558174Y-87183420D01*
X113565867Y-87215859D01*
X113572152Y-87259308D01*
X113577172Y-87317988D01*
X113581068Y-87396117D01*
X113583983Y-87497917D01*
X113586057Y-87627605D01*
X113587434Y-87789401D01*
X113588254Y-87987525D01*
X113588659Y-88226197D01*
X113588791Y-88509635D01*
X113588799Y-88646290D01*
X113588439Y-88909726D01*
X113587402Y-89158037D01*
X113585756Y-89386556D01*
X113583568Y-89590618D01*
X113580903Y-89765558D01*
X113577830Y-89906711D01*
X113574415Y-90009410D01*
X113570724Y-90068991D01*
X113568224Y-90082370D01*
X113543800Y-90122136D01*
X113517968Y-90176350D01*
X113488289Y-90246200D01*
X114014794Y-90245811D01*
X114169967Y-90244849D01*
X114304350Y-90242381D01*
X114410999Y-90238674D01*
X114482970Y-90233992D01*
X114513319Y-90228600D01*
X114513094Y-90226761D01*
X114483145Y-90192826D01*
X114447332Y-90134626D01*
X114443244Y-90126811D01*
X114428318Y-90089521D01*
X114417307Y-90039267D01*
X114409669Y-89968556D01*
X114404866Y-89869898D01*
X114402356Y-89735800D01*
X114401601Y-89558772D01*
X114401600Y-89548961D01*
X114402833Y-89371347D01*
X114406396Y-89228876D01*
X114412078Y-89125727D01*
X114419672Y-89066078D01*
X114426414Y-89052400D01*
X114455914Y-89071770D01*
X114493641Y-89118744D01*
X114495915Y-89122250D01*
X114536493Y-89179268D01*
X114570699Y-89217500D01*
X114601147Y-89254632D01*
X114641083Y-89316966D01*
X114654671Y-89340833D01*
X114696820Y-89407930D01*
X114759527Y-89496720D01*
X114830592Y-89590064D01*
X114844542Y-89607533D01*
X114952661Y-89750344D01*
X115043138Y-89886967D01*
X115111389Y-90009349D01*
X115152831Y-90109440D01*
X115163600Y-90167923D01*
X115163600Y-90246200D01*
X116290055Y-90246200D01*
X116277929Y-90232488D01*
X116433600Y-90232488D01*
X116457699Y-90236757D01*
X116524796Y-90240485D01*
X116627089Y-90243448D01*
X116756778Y-90245426D01*
X116906061Y-90246196D01*
X116916200Y-90246200D01*
X117092967Y-90245408D01*
X117224101Y-90242806D01*
X117314747Y-90238056D01*
X117370050Y-90230818D01*
X117395156Y-90220752D01*
X117397992Y-90214450D01*
X117383038Y-90170554D01*
X117359892Y-90133395D01*
X117350698Y-90114692D01*
X117343102Y-90082195D01*
X117336959Y-90031498D01*
X117332127Y-89958196D01*
X117328464Y-89857883D01*
X117325826Y-89726154D01*
X117324070Y-89558604D01*
X117323053Y-89350827D01*
X117322633Y-89098418D01*
X117322600Y-88984045D01*
X117322600Y-87884000D01*
X116457695Y-87884000D01*
X116496447Y-87958938D01*
X116506478Y-87984815D01*
X116514667Y-88023092D01*
X116521192Y-88078607D01*
X116526226Y-88156197D01*
X116529947Y-88260700D01*
X116532529Y-88396954D01*
X116534148Y-88569797D01*
X116534979Y-88784067D01*
X116535200Y-89026750D01*
X116535086Y-89278440D01*
X116534585Y-89484511D01*
X116533455Y-89650147D01*
X116531455Y-89780527D01*
X116528345Y-89880835D01*
X116523883Y-89956251D01*
X116517829Y-90011957D01*
X116509941Y-90053135D01*
X116499979Y-90084967D01*
X116487701Y-90112635D01*
X116484400Y-90119200D01*
X116453490Y-90182636D01*
X116435480Y-90225110D01*
X116433600Y-90232488D01*
X116277929Y-90232488D01*
X116228477Y-90176570D01*
X116184555Y-90127266D01*
X116156373Y-90096290D01*
X116154200Y-90094020D01*
X116096445Y-90030905D01*
X116024963Y-89946689D01*
X115949897Y-89854065D01*
X115881391Y-89765725D01*
X115829588Y-89694361D01*
X115809376Y-89662547D01*
X115769155Y-89598584D01*
X115705662Y-89507299D01*
X115627804Y-89400680D01*
X115544487Y-89290715D01*
X115464617Y-89189390D01*
X115402273Y-89114607D01*
X115341829Y-89037548D01*
X115285159Y-88953943D01*
X115280978Y-88947050D01*
X115153637Y-88748936D01*
X115057994Y-88618356D01*
X114988036Y-88527212D01*
X115069468Y-88439760D01*
X115139660Y-88360661D01*
X115229715Y-88253892D01*
X115329057Y-88132451D01*
X115427107Y-88009339D01*
X115513289Y-87897555D01*
X115542151Y-87858815D01*
X115846941Y-87478892D01*
X116086279Y-87221787D01*
X116285059Y-87020400D01*
X115739747Y-87020400D01*
X115554550Y-87020523D01*
X115413998Y-87021861D01*
X115311937Y-87025867D01*
X115242212Y-87033993D01*
X115198669Y-87047691D01*
X115175153Y-87068416D01*
X115165511Y-87097618D01*
X115163586Y-87136751D01*
X115163600Y-87156390D01*
X115148012Y-87209842D01*
X115108941Y-87277121D01*
X115091299Y-87300362D01*
X115032652Y-87377668D01*
X114969890Y-87468586D01*
X114947802Y-87503000D01*
X114904552Y-87569764D01*
X114870912Y-87616931D01*
X114859239Y-87630000D01*
X114829445Y-87659339D01*
X114780245Y-87715018D01*
X114720522Y-87786108D01*
X114659162Y-87861681D01*
X114605047Y-87930808D01*
X114567063Y-87982561D01*
X114554000Y-88005483D01*
X114537182Y-88034974D01*
X114495146Y-88082717D01*
X114477799Y-88099900D01*
X114401599Y-88172904D01*
X114401600Y-87753088D01*
X114403193Y-87570302D01*
X114408895Y-87427476D01*
X114420093Y-87313840D01*
X114438172Y-87218629D01*
X114464518Y-87131075D01*
X114490164Y-87064850D01*
X114493394Y-87049771D01*
X114484649Y-87038538D01*
X114457705Y-87030591D01*
X114406338Y-87025367D01*
X114324324Y-87022303D01*
X114205439Y-87020838D01*
X114043460Y-87020410D01*
X113997917Y-87020400D01*
X113843083Y-87020746D01*
X113707122Y-87021712D01*
X113597617Y-87023190D01*
X113522151Y-87025071D01*
X113488308Y-87027245D01*
X113487199Y-87027729D01*
X113211948Y-87027729D01*
X113212430Y-86978725D01*
X113214604Y-86840060D01*
X113217342Y-86729503D01*
X113220707Y-86643811D01*
X113224758Y-86579742D01*
X113229558Y-86534055D01*
X113235168Y-86503507D01*
X113241650Y-86484858D01*
X113247714Y-86476114D01*
X113260178Y-86467934D01*
X113282437Y-86460938D01*
X113318191Y-86455034D01*
X113371141Y-86450133D01*
X113444988Y-86446144D01*
X113543431Y-86442978D01*
X113670173Y-86440544D01*
X113828913Y-86438752D01*
X114023353Y-86437511D01*
X114257193Y-86436733D01*
X114534135Y-86436326D01*
X114857878Y-86436200D01*
X116484400Y-86436200D01*
X116484400Y-86532418D01*
X116504479Y-86648335D01*
X116557525Y-86767000D01*
X116632754Y-86867991D01*
X116685006Y-86912244D01*
X116798546Y-86959370D01*
X116929500Y-86969636D01*
X117063628Y-86945918D01*
X117186690Y-86891089D01*
X117284448Y-86808023D01*
X117299800Y-86788147D01*
X117346806Y-86687428D01*
X117368439Y-86571877D01*
X117379690Y-86436199D01*
X117489030Y-86436200D01*
X117522580Y-86434977D01*
X117551931Y-86433421D01*
X117577363Y-86434699D01*
X117577363Y-86434699D01*
G37*
X117577363Y-86434699D02*
X117599155Y-86441976D01*
X117617586Y-86458420D01*
X117632935Y-86487197D01*
X117645481Y-86531474D01*
X117655505Y-86594418D01*
X117663283Y-86679194D01*
X117669096Y-86788971D01*
X117673223Y-86926914D01*
X117675943Y-87096191D01*
X117677535Y-87299968D01*
X117678277Y-87541411D01*
X117678450Y-87823687D01*
X117678332Y-88149964D01*
X117678203Y-88523407D01*
X117678200Y-88582500D01*
X117678122Y-88957884D01*
X117677849Y-89285711D01*
X117677318Y-89569221D01*
X117676469Y-89811658D01*
X117675240Y-90016261D01*
X117673569Y-90186274D01*
X117671395Y-90324939D01*
X117668657Y-90435496D01*
X117665292Y-90521188D01*
X117661241Y-90585257D01*
X117656441Y-90630944D01*
X117650831Y-90661492D01*
X117644349Y-90680141D01*
X117638285Y-90688885D01*
X117627209Y-90695992D01*
X117607001Y-90702213D01*
X117574490Y-90707606D01*
X117526503Y-90712229D01*
X117459867Y-90716140D01*
X117371410Y-90719396D01*
X117257960Y-90722056D01*
X117116344Y-90724175D01*
X116943390Y-90725813D01*
X116735924Y-90727028D01*
X116490776Y-90727876D01*
X116204771Y-90728415D01*
X115874739Y-90728703D01*
X115497505Y-90728798D01*
X115442999Y-90728800D01*
X115059176Y-90728726D01*
X114722980Y-90728467D01*
X114431239Y-90727965D01*
X114180781Y-90727162D01*
X113968432Y-90726000D01*
X113791021Y-90724422D01*
X113645375Y-90722371D01*
X113528322Y-90719787D01*
X113436688Y-90716615D01*
X113367303Y-90712795D01*
X113316992Y-90708271D01*
X113282584Y-90702985D01*
X113260907Y-90696879D01*
X113248787Y-90689895D01*
X113247714Y-90688885D01*
X113240465Y-90677627D01*
X113234138Y-90657152D01*
X113228672Y-90624219D01*
X113224006Y-90575586D01*
X113220078Y-90508011D01*
X113216826Y-90418252D01*
X113214190Y-90303068D01*
X113212107Y-90159217D01*
X113210517Y-89983456D01*
X113209358Y-89772544D01*
X113208568Y-89523239D01*
X113208086Y-89232300D01*
X113207851Y-88896484D01*
X113207800Y-88582500D01*
X113207877Y-88207115D01*
X113208150Y-87879288D01*
X113208681Y-87595778D01*
X113209530Y-87353341D01*
X113210759Y-87148738D01*
X113211948Y-87027729D01*
X113487199Y-87027729D01*
X113497637Y-87052638D01*
X113523944Y-87106844D01*
X113537999Y-87134699D01*
X113548932Y-87157774D01*
X113558174Y-87183420D01*
X113565867Y-87215859D01*
X113572152Y-87259308D01*
X113577172Y-87317988D01*
X113581068Y-87396117D01*
X113583983Y-87497917D01*
X113586057Y-87627605D01*
X113587434Y-87789401D01*
X113588254Y-87987525D01*
X113588659Y-88226197D01*
X113588791Y-88509635D01*
X113588799Y-88646290D01*
X113588439Y-88909726D01*
X113587402Y-89158037D01*
X113585756Y-89386556D01*
X113583568Y-89590618D01*
X113580903Y-89765558D01*
X113577830Y-89906711D01*
X113574415Y-90009410D01*
X113570724Y-90068991D01*
X113568224Y-90082370D01*
X113543800Y-90122136D01*
X113517968Y-90176350D01*
X113488289Y-90246200D01*
X114014794Y-90245811D01*
X114169967Y-90244849D01*
X114304350Y-90242381D01*
X114410999Y-90238674D01*
X114482970Y-90233992D01*
X114513319Y-90228600D01*
X114513094Y-90226761D01*
X114483145Y-90192826D01*
X114447332Y-90134626D01*
X114443244Y-90126811D01*
X114428318Y-90089521D01*
X114417307Y-90039267D01*
X114409669Y-89968556D01*
X114404866Y-89869898D01*
X114402356Y-89735800D01*
X114401601Y-89558772D01*
X114401600Y-89548961D01*
X114402833Y-89371347D01*
X114406396Y-89228876D01*
X114412078Y-89125727D01*
X114419672Y-89066078D01*
X114426414Y-89052400D01*
X114455914Y-89071770D01*
X114493641Y-89118744D01*
X114495915Y-89122250D01*
X114536493Y-89179268D01*
X114570699Y-89217500D01*
X114601147Y-89254632D01*
X114641083Y-89316966D01*
X114654671Y-89340833D01*
X114696820Y-89407930D01*
X114759527Y-89496720D01*
X114830592Y-89590064D01*
X114844542Y-89607533D01*
X114952661Y-89750344D01*
X115043138Y-89886967D01*
X115111389Y-90009349D01*
X115152831Y-90109440D01*
X115163600Y-90167923D01*
X115163600Y-90246200D01*
X116290055Y-90246200D01*
X116277929Y-90232488D01*
X116433600Y-90232488D01*
X116457699Y-90236757D01*
X116524796Y-90240485D01*
X116627089Y-90243448D01*
X116756778Y-90245426D01*
X116906061Y-90246196D01*
X116916200Y-90246200D01*
X117092967Y-90245408D01*
X117224101Y-90242806D01*
X117314747Y-90238056D01*
X117370050Y-90230818D01*
X117395156Y-90220752D01*
X117397992Y-90214450D01*
X117383038Y-90170554D01*
X117359892Y-90133395D01*
X117350698Y-90114692D01*
X117343102Y-90082195D01*
X117336959Y-90031498D01*
X117332127Y-89958196D01*
X117328464Y-89857883D01*
X117325826Y-89726154D01*
X117324070Y-89558604D01*
X117323053Y-89350827D01*
X117322633Y-89098418D01*
X117322600Y-88984045D01*
X117322600Y-87884000D01*
X116457695Y-87884000D01*
X116496447Y-87958938D01*
X116506478Y-87984815D01*
X116514667Y-88023092D01*
X116521192Y-88078607D01*
X116526226Y-88156197D01*
X116529947Y-88260700D01*
X116532529Y-88396954D01*
X116534148Y-88569797D01*
X116534979Y-88784067D01*
X116535200Y-89026750D01*
X116535086Y-89278440D01*
X116534585Y-89484511D01*
X116533455Y-89650147D01*
X116531455Y-89780527D01*
X116528345Y-89880835D01*
X116523883Y-89956251D01*
X116517829Y-90011957D01*
X116509941Y-90053135D01*
X116499979Y-90084967D01*
X116487701Y-90112635D01*
X116484400Y-90119200D01*
X116453490Y-90182636D01*
X116435480Y-90225110D01*
X116433600Y-90232488D01*
X116277929Y-90232488D01*
X116228477Y-90176570D01*
X116184555Y-90127266D01*
X116156373Y-90096290D01*
X116154200Y-90094020D01*
X116096445Y-90030905D01*
X116024963Y-89946689D01*
X115949897Y-89854065D01*
X115881391Y-89765725D01*
X115829588Y-89694361D01*
X115809376Y-89662547D01*
X115769155Y-89598584D01*
X115705662Y-89507299D01*
X115627804Y-89400680D01*
X115544487Y-89290715D01*
X115464617Y-89189390D01*
X115402273Y-89114607D01*
X115341829Y-89037548D01*
X115285159Y-88953943D01*
X115280978Y-88947050D01*
X115153637Y-88748936D01*
X115057994Y-88618356D01*
X114988036Y-88527212D01*
X115069468Y-88439760D01*
X115139660Y-88360661D01*
X115229715Y-88253892D01*
X115329057Y-88132451D01*
X115427107Y-88009339D01*
X115513289Y-87897555D01*
X115542151Y-87858815D01*
X115846941Y-87478892D01*
X116086279Y-87221787D01*
X116285059Y-87020400D01*
X115739747Y-87020400D01*
X115554550Y-87020523D01*
X115413998Y-87021861D01*
X115311937Y-87025867D01*
X115242212Y-87033993D01*
X115198669Y-87047691D01*
X115175153Y-87068416D01*
X115165511Y-87097618D01*
X115163586Y-87136751D01*
X115163600Y-87156390D01*
X115148012Y-87209842D01*
X115108941Y-87277121D01*
X115091299Y-87300362D01*
X115032652Y-87377668D01*
X114969890Y-87468586D01*
X114947802Y-87503000D01*
X114904552Y-87569764D01*
X114870912Y-87616931D01*
X114859239Y-87630000D01*
X114829445Y-87659339D01*
X114780245Y-87715018D01*
X114720522Y-87786108D01*
X114659162Y-87861681D01*
X114605047Y-87930808D01*
X114567063Y-87982561D01*
X114554000Y-88005483D01*
X114537182Y-88034974D01*
X114495146Y-88082717D01*
X114477799Y-88099900D01*
X114401599Y-88172904D01*
X114401600Y-87753088D01*
X114403193Y-87570302D01*
X114408895Y-87427476D01*
X114420093Y-87313840D01*
X114438172Y-87218629D01*
X114464518Y-87131075D01*
X114490164Y-87064850D01*
X114493394Y-87049771D01*
X114484649Y-87038538D01*
X114457705Y-87030591D01*
X114406338Y-87025367D01*
X114324324Y-87022303D01*
X114205439Y-87020838D01*
X114043460Y-87020410D01*
X113997917Y-87020400D01*
X113843083Y-87020746D01*
X113707122Y-87021712D01*
X113597617Y-87023190D01*
X113522151Y-87025071D01*
X113488308Y-87027245D01*
X113487199Y-87027729D01*
X113211948Y-87027729D01*
X113212430Y-86978725D01*
X113214604Y-86840060D01*
X113217342Y-86729503D01*
X113220707Y-86643811D01*
X113224758Y-86579742D01*
X113229558Y-86534055D01*
X113235168Y-86503507D01*
X113241650Y-86484858D01*
X113247714Y-86476114D01*
X113260178Y-86467934D01*
X113282437Y-86460938D01*
X113318191Y-86455034D01*
X113371141Y-86450133D01*
X113444988Y-86446144D01*
X113543431Y-86442978D01*
X113670173Y-86440544D01*
X113828913Y-86438752D01*
X114023353Y-86437511D01*
X114257193Y-86436733D01*
X114534135Y-86436326D01*
X114857878Y-86436200D01*
X116484400Y-86436200D01*
X116484400Y-86532418D01*
X116504479Y-86648335D01*
X116557525Y-86767000D01*
X116632754Y-86867991D01*
X116685006Y-86912244D01*
X116798546Y-86959370D01*
X116929500Y-86969636D01*
X117063628Y-86945918D01*
X117186690Y-86891089D01*
X117284448Y-86808023D01*
X117299800Y-86788147D01*
X117346806Y-86687428D01*
X117368439Y-86571877D01*
X117379690Y-86436199D01*
X117489030Y-86436200D01*
X117522580Y-86434977D01*
X117551931Y-86433421D01*
X117577363Y-86434699D01*
G36*
X119670676Y-86998341D02*
G01*
X119711911Y-87008143D01*
X119782879Y-87030829D01*
X119878173Y-87066963D01*
X119985521Y-87111187D01*
X120092653Y-87158147D01*
X120187298Y-87202487D01*
X120257185Y-87238851D01*
X120288064Y-87259598D01*
X120278374Y-87282582D01*
X120246036Y-87337508D01*
X120197464Y-87414651D01*
X120139074Y-87504288D01*
X120077281Y-87596695D01*
X120018502Y-87682151D01*
X119969152Y-87750930D01*
X119936677Y-87792159D01*
X119908236Y-87789624D01*
X119856081Y-87759335D01*
X119812407Y-87725312D01*
X119667298Y-87633226D01*
X119502487Y-87587559D01*
X119344098Y-87586284D01*
X119173398Y-87626902D01*
X119029259Y-87710127D01*
X118912245Y-87834925D01*
X118822919Y-88000260D01*
X118761843Y-88205097D01*
X118729581Y-88448401D01*
X118726426Y-88722200D01*
X118747867Y-88969826D01*
X118792984Y-89175741D01*
X118863630Y-89344105D01*
X118961657Y-89479080D01*
X119088917Y-89584826D01*
X119118579Y-89603151D01*
X119195773Y-89643415D01*
X119267238Y-89664876D01*
X119355027Y-89672676D01*
X119418100Y-89673009D01*
X119577817Y-89657354D01*
X119716547Y-89609392D01*
X119850625Y-89522613D01*
X119900846Y-89480663D01*
X119955092Y-89436162D01*
X119991414Y-89412225D01*
X119999055Y-89410969D01*
X120021216Y-89444288D01*
X120060498Y-89508333D01*
X120111230Y-89593348D01*
X120167743Y-89689575D01*
X120224366Y-89787257D01*
X120275431Y-89876636D01*
X120315265Y-89947956D01*
X120338201Y-89991460D01*
X120341453Y-90000180D01*
X120316218Y-90013554D01*
X120258344Y-90044253D01*
X120180062Y-90085786D01*
X120175457Y-90088230D01*
X120013147Y-90168612D01*
X119870212Y-90223928D01*
X119728272Y-90258986D01*
X119568947Y-90278593D01*
X119418100Y-90286340D01*
X119225285Y-90287569D01*
X119073250Y-90278113D01*
X118982436Y-90262565D01*
X118750201Y-90177718D01*
X118537159Y-90048718D01*
X118347366Y-89879906D01*
X118184878Y-89675623D01*
X118053752Y-89440209D01*
X117958044Y-89178005D01*
X117953548Y-89161632D01*
X117917250Y-88975026D01*
X117898345Y-88760920D01*
X117896823Y-88537257D01*
X117912669Y-88321982D01*
X117945872Y-88133040D01*
X117954297Y-88101044D01*
X118056061Y-87827435D01*
X118198732Y-87581468D01*
X118379804Y-87366653D01*
X118596770Y-87186495D01*
X118618000Y-87172082D01*
X118795644Y-87079504D01*
X119003698Y-87013748D01*
X119228198Y-86976907D01*
X119455178Y-86971073D01*
X119670676Y-86998341D01*
X119670676Y-86998341D01*
G37*
X119670676Y-86998341D02*
X119711911Y-87008143D01*
X119782879Y-87030829D01*
X119878173Y-87066963D01*
X119985521Y-87111187D01*
X120092653Y-87158147D01*
X120187298Y-87202487D01*
X120257185Y-87238851D01*
X120288064Y-87259598D01*
X120278374Y-87282582D01*
X120246036Y-87337508D01*
X120197464Y-87414651D01*
X120139074Y-87504288D01*
X120077281Y-87596695D01*
X120018502Y-87682151D01*
X119969152Y-87750930D01*
X119936677Y-87792159D01*
X119908236Y-87789624D01*
X119856081Y-87759335D01*
X119812407Y-87725312D01*
X119667298Y-87633226D01*
X119502487Y-87587559D01*
X119344098Y-87586284D01*
X119173398Y-87626902D01*
X119029259Y-87710127D01*
X118912245Y-87834925D01*
X118822919Y-88000260D01*
X118761843Y-88205097D01*
X118729581Y-88448401D01*
X118726426Y-88722200D01*
X118747867Y-88969826D01*
X118792984Y-89175741D01*
X118863630Y-89344105D01*
X118961657Y-89479080D01*
X119088917Y-89584826D01*
X119118579Y-89603151D01*
X119195773Y-89643415D01*
X119267238Y-89664876D01*
X119355027Y-89672676D01*
X119418100Y-89673009D01*
X119577817Y-89657354D01*
X119716547Y-89609392D01*
X119850625Y-89522613D01*
X119900846Y-89480663D01*
X119955092Y-89436162D01*
X119991414Y-89412225D01*
X119999055Y-89410969D01*
X120021216Y-89444288D01*
X120060498Y-89508333D01*
X120111230Y-89593348D01*
X120167743Y-89689575D01*
X120224366Y-89787257D01*
X120275431Y-89876636D01*
X120315265Y-89947956D01*
X120338201Y-89991460D01*
X120341453Y-90000180D01*
X120316218Y-90013554D01*
X120258344Y-90044253D01*
X120180062Y-90085786D01*
X120175457Y-90088230D01*
X120013147Y-90168612D01*
X119870212Y-90223928D01*
X119728272Y-90258986D01*
X119568947Y-90278593D01*
X119418100Y-90286340D01*
X119225285Y-90287569D01*
X119073250Y-90278113D01*
X118982436Y-90262565D01*
X118750201Y-90177718D01*
X118537159Y-90048718D01*
X118347366Y-89879906D01*
X118184878Y-89675623D01*
X118053752Y-89440209D01*
X117958044Y-89178005D01*
X117953548Y-89161632D01*
X117917250Y-88975026D01*
X117898345Y-88760920D01*
X117896823Y-88537257D01*
X117912669Y-88321982D01*
X117945872Y-88133040D01*
X117954297Y-88101044D01*
X118056061Y-87827435D01*
X118198732Y-87581468D01*
X118379804Y-87366653D01*
X118596770Y-87186495D01*
X118618000Y-87172082D01*
X118795644Y-87079504D01*
X119003698Y-87013748D01*
X119228198Y-86976907D01*
X119455178Y-86971073D01*
X119670676Y-86998341D01*
G36*
X121753620Y-87844359D02*
G01*
X121929576Y-87884264D01*
X122048513Y-87928895D01*
X122141098Y-87984778D01*
X122223779Y-88058360D01*
X122276917Y-88113188D01*
X122320396Y-88164829D01*
X122355291Y-88218992D01*
X122382676Y-88281387D01*
X122403624Y-88357723D01*
X122419209Y-88453710D01*
X122430504Y-88575058D01*
X122438585Y-88727475D01*
X122444523Y-88916670D01*
X122449394Y-89148355D01*
X122451549Y-89269477D01*
X122455807Y-89501434D01*
X122459930Y-89688051D01*
X122464276Y-89834785D01*
X122469203Y-89947095D01*
X122475068Y-90030437D01*
X122482231Y-90090269D01*
X122491049Y-90132049D01*
X122501880Y-90161234D01*
X122511135Y-90177527D01*
X122556171Y-90246200D01*
X121745418Y-90246200D01*
X121729500Y-90092698D01*
X121630102Y-90160483D01*
X121473946Y-90239254D01*
X121293092Y-90285178D01*
X121103295Y-90296137D01*
X120920309Y-90270011D01*
X120886834Y-90260436D01*
X120700429Y-90178112D01*
X120549520Y-90060585D01*
X120436652Y-89911321D01*
X120364375Y-89733786D01*
X120335235Y-89531443D01*
X120334788Y-89509600D01*
X120335452Y-89480545D01*
X121063707Y-89480545D01*
X121067963Y-89569884D01*
X121078090Y-89600502D01*
X121140779Y-89681089D01*
X121235723Y-89735481D01*
X121349327Y-89759352D01*
X121467996Y-89748378D01*
X121505596Y-89736508D01*
X121592783Y-89694968D01*
X121648424Y-89642366D01*
X121678894Y-89567280D01*
X121690566Y-89458289D01*
X121691400Y-89403572D01*
X121691400Y-89204800D01*
X121525484Y-89204800D01*
X121361747Y-89219824D01*
X121223128Y-89262733D01*
X121127676Y-89323555D01*
X121085069Y-89390298D01*
X121063707Y-89480545D01*
X120335452Y-89480545D01*
X120337403Y-89395273D01*
X120351051Y-89307974D01*
X120380550Y-89224311D01*
X120403882Y-89174215D01*
X120508223Y-89017636D01*
X120652604Y-88891758D01*
X120836369Y-88796878D01*
X121058862Y-88733291D01*
X121319426Y-88701295D01*
X121459794Y-88697241D01*
X121698088Y-88696800D01*
X121684196Y-88593228D01*
X121648262Y-88479960D01*
X121576344Y-88401507D01*
X121469724Y-88358163D01*
X121329687Y-88350223D01*
X121157516Y-88377980D01*
X120980509Y-88432144D01*
X120896051Y-88459413D01*
X120831058Y-88474373D01*
X120799195Y-88473908D01*
X120798862Y-88473589D01*
X120781276Y-88441872D01*
X120751180Y-88375912D01*
X120713902Y-88288745D01*
X120674773Y-88193404D01*
X120639122Y-88102925D01*
X120612280Y-88030340D01*
X120599575Y-87988685D01*
X120599200Y-87985302D01*
X120620990Y-87966617D01*
X120664447Y-87960200D01*
X120716031Y-87954037D01*
X120802850Y-87937424D01*
X120911103Y-87913175D01*
X120988297Y-87894173D01*
X121254096Y-87843360D01*
X121512776Y-87826718D01*
X121753620Y-87844359D01*
X121753620Y-87844359D01*
G37*
X121753620Y-87844359D02*
X121929576Y-87884264D01*
X122048513Y-87928895D01*
X122141098Y-87984778D01*
X122223779Y-88058360D01*
X122276917Y-88113188D01*
X122320396Y-88164829D01*
X122355291Y-88218992D01*
X122382676Y-88281387D01*
X122403624Y-88357723D01*
X122419209Y-88453710D01*
X122430504Y-88575058D01*
X122438585Y-88727475D01*
X122444523Y-88916670D01*
X122449394Y-89148355D01*
X122451549Y-89269477D01*
X122455807Y-89501434D01*
X122459930Y-89688051D01*
X122464276Y-89834785D01*
X122469203Y-89947095D01*
X122475068Y-90030437D01*
X122482231Y-90090269D01*
X122491049Y-90132049D01*
X122501880Y-90161234D01*
X122511135Y-90177527D01*
X122556171Y-90246200D01*
X121745418Y-90246200D01*
X121729500Y-90092698D01*
X121630102Y-90160483D01*
X121473946Y-90239254D01*
X121293092Y-90285178D01*
X121103295Y-90296137D01*
X120920309Y-90270011D01*
X120886834Y-90260436D01*
X120700429Y-90178112D01*
X120549520Y-90060585D01*
X120436652Y-89911321D01*
X120364375Y-89733786D01*
X120335235Y-89531443D01*
X120334788Y-89509600D01*
X120335452Y-89480545D01*
X121063707Y-89480545D01*
X121067963Y-89569884D01*
X121078090Y-89600502D01*
X121140779Y-89681089D01*
X121235723Y-89735481D01*
X121349327Y-89759352D01*
X121467996Y-89748378D01*
X121505596Y-89736508D01*
X121592783Y-89694968D01*
X121648424Y-89642366D01*
X121678894Y-89567280D01*
X121690566Y-89458289D01*
X121691400Y-89403572D01*
X121691400Y-89204800D01*
X121525484Y-89204800D01*
X121361747Y-89219824D01*
X121223128Y-89262733D01*
X121127676Y-89323555D01*
X121085069Y-89390298D01*
X121063707Y-89480545D01*
X120335452Y-89480545D01*
X120337403Y-89395273D01*
X120351051Y-89307974D01*
X120380550Y-89224311D01*
X120403882Y-89174215D01*
X120508223Y-89017636D01*
X120652604Y-88891758D01*
X120836369Y-88796878D01*
X121058862Y-88733291D01*
X121319426Y-88701295D01*
X121459794Y-88697241D01*
X121698088Y-88696800D01*
X121684196Y-88593228D01*
X121648262Y-88479960D01*
X121576344Y-88401507D01*
X121469724Y-88358163D01*
X121329687Y-88350223D01*
X121157516Y-88377980D01*
X120980509Y-88432144D01*
X120896051Y-88459413D01*
X120831058Y-88474373D01*
X120799195Y-88473908D01*
X120798862Y-88473589D01*
X120781276Y-88441872D01*
X120751180Y-88375912D01*
X120713902Y-88288745D01*
X120674773Y-88193404D01*
X120639122Y-88102925D01*
X120612280Y-88030340D01*
X120599575Y-87988685D01*
X120599200Y-87985302D01*
X120620990Y-87966617D01*
X120664447Y-87960200D01*
X120716031Y-87954037D01*
X120802850Y-87937424D01*
X120911103Y-87913175D01*
X120988297Y-87894173D01*
X121254096Y-87843360D01*
X121512776Y-87826718D01*
X121753620Y-87844359D01*
G36*
X124973464Y-88449150D02*
G01*
X124975006Y-88779052D01*
X124976566Y-89061981D01*
X124978261Y-89301761D01*
X124980208Y-89502219D01*
X124982523Y-89667181D01*
X124985322Y-89800472D01*
X124988724Y-89905918D01*
X124992844Y-89987345D01*
X124997799Y-90048580D01*
X125003707Y-90093447D01*
X125010683Y-90125774D01*
X125018845Y-90149385D01*
X125025802Y-90163650D01*
X125070904Y-90246200D01*
X124256800Y-90246200D01*
X124256800Y-90170000D01*
X124253441Y-90116452D01*
X124245351Y-90093804D01*
X124245227Y-90093800D01*
X124219109Y-90106784D01*
X124166726Y-90139537D01*
X124139903Y-90157421D01*
X124007603Y-90224647D01*
X123847937Y-90271589D01*
X123679022Y-90295338D01*
X123518977Y-90292984D01*
X123418600Y-90273247D01*
X123234538Y-90191939D01*
X123069410Y-90070200D01*
X122934517Y-89917510D01*
X122873155Y-89815694D01*
X122805731Y-89658029D01*
X122761855Y-89491951D01*
X122738714Y-89303403D01*
X122733241Y-89116913D01*
X122734002Y-89103200D01*
X123534136Y-89103200D01*
X123538634Y-89278895D01*
X123552249Y-89412414D01*
X123577477Y-89511949D01*
X123616812Y-89585691D01*
X123672751Y-89641831D01*
X123705016Y-89664170D01*
X123811421Y-89702164D01*
X123937144Y-89699176D01*
X124072203Y-89655728D01*
X124096499Y-89643773D01*
X124193300Y-89593557D01*
X124200142Y-89044487D01*
X124206985Y-88495416D01*
X124139891Y-88451454D01*
X124076360Y-88424707D01*
X123986668Y-88404044D01*
X123928633Y-88397065D01*
X123840255Y-88393970D01*
X123781291Y-88404095D01*
X123730985Y-88432683D01*
X123704927Y-88453568D01*
X123637583Y-88527167D01*
X123588664Y-88622737D01*
X123556341Y-88747234D01*
X123538787Y-88907611D01*
X123534136Y-89103200D01*
X122734002Y-89103200D01*
X122749675Y-88820965D01*
X122797542Y-88561134D01*
X122876171Y-88338509D01*
X122984889Y-88154180D01*
X123123025Y-88009237D01*
X123289906Y-87904768D01*
X123484860Y-87841864D01*
X123524170Y-87834835D01*
X123639703Y-87826575D01*
X123767063Y-87833429D01*
X123893661Y-87852852D01*
X124006912Y-87882299D01*
X124094228Y-87919225D01*
X124142262Y-87959815D01*
X124163127Y-87984282D01*
X124179170Y-87979192D01*
X124190925Y-87940657D01*
X124198924Y-87864788D01*
X124203702Y-87747701D01*
X124205793Y-87585506D01*
X124206000Y-87495670D01*
X124205477Y-87321573D01*
X124203469Y-87190217D01*
X124199311Y-87093550D01*
X124192343Y-87023519D01*
X124181901Y-86972073D01*
X124167322Y-86931158D01*
X124157938Y-86911470D01*
X124109876Y-86817200D01*
X124966228Y-86817200D01*
X124973464Y-88449150D01*
X124973464Y-88449150D01*
G37*
X124973464Y-88449150D02*
X124975006Y-88779052D01*
X124976566Y-89061981D01*
X124978261Y-89301761D01*
X124980208Y-89502219D01*
X124982523Y-89667181D01*
X124985322Y-89800472D01*
X124988724Y-89905918D01*
X124992844Y-89987345D01*
X124997799Y-90048580D01*
X125003707Y-90093447D01*
X125010683Y-90125774D01*
X125018845Y-90149385D01*
X125025802Y-90163650D01*
X125070904Y-90246200D01*
X124256800Y-90246200D01*
X124256800Y-90170000D01*
X124253441Y-90116452D01*
X124245351Y-90093804D01*
X124245227Y-90093800D01*
X124219109Y-90106784D01*
X124166726Y-90139537D01*
X124139903Y-90157421D01*
X124007603Y-90224647D01*
X123847937Y-90271589D01*
X123679022Y-90295338D01*
X123518977Y-90292984D01*
X123418600Y-90273247D01*
X123234538Y-90191939D01*
X123069410Y-90070200D01*
X122934517Y-89917510D01*
X122873155Y-89815694D01*
X122805731Y-89658029D01*
X122761855Y-89491951D01*
X122738714Y-89303403D01*
X122733241Y-89116913D01*
X122734002Y-89103200D01*
X123534136Y-89103200D01*
X123538634Y-89278895D01*
X123552249Y-89412414D01*
X123577477Y-89511949D01*
X123616812Y-89585691D01*
X123672751Y-89641831D01*
X123705016Y-89664170D01*
X123811421Y-89702164D01*
X123937144Y-89699176D01*
X124072203Y-89655728D01*
X124096499Y-89643773D01*
X124193300Y-89593557D01*
X124200142Y-89044487D01*
X124206985Y-88495416D01*
X124139891Y-88451454D01*
X124076360Y-88424707D01*
X123986668Y-88404044D01*
X123928633Y-88397065D01*
X123840255Y-88393970D01*
X123781291Y-88404095D01*
X123730985Y-88432683D01*
X123704927Y-88453568D01*
X123637583Y-88527167D01*
X123588664Y-88622737D01*
X123556341Y-88747234D01*
X123538787Y-88907611D01*
X123534136Y-89103200D01*
X122734002Y-89103200D01*
X122749675Y-88820965D01*
X122797542Y-88561134D01*
X122876171Y-88338509D01*
X122984889Y-88154180D01*
X123123025Y-88009237D01*
X123289906Y-87904768D01*
X123484860Y-87841864D01*
X123524170Y-87834835D01*
X123639703Y-87826575D01*
X123767063Y-87833429D01*
X123893661Y-87852852D01*
X124006912Y-87882299D01*
X124094228Y-87919225D01*
X124142262Y-87959815D01*
X124163127Y-87984282D01*
X124179170Y-87979192D01*
X124190925Y-87940657D01*
X124198924Y-87864788D01*
X124203702Y-87747701D01*
X124205793Y-87585506D01*
X124206000Y-87495670D01*
X124205477Y-87321573D01*
X124203469Y-87190217D01*
X124199311Y-87093550D01*
X124192343Y-87023519D01*
X124181901Y-86972073D01*
X124167322Y-86931158D01*
X124157938Y-86911470D01*
X124109876Y-86817200D01*
X124966228Y-86817200D01*
X124973464Y-88449150D01*
D14*
X60786000Y-67084000D02*
X51986000Y-67084000D01*
X51986000Y-67084000D02*
X51986000Y-57884000D01*
X66686000Y-64384000D02*
X66686000Y-67084000D01*
X66686000Y-67084000D02*
X64786000Y-67084000D01*
X51986000Y-57884000D02*
X66686000Y-57884000D01*
X66686000Y-57884000D02*
X66686000Y-60484000D01*
D10*
X128270000Y-106680000D02*
X111760000Y-106680000D01*
X128270000Y-92710000D02*
X128270000Y-106680000D01*
X111760000Y-92710000D02*
X128270000Y-92710000D01*
X111760000Y-106680000D02*
X111760000Y-92710000D01*
D14*
X64211643Y-78651112D02*
G75*
G03X66823174Y-76040755I613250J1998005D01*
G01*
X62826888Y-77266357D02*
G75*
G02X65437245Y-74654826I1998005J613250D01*
G01*
X62826888Y-77266358D02*
G75*
G03X64212542Y-78651388I1998005J613251D01*
G01*
X66274462Y-78102676D02*
X63375324Y-75203538D01*
X66246178Y-78130960D02*
X63347040Y-75231822D01*
X66217186Y-78158537D02*
X63319463Y-75260814D01*
X66187488Y-78185407D02*
X63292593Y-75290512D01*
X66157082Y-78211570D02*
X63266430Y-75320918D01*
X66126677Y-78237733D02*
X63240267Y-75351323D01*
X66095564Y-78263189D02*
X65206731Y-77374356D01*
X64103644Y-76271269D02*
X63214811Y-75382436D01*
X66063744Y-78287938D02*
X65178447Y-77402640D01*
X64075360Y-76299553D02*
X63190062Y-75414256D01*
X66031217Y-78311979D02*
X65150162Y-77430924D01*
X64047076Y-76327838D02*
X63166021Y-75446783D01*
X65997983Y-78335314D02*
X65121878Y-77459209D01*
X64018791Y-76356122D02*
X63142686Y-75480017D01*
X65964749Y-78358648D02*
X65093594Y-77487493D01*
X63990507Y-76384406D02*
X63119352Y-75513251D01*
X65930808Y-78381276D02*
X65065310Y-77515777D01*
X63962223Y-76412690D02*
X63096724Y-75547192D01*
X65896160Y-78403196D02*
X65037025Y-77544061D01*
X63933939Y-76440975D02*
X63074804Y-75581840D01*
X65860805Y-78424409D02*
X65008741Y-77572346D01*
X63905654Y-76469259D02*
X63053591Y-75617195D01*
X65824742Y-78444915D02*
X64980457Y-77600630D01*
X63877370Y-76497543D02*
X63033085Y-75653258D01*
X65788680Y-78465421D02*
X64952172Y-77628914D01*
X63849086Y-76525828D02*
X63012579Y-75689320D01*
X65751203Y-78484513D02*
X64923888Y-77657198D01*
X63820802Y-76554112D02*
X62993487Y-75726797D01*
X65713726Y-78503605D02*
X64895604Y-77685483D01*
X63792517Y-76582396D02*
X62974395Y-75764274D01*
X65674836Y-78522697D02*
X64866613Y-77714474D01*
X63763526Y-76611387D02*
X62955303Y-75803164D01*
X65635238Y-78539668D02*
X64838328Y-77742758D01*
X63735242Y-76639672D02*
X62938332Y-75842762D01*
X65595640Y-78556638D02*
X64810044Y-77771043D01*
X63706957Y-76667956D02*
X62921362Y-75882360D01*
X65555335Y-78572902D02*
X64781760Y-77799327D01*
X63678673Y-76696240D02*
X62905098Y-75922665D01*
X65514322Y-78588458D02*
X64753475Y-77827611D01*
X63650389Y-76724525D02*
X62889542Y-75963678D01*
X65472603Y-78603307D02*
X64725191Y-77855895D01*
X63622105Y-76752809D02*
X62874693Y-76005397D01*
X65430177Y-78617449D02*
X64696907Y-77884180D01*
X63593820Y-76781093D02*
X62860551Y-76047823D01*
X65387043Y-78630884D02*
X64668623Y-77912464D01*
X63565536Y-76809377D02*
X62847116Y-76090957D01*
X65342495Y-78642905D02*
X64640338Y-77940748D01*
X63537252Y-76837662D02*
X62835095Y-76135505D01*
X65297948Y-78654926D02*
X64612054Y-77969033D01*
X63508967Y-76865946D02*
X62823074Y-76180052D01*
X65251986Y-78665533D02*
X64583770Y-77997317D01*
X63480683Y-76894230D02*
X62812467Y-76226014D01*
X65205317Y-78675432D02*
X64555486Y-78025601D01*
X63452399Y-76922514D02*
X62802568Y-76272683D01*
X65157941Y-78684625D02*
X64527201Y-78053885D01*
X63424115Y-76950799D02*
X62793375Y-76320059D01*
X65109150Y-78692403D02*
X64498917Y-78082170D01*
X63395830Y-76979083D02*
X62785597Y-76368850D01*
X65059653Y-78699474D02*
X64470633Y-78110454D01*
X63367546Y-77007367D02*
X62778526Y-76418347D01*
X65008741Y-78705131D02*
X64442348Y-78138738D01*
X63339262Y-77035652D02*
X62772869Y-76469259D01*
X64956415Y-78709373D02*
X64414064Y-78167022D01*
X63310978Y-77063936D02*
X62768627Y-76521585D01*
X64903382Y-78712909D02*
X64385780Y-78195307D01*
X63282693Y-77092220D02*
X62765091Y-76574618D01*
X64848935Y-78715030D02*
X64357496Y-78223591D01*
X63254409Y-77120504D02*
X62762970Y-76629065D01*
X64793073Y-78715737D02*
X64329211Y-78251875D01*
X63226125Y-77148789D02*
X62762263Y-76684927D01*
X64735798Y-78715030D02*
X64300927Y-78280159D01*
X63197841Y-77177073D02*
X62762970Y-76742202D01*
X64676401Y-78712202D02*
X64272643Y-78308444D01*
X63169556Y-77205357D02*
X62765798Y-76801599D01*
X64615590Y-78707959D02*
X64244359Y-78336728D01*
X63141272Y-77233641D02*
X62770041Y-76862410D01*
X64552657Y-78701595D02*
X64216074Y-78365012D01*
X63112988Y-77261926D02*
X62776405Y-76925343D01*
X64487603Y-78693110D02*
X64187790Y-78393297D01*
X63084703Y-77290210D02*
X62784890Y-76990397D01*
X64419721Y-78681796D02*
X64159506Y-78421581D01*
X63056419Y-77318494D02*
X62796204Y-77058279D01*
X64349010Y-78667654D02*
X64131221Y-78449865D01*
X63028135Y-77346779D02*
X62810346Y-77128990D01*
X64274764Y-78649976D02*
X62828024Y-77203236D01*
X64196275Y-78628056D02*
X62849944Y-77281725D01*
X64112837Y-78601186D02*
X62876814Y-77365163D01*
X64022327Y-78567245D02*
X62910755Y-77455673D01*
X63923332Y-78524818D02*
X62953182Y-77554668D01*
X63810902Y-78468957D02*
X63009043Y-77667098D01*
X63675138Y-78389761D02*
X63088239Y-77802862D01*
X63470077Y-78241269D02*
X63236731Y-78007923D01*
X66734082Y-74743918D02*
X66097685Y-75380315D01*
X66734082Y-75380315D02*
X66097685Y-74743918D01*
X120156701Y-78587229D02*
X120390046Y-78820574D01*
X120390046Y-78820574D02*
X115850420Y-83360199D01*
X115850420Y-83360199D02*
X115617075Y-83126854D01*
X118770771Y-77201299D02*
X118537426Y-76967954D01*
X118537426Y-76967954D02*
X113997801Y-81507580D01*
X113997801Y-81507580D02*
X114231146Y-81740925D01*
D10*
X102362000Y-111760000D02*
X102362000Y-83820000D01*
X101618051Y-110490000D02*
G75*
G03X101618051Y-110490000I-1796051J0D01*
G01*
X101618051Y-85090000D02*
G75*
G03X101618051Y-85090000I-1796051J0D01*
G01*
X58438051Y-85090000D02*
G75*
G03X58438051Y-85090000I-1796051J0D01*
G01*
X58438051Y-110490000D02*
G75*
G03X58438051Y-110490000I-1796051J0D01*
G01*
X54102000Y-93990000D02*
X54102000Y-83820000D01*
X101092000Y-82550000D02*
X55372000Y-82550000D01*
X101092000Y-113030000D02*
X55372000Y-113030000D01*
X55372000Y-82550000D02*
G75*
G03X54102000Y-83820000I0J-1270000D01*
G01*
X54102000Y-111760000D02*
G75*
G03X55372000Y-113030000I1270000J0D01*
G01*
X101092000Y-113030000D02*
G75*
G03X102362000Y-111760000I0J1270000D01*
G01*
X102362000Y-83820000D02*
G75*
G03X101092000Y-82550000I-1270000J0D01*
G01*
X53102000Y-101590000D02*
X53102000Y-93990000D01*
X58832000Y-101590000D02*
X53102000Y-101590000D01*
X58832000Y-93990000D02*
X58832000Y-101590000D01*
X53102000Y-93990000D02*
X58832000Y-93990000D01*
X95232000Y-92290000D02*
X102362000Y-92290000D01*
X102362000Y-103290000D02*
X95232000Y-103290000D01*
X95232000Y-103290000D02*
X95232000Y-92290000D01*
X54102000Y-111770000D02*
X54102000Y-101600000D01*
X70866000Y-79248000D02*
X70866000Y-57658000D01*
X114046000Y-79248000D02*
X70866000Y-79248000D01*
X114046000Y-57658000D02*
X114046000Y-79248000D01*
X70866000Y-57658000D02*
X114046000Y-57658000D01*
X56002666Y-68686380D02*
X55669333Y-68210190D01*
X55431238Y-68686380D02*
X55431238Y-67686380D01*
X55812190Y-67686380D01*
X55907428Y-67734000D01*
X55955047Y-67781619D01*
X56002666Y-67876857D01*
X56002666Y-68019714D01*
X55955047Y-68114952D01*
X55907428Y-68162571D01*
X55812190Y-68210190D01*
X55431238Y-68210190D01*
X56431238Y-68162571D02*
X56764571Y-68162571D01*
X56907428Y-68686380D02*
X56431238Y-68686380D01*
X56431238Y-67686380D01*
X56907428Y-67686380D01*
X57669333Y-68162571D02*
X57336000Y-68162571D01*
X57336000Y-68686380D02*
X57336000Y-67686380D01*
X57812190Y-67686380D01*
X58336000Y-67686380D02*
X58336000Y-67924476D01*
X58097904Y-67829238D02*
X58336000Y-67924476D01*
X58574095Y-67829238D01*
X58193142Y-68114952D02*
X58336000Y-67924476D01*
X58478857Y-68114952D01*
X59097904Y-67686380D02*
X59097904Y-67924476D01*
X58859809Y-67829238D02*
X59097904Y-67924476D01*
X59336000Y-67829238D01*
X58955047Y-68114952D02*
X59097904Y-67924476D01*
X59240761Y-68114952D01*
X109942380Y-101091904D02*
X110751904Y-101091904D01*
X110847142Y-101044285D01*
X110894761Y-100996666D01*
X110942380Y-100901428D01*
X110942380Y-100710952D01*
X110894761Y-100615714D01*
X110847142Y-100568095D01*
X110751904Y-100520476D01*
X109942380Y-100520476D01*
X110037619Y-100091904D02*
X109990000Y-100044285D01*
X109942380Y-99949047D01*
X109942380Y-99710952D01*
X109990000Y-99615714D01*
X110037619Y-99568095D01*
X110132857Y-99520476D01*
X110228095Y-99520476D01*
X110370952Y-99568095D01*
X110942380Y-100139523D01*
X110942380Y-99520476D01*
X126182380Y-97710476D02*
X125182380Y-97710476D01*
X125658571Y-97710476D02*
X125658571Y-97139047D01*
X126182380Y-97139047D02*
X125182380Y-97139047D01*
X125182380Y-96805714D02*
X126182380Y-96472380D01*
X125182380Y-96139047D01*
X125515714Y-95377142D02*
X126182380Y-95377142D01*
X125134761Y-95615238D02*
X125849047Y-95853333D01*
X125849047Y-95234285D01*
X123642380Y-97710476D02*
X122642380Y-97710476D01*
X123118571Y-97710476D02*
X123118571Y-97139047D01*
X123642380Y-97139047D02*
X122642380Y-97139047D01*
X122642380Y-96805714D02*
X123642380Y-96472380D01*
X122642380Y-96139047D01*
X122642380Y-95900952D02*
X122642380Y-95281904D01*
X123023333Y-95615238D01*
X123023333Y-95472380D01*
X123070952Y-95377142D01*
X123118571Y-95329523D01*
X123213809Y-95281904D01*
X123451904Y-95281904D01*
X123547142Y-95329523D01*
X123594761Y-95377142D01*
X123642380Y-95472380D01*
X123642380Y-95758095D01*
X123594761Y-95853333D01*
X123547142Y-95900952D01*
X120150000Y-97377142D02*
X120102380Y-97472380D01*
X120102380Y-97615238D01*
X120150000Y-97758095D01*
X120245238Y-97853333D01*
X120340476Y-97900952D01*
X120530952Y-97948571D01*
X120673809Y-97948571D01*
X120864285Y-97900952D01*
X120959523Y-97853333D01*
X121054761Y-97758095D01*
X121102380Y-97615238D01*
X121102380Y-97519999D01*
X121054761Y-97377142D01*
X121007142Y-97329523D01*
X120673809Y-97329523D01*
X120673809Y-97519999D01*
X121102380Y-96900952D02*
X120102380Y-96900952D01*
X121102380Y-96329523D01*
X120102380Y-96329523D01*
X121102380Y-95853333D02*
X120102380Y-95853333D01*
X120102380Y-95615238D01*
X120150000Y-95472380D01*
X120245238Y-95377142D01*
X120340476Y-95329523D01*
X120530952Y-95281904D01*
X120673809Y-95281904D01*
X120864285Y-95329523D01*
X120959523Y-95377142D01*
X121054761Y-95472380D01*
X121102380Y-95615238D01*
X121102380Y-95853333D01*
X118562380Y-96758094D02*
X117562380Y-96758094D01*
X118038571Y-96758094D02*
X118038571Y-96186666D01*
X118562380Y-96186666D02*
X117562380Y-96186666D01*
X117562380Y-95853332D02*
X118562380Y-95519999D01*
X117562380Y-95186666D01*
X116022380Y-97710476D02*
X115022380Y-97710476D01*
X115498571Y-97710476D02*
X115498571Y-97139047D01*
X116022380Y-97139047D02*
X115022380Y-97139047D01*
X115022380Y-96805714D02*
X116022380Y-96472380D01*
X115022380Y-96139047D01*
X115117619Y-95853333D02*
X115070000Y-95805714D01*
X115022380Y-95710476D01*
X115022380Y-95472380D01*
X115070000Y-95377142D01*
X115117619Y-95329523D01*
X115212857Y-95281904D01*
X115308095Y-95281904D01*
X115450952Y-95329523D01*
X116022380Y-95900952D01*
X116022380Y-95281904D01*
X113482380Y-97710476D02*
X112482380Y-97710476D01*
X112958571Y-97710476D02*
X112958571Y-97139047D01*
X113482380Y-97139047D02*
X112482380Y-97139047D01*
X112482380Y-96805714D02*
X113482380Y-96472380D01*
X112482380Y-96139047D01*
X113482380Y-95281904D02*
X113482380Y-95853333D01*
X113482380Y-95567619D02*
X112482380Y-95567619D01*
X112625238Y-95662857D01*
X112720476Y-95758095D01*
X112768095Y-95853333D01*
X126182380Y-102989047D02*
X126182380Y-103465237D01*
X125182380Y-103465237D01*
X125182380Y-102798570D02*
X126182380Y-102465237D01*
X125182380Y-102131904D01*
X125515714Y-101369999D02*
X126182380Y-101369999D01*
X125134761Y-101608094D02*
X125849047Y-101846189D01*
X125849047Y-101227142D01*
X123642380Y-102989047D02*
X123642380Y-103465237D01*
X122642380Y-103465237D01*
X122642380Y-102798570D02*
X123642380Y-102465237D01*
X122642380Y-102131904D01*
X122642380Y-101893809D02*
X122642380Y-101274761D01*
X123023333Y-101608094D01*
X123023333Y-101465237D01*
X123070952Y-101369999D01*
X123118571Y-101322380D01*
X123213809Y-101274761D01*
X123451904Y-101274761D01*
X123547142Y-101322380D01*
X123594761Y-101369999D01*
X123642380Y-101465237D01*
X123642380Y-101750951D01*
X123594761Y-101846189D01*
X123547142Y-101893809D01*
X120150000Y-102941428D02*
X120102380Y-103036666D01*
X120102380Y-103179524D01*
X120150000Y-103322381D01*
X120245238Y-103417619D01*
X120340476Y-103465238D01*
X120530952Y-103512857D01*
X120673809Y-103512857D01*
X120864285Y-103465238D01*
X120959523Y-103417619D01*
X121054761Y-103322381D01*
X121102380Y-103179524D01*
X121102380Y-103084285D01*
X121054761Y-102941428D01*
X121007142Y-102893809D01*
X120673809Y-102893809D01*
X120673809Y-103084285D01*
X121102380Y-102465238D02*
X120102380Y-102465238D01*
X121102380Y-101893809D01*
X120102380Y-101893809D01*
X121102380Y-101417619D02*
X120102380Y-101417619D01*
X120102380Y-101179524D01*
X120150000Y-101036666D01*
X120245238Y-100941428D01*
X120340476Y-100893809D01*
X120530952Y-100846190D01*
X120673809Y-100846190D01*
X120864285Y-100893809D01*
X120959523Y-100941428D01*
X121054761Y-101036666D01*
X121102380Y-101179524D01*
X121102380Y-101417619D01*
X118562380Y-102989047D02*
X118562380Y-103465238D01*
X117562380Y-103465238D01*
X117562380Y-102798571D02*
X118562380Y-102465238D01*
X117562380Y-102131904D01*
X116022380Y-102989047D02*
X116022380Y-103465237D01*
X115022380Y-103465237D01*
X115022380Y-102798570D02*
X116022380Y-102465237D01*
X115022380Y-102131904D01*
X115117619Y-101846189D02*
X115070000Y-101798570D01*
X115022380Y-101703332D01*
X115022380Y-101465237D01*
X115070000Y-101369999D01*
X115117619Y-101322380D01*
X115212857Y-101274761D01*
X115308095Y-101274761D01*
X115450952Y-101322380D01*
X116022380Y-101893809D01*
X116022380Y-101274761D01*
X113482380Y-102989047D02*
X113482380Y-103465237D01*
X112482380Y-103465237D01*
X112482380Y-102798570D02*
X113482380Y-102465237D01*
X112482380Y-102131904D01*
X113482380Y-101274761D02*
X113482380Y-101846189D01*
X113482380Y-101560475D02*
X112482380Y-101560475D01*
X112625238Y-101655713D01*
X112720476Y-101750951D01*
X112768095Y-101846189D01*
X129230380Y-69064095D02*
X128230380Y-69064095D01*
X128230380Y-68826000D01*
X128278000Y-68683142D01*
X128373238Y-68587904D01*
X128468476Y-68540285D01*
X128658952Y-68492666D01*
X128801809Y-68492666D01*
X128992285Y-68540285D01*
X129087523Y-68587904D01*
X129182761Y-68683142D01*
X129230380Y-68826000D01*
X129230380Y-69064095D01*
X129230380Y-67540285D02*
X129230380Y-68111714D01*
X129230380Y-67826000D02*
X128230380Y-67826000D01*
X128373238Y-67921238D01*
X128468476Y-68016476D01*
X128516095Y-68111714D01*
X67300104Y-79364019D02*
X67300104Y-79431362D01*
X67232760Y-79566049D01*
X67165417Y-79633393D01*
X67030729Y-79700736D01*
X66896042Y-79700736D01*
X66795027Y-79667065D01*
X66626668Y-79566049D01*
X66525653Y-79465034D01*
X66424638Y-79296675D01*
X66390966Y-79195660D01*
X66390966Y-79060973D01*
X66458310Y-78926286D01*
X66525653Y-78858942D01*
X66660340Y-78791599D01*
X66727684Y-78791599D01*
X68040882Y-78757927D02*
X67636821Y-79161988D01*
X67838852Y-78959958D02*
X67131745Y-78252851D01*
X67165417Y-78421210D01*
X67165417Y-78555897D01*
X67131745Y-78656912D01*
X118114374Y-81320229D02*
X117541954Y-81219214D01*
X117710313Y-81724290D02*
X117003206Y-81017184D01*
X117272580Y-80747809D01*
X117373595Y-80714138D01*
X117440939Y-80714138D01*
X117541954Y-80747809D01*
X117642969Y-80848825D01*
X117676641Y-80949840D01*
X117676641Y-81017184D01*
X117642969Y-81118199D01*
X117373595Y-81387573D01*
X118787809Y-80646794D02*
X118383748Y-81050855D01*
X118585779Y-80848825D02*
X117878672Y-80141718D01*
X117912344Y-80310077D01*
X117912344Y-80444764D01*
X117878672Y-80545779D01*
X77470095Y-97242380D02*
X77470095Y-98051904D01*
X77517714Y-98147142D01*
X77565333Y-98194761D01*
X77660571Y-98242380D01*
X77851047Y-98242380D01*
X77946285Y-98194761D01*
X77993904Y-98147142D01*
X78041523Y-98051904D01*
X78041523Y-97242380D01*
X79041523Y-98242380D02*
X78470095Y-98242380D01*
X78755809Y-98242380D02*
X78755809Y-97242380D01*
X78660571Y-97385238D01*
X78565333Y-97480476D01*
X78470095Y-97528095D01*
X96464380Y-109958095D02*
X95464380Y-109958095D01*
X95464380Y-109720000D01*
X95512000Y-109577142D01*
X95607238Y-109481904D01*
X95702476Y-109434285D01*
X95892952Y-109386666D01*
X96035809Y-109386666D01*
X96226285Y-109434285D01*
X96321523Y-109481904D01*
X96416761Y-109577142D01*
X96464380Y-109720000D01*
X96464380Y-109958095D01*
X95464380Y-108767619D02*
X95464380Y-108672380D01*
X95512000Y-108577142D01*
X95559619Y-108529523D01*
X95654857Y-108481904D01*
X95845333Y-108434285D01*
X96083428Y-108434285D01*
X96273904Y-108481904D01*
X96369142Y-108529523D01*
X96416761Y-108577142D01*
X96464380Y-108672380D01*
X96464380Y-108767619D01*
X96416761Y-108862857D01*
X96369142Y-108910476D01*
X96273904Y-108958095D01*
X96083428Y-109005714D01*
X95845333Y-109005714D01*
X95654857Y-108958095D01*
X95559619Y-108910476D01*
X95512000Y-108862857D01*
X95464380Y-108767619D01*
X93924380Y-109958095D02*
X92924380Y-109958095D01*
X92924380Y-109720000D01*
X92972000Y-109577142D01*
X93067238Y-109481904D01*
X93162476Y-109434285D01*
X93352952Y-109386666D01*
X93495809Y-109386666D01*
X93686285Y-109434285D01*
X93781523Y-109481904D01*
X93876761Y-109577142D01*
X93924380Y-109720000D01*
X93924380Y-109958095D01*
X93924380Y-108434285D02*
X93924380Y-109005714D01*
X93924380Y-108720000D02*
X92924380Y-108720000D01*
X93067238Y-108815238D01*
X93162476Y-108910476D01*
X93210095Y-109005714D01*
X91384380Y-109958095D02*
X90384380Y-109958095D01*
X90384380Y-109720000D01*
X90432000Y-109577142D01*
X90527238Y-109481904D01*
X90622476Y-109434285D01*
X90812952Y-109386666D01*
X90955809Y-109386666D01*
X91146285Y-109434285D01*
X91241523Y-109481904D01*
X91336761Y-109577142D01*
X91384380Y-109720000D01*
X91384380Y-109958095D01*
X90479619Y-109005714D02*
X90432000Y-108958095D01*
X90384380Y-108862857D01*
X90384380Y-108624761D01*
X90432000Y-108529523D01*
X90479619Y-108481904D01*
X90574857Y-108434285D01*
X90670095Y-108434285D01*
X90812952Y-108481904D01*
X91384380Y-109053333D01*
X91384380Y-108434285D01*
X88844380Y-109958095D02*
X87844380Y-109958095D01*
X87844380Y-109720000D01*
X87892000Y-109577142D01*
X87987238Y-109481904D01*
X88082476Y-109434285D01*
X88272952Y-109386666D01*
X88415809Y-109386666D01*
X88606285Y-109434285D01*
X88701523Y-109481904D01*
X88796761Y-109577142D01*
X88844380Y-109720000D01*
X88844380Y-109958095D01*
X87844380Y-109053333D02*
X87844380Y-108434285D01*
X88225333Y-108767619D01*
X88225333Y-108624761D01*
X88272952Y-108529523D01*
X88320571Y-108481904D01*
X88415809Y-108434285D01*
X88653904Y-108434285D01*
X88749142Y-108481904D01*
X88796761Y-108529523D01*
X88844380Y-108624761D01*
X88844380Y-108910476D01*
X88796761Y-109005714D01*
X88749142Y-109053333D01*
X86304380Y-109958095D02*
X85304380Y-109958095D01*
X85304380Y-109720000D01*
X85352000Y-109577142D01*
X85447238Y-109481904D01*
X85542476Y-109434285D01*
X85732952Y-109386666D01*
X85875809Y-109386666D01*
X86066285Y-109434285D01*
X86161523Y-109481904D01*
X86256761Y-109577142D01*
X86304380Y-109720000D01*
X86304380Y-109958095D01*
X85637714Y-108529523D02*
X86304380Y-108529523D01*
X85256761Y-108767619D02*
X85971047Y-109005714D01*
X85971047Y-108386666D01*
X82764380Y-109981904D02*
X82764380Y-109362857D01*
X83145333Y-109696190D01*
X83145333Y-109553333D01*
X83192952Y-109458095D01*
X83240571Y-109410476D01*
X83335809Y-109362857D01*
X83573904Y-109362857D01*
X83669142Y-109410476D01*
X83716761Y-109458095D01*
X83764380Y-109553333D01*
X83764380Y-109839047D01*
X83716761Y-109934285D01*
X83669142Y-109981904D01*
X82764380Y-109077142D02*
X83764380Y-108743809D01*
X82764380Y-108410476D01*
X80272000Y-108958095D02*
X80224380Y-109053333D01*
X80224380Y-109196190D01*
X80272000Y-109339047D01*
X80367238Y-109434285D01*
X80462476Y-109481904D01*
X80652952Y-109529523D01*
X80795809Y-109529523D01*
X80986285Y-109481904D01*
X81081523Y-109434285D01*
X81176761Y-109339047D01*
X81224380Y-109196190D01*
X81224380Y-109100952D01*
X81176761Y-108958095D01*
X81129142Y-108910476D01*
X80795809Y-108910476D01*
X80795809Y-109100952D01*
X78684380Y-109958095D02*
X77684380Y-109958095D01*
X77684380Y-109720000D01*
X77732000Y-109577142D01*
X77827238Y-109481904D01*
X77922476Y-109434285D01*
X78112952Y-109386666D01*
X78255809Y-109386666D01*
X78446285Y-109434285D01*
X78541523Y-109481904D01*
X78636761Y-109577142D01*
X78684380Y-109720000D01*
X78684380Y-109958095D01*
X77684380Y-108481904D02*
X77684380Y-108958095D01*
X78160571Y-109005714D01*
X78112952Y-108958095D01*
X78065333Y-108862857D01*
X78065333Y-108624761D01*
X78112952Y-108529523D01*
X78160571Y-108481904D01*
X78255809Y-108434285D01*
X78493904Y-108434285D01*
X78589142Y-108481904D01*
X78636761Y-108529523D01*
X78684380Y-108624761D01*
X78684380Y-108862857D01*
X78636761Y-108958095D01*
X78589142Y-109005714D01*
X76144380Y-109958095D02*
X75144380Y-109958095D01*
X75144380Y-109720000D01*
X75192000Y-109577142D01*
X75287238Y-109481904D01*
X75382476Y-109434285D01*
X75572952Y-109386666D01*
X75715809Y-109386666D01*
X75906285Y-109434285D01*
X76001523Y-109481904D01*
X76096761Y-109577142D01*
X76144380Y-109720000D01*
X76144380Y-109958095D01*
X75144380Y-108529523D02*
X75144380Y-108720000D01*
X75192000Y-108815238D01*
X75239619Y-108862857D01*
X75382476Y-108958095D01*
X75572952Y-109005714D01*
X75953904Y-109005714D01*
X76049142Y-108958095D01*
X76096761Y-108910476D01*
X76144380Y-108815238D01*
X76144380Y-108624761D01*
X76096761Y-108529523D01*
X76049142Y-108481904D01*
X75953904Y-108434285D01*
X75715809Y-108434285D01*
X75620571Y-108481904D01*
X75572952Y-108529523D01*
X75525333Y-108624761D01*
X75525333Y-108815238D01*
X75572952Y-108910476D01*
X75620571Y-108958095D01*
X75715809Y-109005714D01*
X73604380Y-109958095D02*
X72604380Y-109958095D01*
X72604380Y-109720000D01*
X72652000Y-109577142D01*
X72747238Y-109481904D01*
X72842476Y-109434285D01*
X73032952Y-109386666D01*
X73175809Y-109386666D01*
X73366285Y-109434285D01*
X73461523Y-109481904D01*
X73556761Y-109577142D01*
X73604380Y-109720000D01*
X73604380Y-109958095D01*
X72604380Y-109053333D02*
X72604380Y-108386666D01*
X73604380Y-108815238D01*
X71064380Y-109958095D02*
X70064380Y-109958095D01*
X70064380Y-109720000D01*
X70112000Y-109577142D01*
X70207238Y-109481904D01*
X70302476Y-109434285D01*
X70492952Y-109386666D01*
X70635809Y-109386666D01*
X70826285Y-109434285D01*
X70921523Y-109481904D01*
X71016761Y-109577142D01*
X71064380Y-109720000D01*
X71064380Y-109958095D01*
X70492952Y-108815238D02*
X70445333Y-108910476D01*
X70397714Y-108958095D01*
X70302476Y-109005714D01*
X70254857Y-109005714D01*
X70159619Y-108958095D01*
X70112000Y-108910476D01*
X70064380Y-108815238D01*
X70064380Y-108624761D01*
X70112000Y-108529523D01*
X70159619Y-108481904D01*
X70254857Y-108434285D01*
X70302476Y-108434285D01*
X70397714Y-108481904D01*
X70445333Y-108529523D01*
X70492952Y-108624761D01*
X70492952Y-108815238D01*
X70540571Y-108910476D01*
X70588190Y-108958095D01*
X70683428Y-109005714D01*
X70873904Y-109005714D01*
X70969142Y-108958095D01*
X71016761Y-108910476D01*
X71064380Y-108815238D01*
X71064380Y-108624761D01*
X71016761Y-108529523D01*
X70969142Y-108481904D01*
X70873904Y-108434285D01*
X70683428Y-108434285D01*
X70588190Y-108481904D01*
X70540571Y-108529523D01*
X70492952Y-108624761D01*
X68524380Y-109386666D02*
X68048190Y-109720000D01*
X68524380Y-109958095D02*
X67524380Y-109958095D01*
X67524380Y-109577142D01*
X67572000Y-109481904D01*
X67619619Y-109434285D01*
X67714857Y-109386666D01*
X67857714Y-109386666D01*
X67952952Y-109434285D01*
X68000571Y-109481904D01*
X68048190Y-109577142D01*
X68048190Y-109958095D01*
X67524380Y-109053333D02*
X68524380Y-108386666D01*
X67524380Y-108386666D02*
X68524380Y-109053333D01*
X64984380Y-109981904D02*
X64984380Y-109410476D01*
X65984380Y-109696190D02*
X64984380Y-109696190D01*
X64984380Y-109172380D02*
X65984380Y-108505714D01*
X64984380Y-108505714D02*
X65984380Y-109172380D01*
X62492000Y-108958095D02*
X62444380Y-109053333D01*
X62444380Y-109196190D01*
X62492000Y-109339047D01*
X62587238Y-109434285D01*
X62682476Y-109481904D01*
X62872952Y-109529523D01*
X63015809Y-109529523D01*
X63206285Y-109481904D01*
X63301523Y-109434285D01*
X63396761Y-109339047D01*
X63444380Y-109196190D01*
X63444380Y-109100952D01*
X63396761Y-108958095D01*
X63349142Y-108910476D01*
X63015809Y-108910476D01*
X63015809Y-109100952D01*
X59904380Y-109981904D02*
X59904380Y-109362857D01*
X60285333Y-109696190D01*
X60285333Y-109553333D01*
X60332952Y-109458095D01*
X60380571Y-109410476D01*
X60475809Y-109362857D01*
X60713904Y-109362857D01*
X60809142Y-109410476D01*
X60856761Y-109458095D01*
X60904380Y-109553333D01*
X60904380Y-109839047D01*
X60856761Y-109934285D01*
X60809142Y-109981904D01*
X59904380Y-109077142D02*
X60904380Y-108743809D01*
X59904380Y-108410476D01*
X96178666Y-87074285D02*
X96178666Y-86598095D01*
X96464380Y-87169523D02*
X95464380Y-86836190D01*
X96464380Y-86502857D01*
X95464380Y-85979047D02*
X95464380Y-85883809D01*
X95512000Y-85788571D01*
X95559619Y-85740952D01*
X95654857Y-85693333D01*
X95845333Y-85645714D01*
X96083428Y-85645714D01*
X96273904Y-85693333D01*
X96369142Y-85740952D01*
X96416761Y-85788571D01*
X96464380Y-85883809D01*
X96464380Y-85979047D01*
X96416761Y-86074285D01*
X96369142Y-86121904D01*
X96273904Y-86169523D01*
X96083428Y-86217142D01*
X95845333Y-86217142D01*
X95654857Y-86169523D01*
X95559619Y-86121904D01*
X95512000Y-86074285D01*
X95464380Y-85979047D01*
X92972000Y-86098095D02*
X92924380Y-86193333D01*
X92924380Y-86336190D01*
X92972000Y-86479047D01*
X93067238Y-86574285D01*
X93162476Y-86621904D01*
X93352952Y-86669523D01*
X93495809Y-86669523D01*
X93686285Y-86621904D01*
X93781523Y-86574285D01*
X93876761Y-86479047D01*
X93924380Y-86336190D01*
X93924380Y-86240952D01*
X93876761Y-86098095D01*
X93829142Y-86050476D01*
X93495809Y-86050476D01*
X93495809Y-86240952D01*
X90384380Y-87217142D02*
X91384380Y-86883809D01*
X90384380Y-86550476D01*
X90384380Y-86217142D02*
X91193904Y-86217142D01*
X91289142Y-86169523D01*
X91336761Y-86121904D01*
X91384380Y-86026666D01*
X91384380Y-85836190D01*
X91336761Y-85740952D01*
X91289142Y-85693333D01*
X91193904Y-85645714D01*
X90384380Y-85645714D01*
X88796761Y-87121904D02*
X88844380Y-86979047D01*
X88844380Y-86740952D01*
X88796761Y-86645714D01*
X88749142Y-86598095D01*
X88653904Y-86550476D01*
X88558666Y-86550476D01*
X88463428Y-86598095D01*
X88415809Y-86645714D01*
X88368190Y-86740952D01*
X88320571Y-86931428D01*
X88272952Y-87026666D01*
X88225333Y-87074285D01*
X88130095Y-87121904D01*
X88034857Y-87121904D01*
X87939619Y-87074285D01*
X87892000Y-87026666D01*
X87844380Y-86931428D01*
X87844380Y-86693333D01*
X87892000Y-86550476D01*
X87844380Y-86217142D02*
X87844380Y-85598095D01*
X88225333Y-85931428D01*
X88225333Y-85788571D01*
X88272952Y-85693333D01*
X88320571Y-85645714D01*
X88415809Y-85598095D01*
X88653904Y-85598095D01*
X88749142Y-85645714D01*
X88796761Y-85693333D01*
X88844380Y-85788571D01*
X88844380Y-86074285D01*
X88796761Y-86169523D01*
X88749142Y-86217142D01*
X86256761Y-87121904D02*
X86304380Y-86979047D01*
X86304380Y-86740952D01*
X86256761Y-86645714D01*
X86209142Y-86598095D01*
X86113904Y-86550476D01*
X86018666Y-86550476D01*
X85923428Y-86598095D01*
X85875809Y-86645714D01*
X85828190Y-86740952D01*
X85780571Y-86931428D01*
X85732952Y-87026666D01*
X85685333Y-87074285D01*
X85590095Y-87121904D01*
X85494857Y-87121904D01*
X85399619Y-87074285D01*
X85352000Y-87026666D01*
X85304380Y-86931428D01*
X85304380Y-86693333D01*
X85352000Y-86550476D01*
X85399619Y-86169523D02*
X85352000Y-86121904D01*
X85304380Y-86026666D01*
X85304380Y-85788571D01*
X85352000Y-85693333D01*
X85399619Y-85645714D01*
X85494857Y-85598095D01*
X85590095Y-85598095D01*
X85732952Y-85645714D01*
X86304380Y-86217142D01*
X86304380Y-85598095D01*
X83716761Y-87121904D02*
X83764380Y-86979047D01*
X83764380Y-86740952D01*
X83716761Y-86645714D01*
X83669142Y-86598095D01*
X83573904Y-86550476D01*
X83478666Y-86550476D01*
X83383428Y-86598095D01*
X83335809Y-86645714D01*
X83288190Y-86740952D01*
X83240571Y-86931428D01*
X83192952Y-87026666D01*
X83145333Y-87074285D01*
X83050095Y-87121904D01*
X82954857Y-87121904D01*
X82859619Y-87074285D01*
X82812000Y-87026666D01*
X82764380Y-86931428D01*
X82764380Y-86693333D01*
X82812000Y-86550476D01*
X83764380Y-85598095D02*
X83764380Y-86169523D01*
X83764380Y-85883809D02*
X82764380Y-85883809D01*
X82907238Y-85979047D01*
X83002476Y-86074285D01*
X83050095Y-86169523D01*
X81176761Y-87145714D02*
X81224380Y-87002857D01*
X81224380Y-86764761D01*
X81176761Y-86669523D01*
X81129142Y-86621904D01*
X81033904Y-86574285D01*
X80938666Y-86574285D01*
X80843428Y-86621904D01*
X80795809Y-86669523D01*
X80748190Y-86764761D01*
X80700571Y-86955238D01*
X80652952Y-87050476D01*
X80605333Y-87098095D01*
X80510095Y-87145714D01*
X80414857Y-87145714D01*
X80319619Y-87098095D01*
X80272000Y-87050476D01*
X80224380Y-86955238D01*
X80224380Y-86717142D01*
X80272000Y-86574285D01*
X81129142Y-85574285D02*
X81176761Y-85621904D01*
X81224380Y-85764761D01*
X81224380Y-85860000D01*
X81176761Y-86002857D01*
X81081523Y-86098095D01*
X80986285Y-86145714D01*
X80795809Y-86193333D01*
X80652952Y-86193333D01*
X80462476Y-86145714D01*
X80367238Y-86098095D01*
X80272000Y-86002857D01*
X80224380Y-85860000D01*
X80224380Y-85764761D01*
X80272000Y-85621904D01*
X80319619Y-85574285D01*
X78636761Y-87169523D02*
X78684380Y-87026666D01*
X78684380Y-86788571D01*
X78636761Y-86693333D01*
X78589142Y-86645714D01*
X78493904Y-86598095D01*
X78398666Y-86598095D01*
X78303428Y-86645714D01*
X78255809Y-86693333D01*
X78208190Y-86788571D01*
X78160571Y-86979047D01*
X78112952Y-87074285D01*
X78065333Y-87121904D01*
X77970095Y-87169523D01*
X77874857Y-87169523D01*
X77779619Y-87121904D01*
X77732000Y-87074285D01*
X77684380Y-86979047D01*
X77684380Y-86740952D01*
X77732000Y-86598095D01*
X77684380Y-85979047D02*
X77684380Y-85788571D01*
X77732000Y-85693333D01*
X77827238Y-85598095D01*
X78017714Y-85550476D01*
X78351047Y-85550476D01*
X78541523Y-85598095D01*
X78636761Y-85693333D01*
X78684380Y-85788571D01*
X78684380Y-85979047D01*
X78636761Y-86074285D01*
X78541523Y-86169523D01*
X78351047Y-86217142D01*
X78017714Y-86217142D01*
X77827238Y-86169523D01*
X77732000Y-86074285D01*
X77684380Y-85979047D01*
X76096761Y-87145714D02*
X76144380Y-87002857D01*
X76144380Y-86764761D01*
X76096761Y-86669523D01*
X76049142Y-86621904D01*
X75953904Y-86574285D01*
X75858666Y-86574285D01*
X75763428Y-86621904D01*
X75715809Y-86669523D01*
X75668190Y-86764761D01*
X75620571Y-86955238D01*
X75572952Y-87050476D01*
X75525333Y-87098095D01*
X75430095Y-87145714D01*
X75334857Y-87145714D01*
X75239619Y-87098095D01*
X75192000Y-87050476D01*
X75144380Y-86955238D01*
X75144380Y-86717142D01*
X75192000Y-86574285D01*
X76144380Y-86145714D02*
X75144380Y-86145714D01*
X76144380Y-85574285D02*
X75572952Y-86002857D01*
X75144380Y-85574285D02*
X75715809Y-86145714D01*
X72652000Y-86098095D02*
X72604380Y-86193333D01*
X72604380Y-86336190D01*
X72652000Y-86479047D01*
X72747238Y-86574285D01*
X72842476Y-86621904D01*
X73032952Y-86669523D01*
X73175809Y-86669523D01*
X73366285Y-86621904D01*
X73461523Y-86574285D01*
X73556761Y-86479047D01*
X73604380Y-86336190D01*
X73604380Y-86240952D01*
X73556761Y-86098095D01*
X73509142Y-86050476D01*
X73175809Y-86050476D01*
X73175809Y-86240952D01*
X70064380Y-87121904D02*
X70064380Y-86502857D01*
X70445333Y-86836190D01*
X70445333Y-86693333D01*
X70492952Y-86598095D01*
X70540571Y-86550476D01*
X70635809Y-86502857D01*
X70873904Y-86502857D01*
X70969142Y-86550476D01*
X71016761Y-86598095D01*
X71064380Y-86693333D01*
X71064380Y-86979047D01*
X71016761Y-87074285D01*
X70969142Y-87121904D01*
X70064380Y-86217142D02*
X71064380Y-85883809D01*
X70064380Y-85550476D01*
X68000571Y-87098095D02*
X68000571Y-86764761D01*
X68524380Y-86621904D02*
X68524380Y-87098095D01*
X67524380Y-87098095D01*
X67524380Y-86621904D01*
X68524380Y-86193333D02*
X67524380Y-86193333D01*
X68524380Y-85621904D01*
X67524380Y-85621904D01*
X65984380Y-86907619D02*
X65508190Y-87240952D01*
X65984380Y-87479047D02*
X64984380Y-87479047D01*
X64984380Y-87098095D01*
X65032000Y-87002857D01*
X65079619Y-86955238D01*
X65174857Y-86907619D01*
X65317714Y-86907619D01*
X65412952Y-86955238D01*
X65460571Y-87002857D01*
X65508190Y-87098095D01*
X65508190Y-87479047D01*
X65936761Y-86526666D02*
X65984380Y-86383809D01*
X65984380Y-86145714D01*
X65936761Y-86050476D01*
X65889142Y-86002857D01*
X65793904Y-85955238D01*
X65698666Y-85955238D01*
X65603428Y-86002857D01*
X65555809Y-86050476D01*
X65508190Y-86145714D01*
X65460571Y-86336190D01*
X65412952Y-86431428D01*
X65365333Y-86479047D01*
X65270095Y-86526666D01*
X65174857Y-86526666D01*
X65079619Y-86479047D01*
X65032000Y-86431428D01*
X64984380Y-86336190D01*
X64984380Y-86098095D01*
X65032000Y-85955238D01*
X64984380Y-85669523D02*
X64984380Y-85098095D01*
X65984380Y-85383809D02*
X64984380Y-85383809D01*
X62492000Y-86098095D02*
X62444380Y-86193333D01*
X62444380Y-86336190D01*
X62492000Y-86479047D01*
X62587238Y-86574285D01*
X62682476Y-86621904D01*
X62872952Y-86669523D01*
X63015809Y-86669523D01*
X63206285Y-86621904D01*
X63301523Y-86574285D01*
X63396761Y-86479047D01*
X63444380Y-86336190D01*
X63444380Y-86240952D01*
X63396761Y-86098095D01*
X63349142Y-86050476D01*
X63015809Y-86050476D01*
X63015809Y-86240952D01*
X59904380Y-87455238D02*
X60904380Y-87121904D01*
X59904380Y-86788571D01*
X60904380Y-86455238D02*
X59904380Y-86455238D01*
X60904380Y-85979047D02*
X59904380Y-85979047D01*
X60904380Y-85407619D01*
X59904380Y-85407619D01*
X99004380Y-101242380D02*
X98528190Y-101575714D01*
X99004380Y-101813809D02*
X98004380Y-101813809D01*
X98004380Y-101432857D01*
X98052000Y-101337619D01*
X98099619Y-101290000D01*
X98194857Y-101242380D01*
X98337714Y-101242380D01*
X98432952Y-101290000D01*
X98480571Y-101337619D01*
X98528190Y-101432857D01*
X98528190Y-101813809D01*
X98480571Y-100480476D02*
X98480571Y-100813809D01*
X99004380Y-100813809D02*
X98004380Y-100813809D01*
X98004380Y-100337619D01*
X98718666Y-99242380D02*
X98718666Y-98766190D01*
X99004380Y-99337619D02*
X98004380Y-99004285D01*
X99004380Y-98670952D01*
X98337714Y-98337619D02*
X99004380Y-98337619D01*
X98432952Y-98337619D02*
X98385333Y-98290000D01*
X98337714Y-98194761D01*
X98337714Y-98051904D01*
X98385333Y-97956666D01*
X98480571Y-97909047D01*
X99004380Y-97909047D01*
X98337714Y-97575714D02*
X98337714Y-97194761D01*
X98004380Y-97432857D02*
X98861523Y-97432857D01*
X98956761Y-97385238D01*
X99004380Y-97290000D01*
X99004380Y-97194761D01*
X98956761Y-96480476D02*
X99004380Y-96575714D01*
X99004380Y-96766190D01*
X98956761Y-96861428D01*
X98861523Y-96909047D01*
X98480571Y-96909047D01*
X98385333Y-96861428D01*
X98337714Y-96766190D01*
X98337714Y-96575714D01*
X98385333Y-96480476D01*
X98480571Y-96432857D01*
X98575809Y-96432857D01*
X98671047Y-96909047D01*
X98337714Y-96004285D02*
X99004380Y-96004285D01*
X98432952Y-96004285D02*
X98385333Y-95956666D01*
X98337714Y-95861428D01*
X98337714Y-95718571D01*
X98385333Y-95623333D01*
X98480571Y-95575714D01*
X99004380Y-95575714D01*
X98337714Y-95099523D02*
X99004380Y-95099523D01*
X98432952Y-95099523D02*
X98385333Y-95051904D01*
X98337714Y-94956666D01*
X98337714Y-94813809D01*
X98385333Y-94718571D01*
X98480571Y-94670952D01*
X99004380Y-94670952D01*
X99004380Y-93766190D02*
X98480571Y-93766190D01*
X98385333Y-93813809D01*
X98337714Y-93909047D01*
X98337714Y-94099523D01*
X98385333Y-94194761D01*
X98956761Y-93766190D02*
X99004380Y-93861428D01*
X99004380Y-94099523D01*
X98956761Y-94194761D01*
X98861523Y-94242380D01*
X98766285Y-94242380D01*
X98671047Y-94194761D01*
X98623428Y-94099523D01*
X98623428Y-93861428D01*
X98575809Y-93766190D01*
X54824380Y-99051904D02*
X55633904Y-99051904D01*
X55729142Y-99004285D01*
X55776761Y-98956666D01*
X55824380Y-98861428D01*
X55824380Y-98670952D01*
X55776761Y-98575714D01*
X55729142Y-98528095D01*
X55633904Y-98480476D01*
X54824380Y-98480476D01*
X55776761Y-98051904D02*
X55824380Y-97909047D01*
X55824380Y-97670952D01*
X55776761Y-97575714D01*
X55729142Y-97528095D01*
X55633904Y-97480476D01*
X55538666Y-97480476D01*
X55443428Y-97528095D01*
X55395809Y-97575714D01*
X55348190Y-97670952D01*
X55300571Y-97861428D01*
X55252952Y-97956666D01*
X55205333Y-98004285D01*
X55110095Y-98051904D01*
X55014857Y-98051904D01*
X54919619Y-98004285D01*
X54872000Y-97956666D01*
X54824380Y-97861428D01*
X54824380Y-97623333D01*
X54872000Y-97480476D01*
X55300571Y-96718571D02*
X55348190Y-96575714D01*
X55395809Y-96528095D01*
X55491047Y-96480476D01*
X55633904Y-96480476D01*
X55729142Y-96528095D01*
X55776761Y-96575714D01*
X55824380Y-96670952D01*
X55824380Y-97051904D01*
X54824380Y-97051904D01*
X54824380Y-96718571D01*
X54872000Y-96623333D01*
X54919619Y-96575714D01*
X55014857Y-96528095D01*
X55110095Y-96528095D01*
X55205333Y-96575714D01*
X55252952Y-96623333D01*
X55300571Y-96718571D01*
X55300571Y-97051904D01*
X90741714Y-60650380D02*
X90741714Y-59650380D01*
X91075047Y-60364666D01*
X91408380Y-59650380D01*
X91408380Y-60650380D01*
X92027428Y-60650380D02*
X91932190Y-60602761D01*
X91884571Y-60555142D01*
X91836952Y-60459904D01*
X91836952Y-60174190D01*
X91884571Y-60078952D01*
X91932190Y-60031333D01*
X92027428Y-59983714D01*
X92170285Y-59983714D01*
X92265523Y-60031333D01*
X92313142Y-60078952D01*
X92360761Y-60174190D01*
X92360761Y-60459904D01*
X92313142Y-60555142D01*
X92265523Y-60602761D01*
X92170285Y-60650380D01*
X92027428Y-60650380D01*
X93217904Y-60650380D02*
X93217904Y-59650380D01*
X93217904Y-60602761D02*
X93122666Y-60650380D01*
X92932190Y-60650380D01*
X92836952Y-60602761D01*
X92789333Y-60555142D01*
X92741714Y-60459904D01*
X92741714Y-60174190D01*
X92789333Y-60078952D01*
X92836952Y-60031333D01*
X92932190Y-59983714D01*
X93122666Y-59983714D01*
X93217904Y-60031333D01*
X94217904Y-60650380D02*
X93646476Y-60650380D01*
X93932190Y-60650380D02*
X93932190Y-59650380D01*
X93836952Y-59793238D01*
X93741714Y-59888476D01*
X93646476Y-59936095D01*
X72136095Y-75700000D02*
X72040857Y-75652380D01*
X71898000Y-75652380D01*
X71755142Y-75700000D01*
X71659904Y-75795238D01*
X71612285Y-75890476D01*
X71564666Y-76080952D01*
X71564666Y-76223809D01*
X71612285Y-76414285D01*
X71659904Y-76509523D01*
X71755142Y-76604761D01*
X71898000Y-76652380D01*
X71993238Y-76652380D01*
X72136095Y-76604761D01*
X72183714Y-76557142D01*
X72183714Y-76223809D01*
X71993238Y-76223809D01*
X72612285Y-76652380D02*
X72612285Y-75652380D01*
X73183714Y-76652380D01*
X73183714Y-75652380D01*
X73659904Y-76652380D02*
X73659904Y-75652380D01*
X73898000Y-75652380D01*
X74040857Y-75700000D01*
X74136095Y-75795238D01*
X74183714Y-75890476D01*
X74231333Y-76080952D01*
X74231333Y-76223809D01*
X74183714Y-76414285D01*
X74136095Y-76509523D01*
X74040857Y-76604761D01*
X73898000Y-76652380D01*
X73659904Y-76652380D01*
X108966190Y-59142380D02*
X109299523Y-60142380D01*
X109632857Y-59142380D01*
X110109047Y-60142380D02*
X110013809Y-60094761D01*
X109966190Y-60047142D01*
X109918571Y-59951904D01*
X109918571Y-59666190D01*
X109966190Y-59570952D01*
X110013809Y-59523333D01*
X110109047Y-59475714D01*
X110251904Y-59475714D01*
X110347142Y-59523333D01*
X110394761Y-59570952D01*
X110442380Y-59666190D01*
X110442380Y-59951904D01*
X110394761Y-60047142D01*
X110347142Y-60094761D01*
X110251904Y-60142380D01*
X110109047Y-60142380D01*
X111299523Y-59475714D02*
X111299523Y-60142380D01*
X110870952Y-59475714D02*
X110870952Y-59999523D01*
X110918571Y-60094761D01*
X111013809Y-60142380D01*
X111156666Y-60142380D01*
X111251904Y-60094761D01*
X111299523Y-60047142D01*
X111632857Y-59475714D02*
X112013809Y-59475714D01*
X111775714Y-59142380D02*
X111775714Y-59999523D01*
X111823333Y-60094761D01*
X111918571Y-60142380D01*
X112013809Y-60142380D01*
X72136095Y-75700000D02*
X72040857Y-75652380D01*
X71898000Y-75652380D01*
X71755142Y-75700000D01*
X71659904Y-75795238D01*
X71612285Y-75890476D01*
X71564666Y-76080952D01*
X71564666Y-76223809D01*
X71612285Y-76414285D01*
X71659904Y-76509523D01*
X71755142Y-76604761D01*
X71898000Y-76652380D01*
X71993238Y-76652380D01*
X72136095Y-76604761D01*
X72183714Y-76557142D01*
X72183714Y-76223809D01*
X71993238Y-76223809D01*
X72612285Y-76652380D02*
X72612285Y-75652380D01*
X73183714Y-76652380D01*
X73183714Y-75652380D01*
X73659904Y-76652380D02*
X73659904Y-75652380D01*
X73898000Y-75652380D01*
X74040857Y-75700000D01*
X74136095Y-75795238D01*
X74183714Y-75890476D01*
X74231333Y-76080952D01*
X74231333Y-76223809D01*
X74183714Y-76414285D01*
X74136095Y-76509523D01*
X74040857Y-76604761D01*
X73898000Y-76652380D01*
X73659904Y-76652380D01*
X73144190Y-58888380D02*
X73477523Y-59888380D01*
X73810857Y-58888380D01*
X74144190Y-59888380D02*
X74144190Y-59221714D01*
X74144190Y-58888380D02*
X74096571Y-58936000D01*
X74144190Y-58983619D01*
X74191809Y-58936000D01*
X74144190Y-58888380D01*
X74144190Y-58983619D01*
X74620380Y-59221714D02*
X74620380Y-59888380D01*
X74620380Y-59316952D02*
X74668000Y-59269333D01*
X74763238Y-59221714D01*
X74906095Y-59221714D01*
X75001333Y-59269333D01*
X75048952Y-59364571D01*
X75048952Y-59888380D01*
M02*
