M48
; DRILL file {KiCad (5.1.2-1)-1} date Friday, May 31, 2019 at 04:35:09 PM
; FORMAT={-:-/ absolute / metric / decimal}
; #@! TF.CreationDate,2019-05-31T16:35:09-04:00
; #@! TF.GenerationSoftware,Kicad,Pcbnew,(5.1.2-1)-1
FMAT,2
METRIC
T1C0.600
T2C0.762
T3C0.800
T4C1.000
T5C1.501
%
G90
G05
T1
X64.118Y-77.36
X65.532Y-75.946
T2
X71.628Y-58.42
X71.628Y-78.486
X113.284Y-58.42
X113.284Y-78.486
X60.452Y-83.82
X60.452Y-111.76
X62.992Y-83.82
X62.992Y-111.76
X65.532Y-83.82
X65.532Y-111.76
X68.072Y-83.82
X68.072Y-111.76
X70.612Y-83.82
X70.612Y-111.76
X73.152Y-83.82
X73.152Y-111.76
X75.692Y-83.82
X75.692Y-111.76
X78.232Y-83.82
X78.232Y-111.76
X80.772Y-83.82
X80.772Y-111.76
X83.312Y-83.82
X83.312Y-111.76
X85.852Y-83.82
X85.852Y-111.76
X88.392Y-83.82
X88.392Y-111.76
X90.932Y-83.82
X90.932Y-111.76
X93.472Y-83.82
X93.472Y-111.76
X96.012Y-83.82
X96.012Y-111.76
X113.03Y-93.98
X113.03Y-105.41
X115.57Y-93.98
X115.57Y-105.41
X118.11Y-93.98
X118.11Y-105.41
X120.65Y-93.98
X120.65Y-105.41
X123.19Y-93.98
X123.19Y-105.41
X125.73Y-93.98
X125.73Y-105.41
T3
X114.5Y-82.858
X119.888Y-77.47
T5
X125.984Y-63.881
X125.984Y-68.326
X125.984Y-72.771
T4
G00X59.786Y-61.484
M15
G01X59.786Y-63.484
M16
G05
G00X61.786Y-67.184
M15
G01X63.786Y-67.184
M16
G05
G00X65.786Y-61.484
M15
G01X65.786Y-63.484
M16
G05
T0
M30
