G04 #@! TF.GenerationSoftware,KiCad,Pcbnew,(5.1.2-1)-1*
G04 #@! TF.CreationDate,2019-05-31T16:35:32-04:00*
G04 #@! TF.ProjectId,RubyLights,52756279-4c69-4676-9874-732e6b696361,.5*
G04 #@! TF.SameCoordinates,Original*
G04 #@! TF.FileFunction,Legend,Bot*
G04 #@! TF.FilePolarity,Positive*
%FSLAX46Y46*%
G04 Gerber Fmt 4.6, Leading zero omitted, Abs format (unit mm)*
G04 Created by KiCad (PCBNEW (5.1.2-1)-1) date 2019-05-31 16:35:32*
%MOMM*%
%LPD*%
G04 APERTURE LIST*
%ADD10C,0.150000*%
%ADD11C,0.500000*%
G04 APERTURE END LIST*
D10*
X127412571Y-109259714D02*
X127174476Y-109926380D01*
X126936380Y-109259714D01*
X126031619Y-109926380D02*
X126603047Y-109926380D01*
X126317333Y-109926380D02*
X126317333Y-108926380D01*
X126412571Y-109069238D01*
X126507809Y-109164476D01*
X126603047Y-109212095D01*
X125603047Y-109831142D02*
X125555428Y-109878761D01*
X125603047Y-109926380D01*
X125650666Y-109878761D01*
X125603047Y-109831142D01*
X125603047Y-109926380D01*
X124936380Y-108926380D02*
X124841142Y-108926380D01*
X124745904Y-108974000D01*
X124698285Y-109021619D01*
X124650666Y-109116857D01*
X124603047Y-109307333D01*
X124603047Y-109545428D01*
X124650666Y-109735904D01*
X124698285Y-109831142D01*
X124745904Y-109878761D01*
X124841142Y-109926380D01*
X124936380Y-109926380D01*
X125031619Y-109878761D01*
X125079238Y-109831142D01*
X125126857Y-109735904D01*
X125174476Y-109545428D01*
X125174476Y-109307333D01*
X125126857Y-109116857D01*
X125079238Y-109021619D01*
X125031619Y-108974000D01*
X124936380Y-108926380D01*
X127490380Y-112212380D02*
X127490380Y-111212380D01*
X127061809Y-112212380D02*
X127061809Y-111688571D01*
X127109428Y-111593333D01*
X127204666Y-111545714D01*
X127347523Y-111545714D01*
X127442761Y-111593333D01*
X127490380Y-111640952D01*
X126728476Y-111545714D02*
X126347523Y-111545714D01*
X126585619Y-111212380D02*
X126585619Y-112069523D01*
X126538000Y-112164761D01*
X126442761Y-112212380D01*
X126347523Y-112212380D01*
X126157047Y-111545714D02*
X125776095Y-111545714D01*
X126014190Y-111212380D02*
X126014190Y-112069523D01*
X125966571Y-112164761D01*
X125871333Y-112212380D01*
X125776095Y-112212380D01*
X125442761Y-111545714D02*
X125442761Y-112545714D01*
X125442761Y-111593333D02*
X125347523Y-111545714D01*
X125157047Y-111545714D01*
X125061809Y-111593333D01*
X125014190Y-111640952D01*
X124966571Y-111736190D01*
X124966571Y-112021904D01*
X125014190Y-112117142D01*
X125061809Y-112164761D01*
X125157047Y-112212380D01*
X125347523Y-112212380D01*
X125442761Y-112164761D01*
X124585619Y-112164761D02*
X124490380Y-112212380D01*
X124299904Y-112212380D01*
X124204666Y-112164761D01*
X124157047Y-112069523D01*
X124157047Y-112021904D01*
X124204666Y-111926666D01*
X124299904Y-111879047D01*
X124442761Y-111879047D01*
X124538000Y-111831428D01*
X124585619Y-111736190D01*
X124585619Y-111688571D01*
X124538000Y-111593333D01*
X124442761Y-111545714D01*
X124299904Y-111545714D01*
X124204666Y-111593333D01*
X123728476Y-112117142D02*
X123680857Y-112164761D01*
X123728476Y-112212380D01*
X123776095Y-112164761D01*
X123728476Y-112117142D01*
X123728476Y-112212380D01*
X123728476Y-111593333D02*
X123680857Y-111640952D01*
X123728476Y-111688571D01*
X123776095Y-111640952D01*
X123728476Y-111593333D01*
X123728476Y-111688571D01*
X122538000Y-111164761D02*
X123395142Y-112450476D01*
X121490380Y-111164761D02*
X122347523Y-112450476D01*
X121252285Y-111545714D02*
X121061809Y-112212380D01*
X120871333Y-111736190D01*
X120680857Y-112212380D01*
X120490380Y-111545714D01*
X120204666Y-111545714D02*
X120014190Y-112212380D01*
X119823714Y-111736190D01*
X119633238Y-112212380D01*
X119442761Y-111545714D01*
X119157047Y-111545714D02*
X118966571Y-112212380D01*
X118776095Y-111736190D01*
X118585619Y-112212380D01*
X118395142Y-111545714D01*
X118014190Y-112117142D02*
X117966571Y-112164761D01*
X118014190Y-112212380D01*
X118061809Y-112164761D01*
X118014190Y-112117142D01*
X118014190Y-112212380D01*
X117633238Y-111545714D02*
X117442761Y-112212380D01*
X117252285Y-111736190D01*
X117061809Y-112212380D01*
X116871333Y-111545714D01*
X116490380Y-112212380D02*
X116490380Y-111545714D01*
X116490380Y-111736190D02*
X116442761Y-111640952D01*
X116395142Y-111593333D01*
X116299904Y-111545714D01*
X116204666Y-111545714D01*
X115871333Y-112212380D02*
X115871333Y-111545714D01*
X115871333Y-111212380D02*
X115918952Y-111260000D01*
X115871333Y-111307619D01*
X115823714Y-111260000D01*
X115871333Y-111212380D01*
X115871333Y-111307619D01*
X114966571Y-111545714D02*
X114966571Y-112355238D01*
X115014190Y-112450476D01*
X115061809Y-112498095D01*
X115157047Y-112545714D01*
X115299904Y-112545714D01*
X115395142Y-112498095D01*
X114966571Y-112164761D02*
X115061809Y-112212380D01*
X115252285Y-112212380D01*
X115347523Y-112164761D01*
X115395142Y-112117142D01*
X115442761Y-112021904D01*
X115442761Y-111736190D01*
X115395142Y-111640952D01*
X115347523Y-111593333D01*
X115252285Y-111545714D01*
X115061809Y-111545714D01*
X114966571Y-111593333D01*
X114490380Y-112212380D02*
X114490380Y-111212380D01*
X114061809Y-112212380D02*
X114061809Y-111688571D01*
X114109428Y-111593333D01*
X114204666Y-111545714D01*
X114347523Y-111545714D01*
X114442761Y-111593333D01*
X114490380Y-111640952D01*
X113728476Y-111545714D02*
X113347523Y-111545714D01*
X113585619Y-111212380D02*
X113585619Y-112069523D01*
X113538000Y-112164761D01*
X113442761Y-112212380D01*
X113347523Y-112212380D01*
X113014190Y-112212380D02*
X113014190Y-111545714D01*
X113014190Y-111640952D02*
X112966571Y-111593333D01*
X112871333Y-111545714D01*
X112728476Y-111545714D01*
X112633238Y-111593333D01*
X112585619Y-111688571D01*
X112585619Y-112212380D01*
X112585619Y-111688571D02*
X112538000Y-111593333D01*
X112442761Y-111545714D01*
X112299904Y-111545714D01*
X112204666Y-111593333D01*
X112157047Y-111688571D01*
X112157047Y-112212380D01*
X111252285Y-112212380D02*
X111252285Y-111688571D01*
X111299904Y-111593333D01*
X111395142Y-111545714D01*
X111585619Y-111545714D01*
X111680857Y-111593333D01*
X111252285Y-112164761D02*
X111347523Y-112212380D01*
X111585619Y-112212380D01*
X111680857Y-112164761D01*
X111728476Y-112069523D01*
X111728476Y-111974285D01*
X111680857Y-111879047D01*
X111585619Y-111831428D01*
X111347523Y-111831428D01*
X111252285Y-111783809D01*
X110347523Y-112164761D02*
X110442761Y-112212380D01*
X110633238Y-112212380D01*
X110728476Y-112164761D01*
X110776095Y-112117142D01*
X110823714Y-112021904D01*
X110823714Y-111736190D01*
X110776095Y-111640952D01*
X110728476Y-111593333D01*
X110633238Y-111545714D01*
X110442761Y-111545714D01*
X110347523Y-111593333D01*
X109918952Y-112117142D02*
X109871333Y-112164761D01*
X109918952Y-112212380D01*
X109966571Y-112164761D01*
X109918952Y-112117142D01*
X109918952Y-112212380D01*
X109442761Y-111545714D02*
X109442761Y-112212380D01*
X109442761Y-111640952D02*
X109395142Y-111593333D01*
X109299904Y-111545714D01*
X109157047Y-111545714D01*
X109061809Y-111593333D01*
X109014190Y-111688571D01*
X109014190Y-112212380D01*
X108157047Y-112164761D02*
X108252285Y-112212380D01*
X108442761Y-112212380D01*
X108538000Y-112164761D01*
X108585619Y-112069523D01*
X108585619Y-111688571D01*
X108538000Y-111593333D01*
X108442761Y-111545714D01*
X108252285Y-111545714D01*
X108157047Y-111593333D01*
X108109428Y-111688571D01*
X108109428Y-111783809D01*
X108585619Y-111879047D01*
X107823714Y-111545714D02*
X107442761Y-111545714D01*
X107680857Y-111212380D02*
X107680857Y-112069523D01*
X107633238Y-112164761D01*
X107538000Y-112212380D01*
X107442761Y-112212380D01*
X105680857Y-111879047D02*
X104823714Y-111879047D01*
X102966571Y-111307619D02*
X102918952Y-111260000D01*
X102823714Y-111212380D01*
X102585619Y-111212380D01*
X102490380Y-111260000D01*
X102442761Y-111307619D01*
X102395142Y-111402857D01*
X102395142Y-111498095D01*
X102442761Y-111640952D01*
X103014190Y-112212380D01*
X102395142Y-112212380D01*
X101776095Y-111212380D02*
X101680857Y-111212380D01*
X101585619Y-111260000D01*
X101538000Y-111307619D01*
X101490380Y-111402857D01*
X101442761Y-111593333D01*
X101442761Y-111831428D01*
X101490380Y-112021904D01*
X101538000Y-112117142D01*
X101585619Y-112164761D01*
X101680857Y-112212380D01*
X101776095Y-112212380D01*
X101871333Y-112164761D01*
X101918952Y-112117142D01*
X101966571Y-112021904D01*
X102014190Y-111831428D01*
X102014190Y-111593333D01*
X101966571Y-111402857D01*
X101918952Y-111307619D01*
X101871333Y-111260000D01*
X101776095Y-111212380D01*
X100490380Y-112212380D02*
X101061809Y-112212380D01*
X100776095Y-112212380D02*
X100776095Y-111212380D01*
X100871333Y-111355238D01*
X100966571Y-111450476D01*
X101061809Y-111498095D01*
X100014190Y-112212380D02*
X99823714Y-112212380D01*
X99728476Y-112164761D01*
X99680857Y-112117142D01*
X99585619Y-111974285D01*
X99538000Y-111783809D01*
X99538000Y-111402857D01*
X99585619Y-111307619D01*
X99633238Y-111260000D01*
X99728476Y-111212380D01*
X99918952Y-111212380D01*
X100014190Y-111260000D01*
X100061809Y-111307619D01*
X100109428Y-111402857D01*
X100109428Y-111640952D01*
X100061809Y-111736190D01*
X100014190Y-111783809D01*
X99918952Y-111831428D01*
X99728476Y-111831428D01*
X99633238Y-111783809D01*
X99585619Y-111736190D01*
X99538000Y-111640952D01*
D11*
X104105523Y-91777523D02*
X105438857Y-89872761D01*
X106391238Y-91777523D02*
X106391238Y-87777523D01*
X104867428Y-87777523D01*
X104486476Y-87968000D01*
X104296000Y-88158476D01*
X104105523Y-88539428D01*
X104105523Y-89110857D01*
X104296000Y-89491809D01*
X104486476Y-89682285D01*
X104867428Y-89872761D01*
X106391238Y-89872761D01*
X100676952Y-89110857D02*
X100676952Y-91777523D01*
X102391238Y-89110857D02*
X102391238Y-91206095D01*
X102200761Y-91587047D01*
X101819809Y-91777523D01*
X101248380Y-91777523D01*
X100867428Y-91587047D01*
X100676952Y-91396571D01*
X98772190Y-91777523D02*
X98772190Y-87777523D01*
X98772190Y-89301333D02*
X98391238Y-89110857D01*
X97629333Y-89110857D01*
X97248380Y-89301333D01*
X97057904Y-89491809D01*
X96867428Y-89872761D01*
X96867428Y-91015619D01*
X97057904Y-91396571D01*
X97248380Y-91587047D01*
X97629333Y-91777523D01*
X98391238Y-91777523D01*
X98772190Y-91587047D01*
X95534095Y-89110857D02*
X94581714Y-91777523D01*
X93629333Y-89110857D02*
X94581714Y-91777523D01*
X94962666Y-92729904D01*
X95153142Y-92920380D01*
X95534095Y-93110857D01*
X91915047Y-87777523D02*
X91915047Y-87968000D01*
X92105523Y-88348952D01*
X92296000Y-88539428D01*
X90391238Y-91587047D02*
X90010285Y-91777523D01*
X89248380Y-91777523D01*
X88867428Y-91587047D01*
X88676952Y-91206095D01*
X88676952Y-91015619D01*
X88867428Y-90634666D01*
X89248380Y-90444190D01*
X89819809Y-90444190D01*
X90200761Y-90253714D01*
X90391238Y-89872761D01*
X90391238Y-89682285D01*
X90200761Y-89301333D01*
X89819809Y-89110857D01*
X89248380Y-89110857D01*
X88867428Y-89301333D01*
X83915047Y-91777523D02*
X83915047Y-87777523D01*
X82200761Y-91777523D02*
X82200761Y-89682285D01*
X82391238Y-89301333D01*
X82772190Y-89110857D01*
X83343619Y-89110857D01*
X83724571Y-89301333D01*
X83915047Y-89491809D01*
X78581714Y-89110857D02*
X78581714Y-91777523D01*
X80296000Y-89110857D02*
X80296000Y-91206095D01*
X80105523Y-91587047D01*
X79724571Y-91777523D01*
X79153142Y-91777523D01*
X78772190Y-91587047D01*
X78581714Y-91396571D01*
X80105523Y-87777523D02*
X79915047Y-87968000D01*
X80105523Y-88158476D01*
X80296000Y-87968000D01*
X80105523Y-87777523D01*
X80105523Y-88158476D01*
X78581714Y-87777523D02*
X78391238Y-87968000D01*
X78581714Y-88158476D01*
X78772190Y-87968000D01*
X78581714Y-87777523D01*
X78581714Y-88158476D01*
X76676952Y-91777523D02*
X76676952Y-87777523D01*
X76676952Y-89301333D02*
X76296000Y-89110857D01*
X75534095Y-89110857D01*
X75153142Y-89301333D01*
X74962666Y-89491809D01*
X74772190Y-89872761D01*
X74772190Y-91015619D01*
X74962666Y-91396571D01*
X75153142Y-91587047D01*
X75534095Y-91777523D01*
X76296000Y-91777523D01*
X76676952Y-91587047D01*
X73248380Y-91587047D02*
X72867428Y-91777523D01*
X72105523Y-91777523D01*
X71724571Y-91587047D01*
X71534095Y-91206095D01*
X71534095Y-91015619D01*
X71724571Y-90634666D01*
X72105523Y-90444190D01*
X72676952Y-90444190D01*
X73057904Y-90253714D01*
X73248380Y-89872761D01*
X73248380Y-89682285D01*
X73057904Y-89301333D01*
X72676952Y-89110857D01*
X72105523Y-89110857D01*
X71724571Y-89301333D01*
X68105523Y-91587047D02*
X68486476Y-91777523D01*
X69248380Y-91777523D01*
X69629333Y-91587047D01*
X69819809Y-91396571D01*
X70010285Y-91015619D01*
X70010285Y-89872761D01*
X69819809Y-89491809D01*
X69629333Y-89301333D01*
X69248380Y-89110857D01*
X68486476Y-89110857D01*
X68105523Y-89301333D01*
X66391238Y-91777523D02*
X66391238Y-87777523D01*
X64676952Y-91777523D02*
X64676952Y-89682285D01*
X64867428Y-89301333D01*
X65248380Y-89110857D01*
X65819809Y-89110857D01*
X66200761Y-89301333D01*
X66391238Y-89491809D01*
X61248380Y-91587047D02*
X61629333Y-91777523D01*
X62391238Y-91777523D01*
X62772190Y-91587047D01*
X62962666Y-91206095D01*
X62962666Y-89682285D01*
X62772190Y-89301333D01*
X62391238Y-89110857D01*
X61629333Y-89110857D01*
X61248380Y-89301333D01*
X61057904Y-89682285D01*
X61057904Y-90063238D01*
X62962666Y-90444190D01*
X107343619Y-98277523D02*
X107343619Y-94277523D01*
X107343619Y-95801333D02*
X106962666Y-95610857D01*
X106200761Y-95610857D01*
X105819809Y-95801333D01*
X105629333Y-95991809D01*
X105438857Y-96372761D01*
X105438857Y-97515619D01*
X105629333Y-97896571D01*
X105819809Y-98087047D01*
X106200761Y-98277523D01*
X106962666Y-98277523D01*
X107343619Y-98087047D01*
X103153142Y-98277523D02*
X103534095Y-98087047D01*
X103724571Y-97706095D01*
X103724571Y-94277523D01*
X101629333Y-98277523D02*
X101629333Y-95610857D01*
X101629333Y-94277523D02*
X101819809Y-94468000D01*
X101629333Y-94658476D01*
X101438857Y-94468000D01*
X101629333Y-94277523D01*
X101629333Y-94658476D01*
X99724571Y-95610857D02*
X99724571Y-98277523D01*
X99724571Y-95991809D02*
X99534095Y-95801333D01*
X99153142Y-95610857D01*
X98581714Y-95610857D01*
X98200761Y-95801333D01*
X98010285Y-96182285D01*
X98010285Y-98277523D01*
X96105523Y-98277523D02*
X96105523Y-94277523D01*
X95724571Y-96753714D02*
X94581714Y-98277523D01*
X94581714Y-95610857D02*
X96105523Y-97134666D01*
X91343619Y-98087047D02*
X91724571Y-98277523D01*
X92486476Y-98277523D01*
X92867428Y-98087047D01*
X93057904Y-97706095D01*
X93057904Y-96182285D01*
X92867428Y-95801333D01*
X92486476Y-95610857D01*
X91724571Y-95610857D01*
X91343619Y-95801333D01*
X91153142Y-96182285D01*
X91153142Y-96563238D01*
X93057904Y-96944190D01*
X89438857Y-95610857D02*
X89438857Y-98277523D01*
X89438857Y-95991809D02*
X89248380Y-95801333D01*
X88867428Y-95610857D01*
X88296000Y-95610857D01*
X87915047Y-95801333D01*
X87724571Y-96182285D01*
X87724571Y-98277523D01*
X84105523Y-98277523D02*
X84105523Y-94277523D01*
X84105523Y-98087047D02*
X84486476Y-98277523D01*
X85248380Y-98277523D01*
X85629333Y-98087047D01*
X85819809Y-97896571D01*
X86010285Y-97515619D01*
X86010285Y-96372761D01*
X85819809Y-95991809D01*
X85629333Y-95801333D01*
X85248380Y-95610857D01*
X84486476Y-95610857D01*
X84105523Y-95801333D01*
X80676952Y-98087047D02*
X81057904Y-98277523D01*
X81819809Y-98277523D01*
X82200761Y-98087047D01*
X82391238Y-97706095D01*
X82391238Y-96182285D01*
X82200761Y-95801333D01*
X81819809Y-95610857D01*
X81057904Y-95610857D01*
X80676952Y-95801333D01*
X80486476Y-96182285D01*
X80486476Y-96563238D01*
X82391238Y-96944190D01*
X73819809Y-98277523D02*
X75724571Y-98277523D01*
X75724571Y-94277523D01*
X72486476Y-98277523D02*
X72486476Y-95610857D01*
X72486476Y-94277523D02*
X72676952Y-94468000D01*
X72486476Y-94658476D01*
X72296000Y-94468000D01*
X72486476Y-94277523D01*
X72486476Y-94658476D01*
X68867428Y-98087047D02*
X69248380Y-98277523D01*
X70010285Y-98277523D01*
X70391238Y-98087047D01*
X70581714Y-97896571D01*
X70772190Y-97515619D01*
X70772190Y-96372761D01*
X70581714Y-95991809D01*
X70391238Y-95801333D01*
X70010285Y-95610857D01*
X69248380Y-95610857D01*
X68867428Y-95801333D01*
X67153142Y-98277523D02*
X67153142Y-94277523D01*
X65438857Y-98277523D02*
X65438857Y-96182285D01*
X65629333Y-95801333D01*
X66010285Y-95610857D01*
X66581714Y-95610857D01*
X66962666Y-95801333D01*
X67153142Y-95991809D01*
X64105523Y-95610857D02*
X62581714Y-95610857D01*
X63534095Y-94277523D02*
X63534095Y-97706095D01*
X63343619Y-98087047D01*
X62962666Y-98277523D01*
X62581714Y-98277523D01*
X59724571Y-98087047D02*
X60105523Y-98277523D01*
X60867428Y-98277523D01*
X61248380Y-98087047D01*
X61438857Y-97706095D01*
X61438857Y-96182285D01*
X61248380Y-95801333D01*
X60867428Y-95610857D01*
X60105523Y-95610857D01*
X59724571Y-95801333D01*
X59534095Y-96182285D01*
X59534095Y-96563238D01*
X61438857Y-96944190D01*
X57819809Y-98277523D02*
X57819809Y-95610857D01*
X57819809Y-96372761D02*
X57629333Y-95991809D01*
X57438857Y-95801333D01*
X57057904Y-95610857D01*
X56676952Y-95610857D01*
M02*
